AsbirSans-Regular.ufo
<glyph name="uni0021" format="2">
  <advance width="250"/>
  <unicode hex="0021"/>
  <outline>
    <contour>
      <point x="218" y="130" type="line"/>
      <point x="282" y="130" type="line"/>
      <point x="282" y="555" type="line"/>
      <point x="218" y="555" type="line"/>
    </contour>
    <contour>
      <point x="282.0" y="35" type="curve"/>
      <point x="282.0" y="52.673112"/>
      <point x="267.673112" y="67.0"/>
      <point x="250" y="67.0" type="curve"/>
      <point x="232.326888" y="67.0"/>
      <point x="218.0" y="52.673112"/>
      <point x="218.0" y="35" type="curve"/>
      <point x="218.0" y="17.326888"/>
      <point x="232.326888" y="3.0"/>
      <point x="250" y="3.0" type="curve"/>
      <point x="267.673112" y="3.0"/>
      <point x="282.0" y="17.326888"/>
    </contour>
  </outline>
</glyph>
<glyph name="uni0022" format="2">
  <advance width="500"/>
  <unicode hex="0022"/>
  <outline>
    <contour>
      <point x="204.62098477792412" y="548.5017845431448" type="line"/>
      <point x="164.62098477792412" y="458.5017845431448" type="line"/>
      <point x="135.37901522207588" y="471.4982154568552" type="line"/>
      <point x="175.37901522207588" y="561.4982154568552" type="line"/>
    </contour>
    <contour>
      <point x="324.6209847779241" y="561.4982154568552" type="line"/>
      <point x="364.6209847779241" y="471.4982154568552" type="line"/>
      <point x="335.3790152220759" y="458.5017845431448" type="line"/>
      <point x="295.3790152220759" y="548.5017845431448" type="line"/>
    </contour>
  </outline>
</glyph>
<glyph name="uni0025" format="2">
  <advance width="500"/>
  <unicode hex="0025"/>
  <outline>
    <contour>
      <point x="190" y="520" type="curve"/>
      <point x="190" y="550.37566125"/>
      <point x="165.37566125" y="575"/>
      <point x="135" y="575" type="curve"/>
      <point x="104.62433874999999" y="575"/>
      <point x="80" y="550.37566125"/>
      <point x="80" y="520" type="curve"/>
      <point x="80" y="489.62433875"/>
      <point x="104.62433874999999" y="465"/>
      <point x="135" y="465" type="curve"/>
      <point x="165.37566125" y="465"/>
      <point x="190" y="489.62433875"/>
    </contour>
    <contour>
      <point x="420" y="180" type="curve"/>
      <point x="420" y="210.37566125"/>
      <point x="395.37566125" y="235"/>
      <point x="365" y="235" type="curve"/>
      <point x="334.62433875" y="235"/>
      <point x="310" y="210.37566125"/>
      <point x="310" y="180" type="curve"/>
      <point x="310" y="149.62433875"/>
      <point x="334.62433875" y="125"/>
      <point x="365" y="125" type="curve"/>
      <point x="395.37566125" y="125"/>
      <point x="420" y="149.62433875"/>
    </contour>
    <contour>
      <point x="81.59185499363426" y="94.73014926256002" type="line"/>
      <point x="361.5918549936343" y="634.73014926256" type="line"/>
      <point x="418.4081450063657" y="605.26985073744" type="line"/>
      <point x="138.40814500636574" y="65.26985073743998" type="line"/>
    </contour>
  </outline>
</glyph>
<glyph name="uni0026" format="2">
  <advance width="500"/>
  <unicode hex="0026"/>
  <outline>
    <contour>
      <point x="350" y="220" type="curve"/>
      <point x="350" y="319.411255"/>
      <point x="291.7970175" y="400"/>
      <point x="220" y="400" type="curve"/>
      <point x="148.20298250000002" y="400"/>
      <point x="90" y="319.411255"/>
      <point x="90" y="220" type="curve"/>
      <point x="90" y="120.588745"/>
      <point x="148.20298250000002" y="40"/>
      <point x="220" y="40" type="curve"/>
      <point x="291.7970175" y="40"/>
      <point x="350" y="120.588745"/>
    </contour>
    <contour>
      <point x="286" y="220" type="curve"/>
      <point x="286" y="155.934969"/>
      <point x="256.4507935" y="104"/>
      <point x="220" y="104" type="curve"/>
      <point x="183.5492065" y="104"/>
      <point x="154" y="155.934969"/>
      <point x="154" y="220" type="curve"/>
      <point x="154" y="284.065031"/>
      <point x="183.5492065" y="336"/>
      <point x="220" y="336" type="curve"/>
      <point x="256.4507935" y="336"/>
      <point x="286" y="284.065031"/>
    </contour>
    <contour>
      <point x="138.81765236366653" y="593.9119701065977" type="line"/>
      <point x="418.8176523636665" y="13.911970106597627" type="line"/>
      <point x="361.1823476363335" y="-13.911970106597627" type="line"/>
      <point x="81.18234763633349" y="566.0880298934023" type="line"/>
    </contour>
    <contour>
      <point x="400" y="520" type="curve"/>
      <point x="400" y="586.27417"/>
      <point x="355.228475" y="640"/>
      <point x="300" y="640" type="curve"/>
      <point x="244.771525" y="640"/>
      <point x="200" y="586.27417"/>
      <point x="200" y="520" type="curve"/>
      <point x="200" y="453.72583"/>
      <point x="244.771525" y="400"/>
      <point x="300" y="400" type="curve"/>
      <point x="355.228475" y="400"/>
      <point x="400" y="453.72583"/>
    </contour>
  </outline>
</glyph>
<glyph name="uni0027" format="2">
  <advance width="250"/>
  <unicode hex="0027"/>
  <outline>
    <contour>
      <point x="264.6209847779241" y="561.4982154568552" type="line"/>
      <point x="304.6209847779241" y="471.4982154568552" type="line"/>
      <point x="275.3790152220759" y="458.5017845431448" type="line"/>
      <point x="235.37901522207588" y="548.5017845431448" type="line"/>
    </contour>
  </outline>
</glyph>
<glyph name="uni0029" format="2">
  <advance width="310"/>
  <unicode hex="0029"/>
  <outline>
    <contour>
      <point x="286" y="80" type="line"/>
      <point x="350" y="80" type="line"/>
      <point x="350" y="620" type="line"/>
      <point x="286" y="620" type="line"/>
    </contour>
  </outline>
</glyph>
<glyph name="uni002A" format="2">
  <advance width="500"/>
  <unicode hex="002A"/>
  <outline>
    <contour>
      <point x="102.94435510300893" y="177.08777572441542" type="line"/>
      <point x="342.94435510300895" y="557.0877757244155" type="line"/>
      <point x="397.05564489699105" y="522.9122242755845" type="line"/>
      <point x="157.05564489699108" y="142.91222427558458" type="line"/>
    </contour>
    <contour>
      <point x="342.94435510300895" y="142.91222427558458" type="line"/>
      <point x="102.94435510300893" y="522.9122242755845" type="line"/>
      <point x="157.05564489699108" y="557.0877757244155" type="line"/>
      <point x="397.05564489699105" y="177.08777572441542" type="line"/>
    </contour>
    <contour>
      <point x="90" y="330" type="line"/>
      <point x="410" y="330" type="line"/>
      <point x="410" y="394" type="line"/>
      <point x="90" y="394" type="line"/>
    </contour>
  </outline>
</glyph>
<glyph name="uni002C" format="2">
  <advance width="250"/>
  <unicode hex="002C"/>
  <outline>
    <contour>
      <point x="282.0" y="35" type="curve"/>
      <point x="282.0" y="52.673112"/>
      <point x="267.673112" y="67.0"/>
      <point x="250" y="67.0" type="curve"/>
      <point x="232.326888" y="67.0"/>
      <point x="218.0" y="52.673112"/>
      <point x="218.0" y="35" type="curve"/>
      <point x="218.0" y="17.326888"/>
      <point x="232.326888" y="3.0"/>
      <point x="250" y="3.0" type="curve"/>
      <point x="267.673112" y="3.0"/>
      <point x="282.0" y="17.326888"/>
    </contour>
    <contour>
      <point x="265.2387863551892" y="15.12358836633946" type="line"/>
      <point x="225.23878635518918" y="-109.87641163366054" type="line"/>
      <point x="194.76121364481082" y="-100.12358836633946" type="line"/>
      <point x="234.76121364481082" y="24.87641163366054" type="line"/>
    </contour>
  </outline>
</glyph>
<glyph name="uni002D" format="2">
  <advance width="500"/>
  <unicode hex="002D"/>
  <outline>
    <contour>
      <point x="90" y="260" type="line"/>
      <point x="410" y="260" type="line"/>
      <point x="410" y="324" type="line"/>
      <point x="90" y="324" type="line"/>
    </contour>
  </outline>
</glyph>
<glyph name="uni002E" format="2">
  <advance width="250"/>
  <unicode hex="002E"/>
  <outline>
    <contour>
      <point x="282.0" y="35" type="curve"/>
      <point x="282.0" y="52.673112"/>
      <point x="267.673112" y="67.0"/>
      <point x="250" y="67.0" type="curve"/>
      <point x="232.326888" y="67.0"/>
      <point x="218.0" y="52.673112"/>
      <point x="218.0" y="35" type="curve"/>
      <point x="218.0" y="17.326888"/>
      <point x="232.326888" y="3.0"/>
      <point x="250" y="3.0" type="curve"/>
      <point x="267.673112" y="3.0"/>
      <point x="282.0" y="17.326888"/>
    </contour>
  </outline>
</glyph>
<glyph name="uni002F" format="2">
  <advance width="500"/>
  <unicode hex="002F"/>
  <outline>
    <contour>
      <point x="90.00239129568752" y="11.141968947316068" type="line"/>
      <point x="350.0023912956875" y="711.1419689473161" type="line"/>
      <point x="409.9976087043125" y="688.8580310526839" type="line"/>
      <point x="149.99760870431248" y="-11.141968947316068" type="line"/>
    </contour>
  </outline>
</glyph>
<glyph name="uni0030" format="2">
  <advance width="500"/>
  <unicode hex="0030"/>
  <outline>
    <contour>
      <point x="430" y="350" type="curve"/>
      <point x="430" y="543.2996625000001"/>
      <point x="349.411255" y="700"/>
      <point x="250" y="700" type="curve"/>
      <point x="150.58874500000002" y="700"/>
      <point x="70" y="543.2996625000001"/>
      <point x="70" y="350" type="curve"/>
      <point x="70" y="156.7003375"/>
      <point x="150.58874500000002" y="0"/>
      <point x="250" y="0" type="curve"/>
      <point x="349.411255" y="0"/>
      <point x="430" y="156.7003375"/>
    </contour>
    <contour>
      <point x="366" y="350" type="curve"/>
      <point x="366" y="192.0465615"/>
      <point x="314.065031" y="64"/>
      <point x="250" y="64" type="curve"/>
      <point x="185.934969" y="64"/>
      <point x="134" y="192.0465615"/>
      <point x="134" y="350" type="curve"/>
      <point x="134" y="507.9534385"/>
      <point x="185.934969" y="636"/>
      <point x="250" y="636" type="curve"/>
      <point x="314.065031" y="636"/>
      <point x="366" y="507.9534385"/>
    </contour>
  </outline>
</glyph>
<glyph name="uni0031" format="2">
  <advance width="500"/>
  <unicode hex="0031"/>
  <outline>
    <contour>
      <point x="235.92000000000002" y="0" type="curve"/>
      <point x="264.08" y="0" type="line"/>
      <point x="273.97694272" y="0"/>
      <point x="282" y="8.023057280000002"/>
      <point x="282" y="17.92" type="curve"/>
      <point x="282" y="682.08" type="line"/>
      <point x="282" y="691.97694272"/>
      <point x="273.97694272" y="700"/>
      <point x="264.08" y="700" type="curve"/>
      <point x="235.92000000000002" y="700" type="line"/>
      <point x="226.02305728000002" y="700"/>
      <point x="218" y="691.97694272"/>
      <point x="218" y="682.08" type="curve"/>
      <point x="218" y="17.92" type="line"/>
      <point x="218" y="8.023057280000002"/>
      <point x="226.02305728000002" y="0"/>
    </contour>
    <contour>
      <point x="80.0991958385814" y="580.0985062160022" type="line"/>
      <point x="193.09919583858138" y="720.0985062160022" type="line"/>
      <point x="242.90080416141862" y="679.9014937839978" type="line"/>
      <point x="129.90080416141862" y="539.9014937839978" type="line"/>
    </contour>
  </outline>
</glyph>
<glyph name="uni0033" format="2">
  <advance width="500"/>
  <unicode hex="0033"/>
  <outline>
    <contour>
      <point x="396.6" y="693.6" type="line"/>
      <point x="283.8" y="705.12"/>
      <point x="90.6" y="694.88"/>
      <point x="87.4" y="434.0" type="curve"/>
      <point x="84.2" y="357.0"/>
      <point x="229.72" y="355.12"/>
      <point x="246.62" y="350" type="curve"/>
      <point x="283.8" y="266.0"/>
      <point x="416.44" y="329.0"/>
      <point x="413.88" y="203.0" type="curve"/>
      <point x="411.32" y="3.2"/>
      <point x="209.44" y="-3.84"/>
      <point x="84.2" y="8.96" type="curve"/>
      <point x="91.24" y="62.72" type="line"/>
      <point x="216.2" y="39.68"/>
      <point x="377.4" y="54.4"/>
      <point x="381.88" y="189.0" type="curve"/>
      <point x="384.44" y="315.0"/>
      <point x="266.9" y="308.0"/>
      <point x="236.48" y="351.92" type="curve"/>
      <point x="192.54" y="359.6"/>
      <point x="110.44" y="357.68"/>
      <point x="114.28" y="448.0" type="curve"/>
      <point x="118.12" y="660.32"/>
      <point x="277.04" y="671.2"/>
      <point x="398.52" y="637.28" type="curve"/>
    </contour>
    <contour>
      <point x="250.36" y="316" type="curve"/>
      <point x="339.64" y="316" type="line"/>
      <point x="348.12309375999996" y="316"/>
      <point x="355" y="322.87690624000004"/>
      <point x="355" y="331.36" type="curve"/>
      <point x="355" y="364.64" type="line"/>
      <point x="355" y="373.12309375999996"/>
      <point x="348.12309375999996" y="380"/>
      <point x="339.64" y="380" type="curve"/>
      <point x="250.36" y="380" type="line"/>
      <point x="241.87690624" y="380"/>
      <point x="235" y="373.12309375999996"/>
      <point x="235" y="364.64" type="curve"/>
      <point x="235" y="331.36" type="line"/>
      <point x="235" y="322.87690624000004"/>
      <point x="241.87690624" y="316"/>
    </contour>
  </outline>
</glyph>
<glyph name="uni0034" format="2">
  <advance width="500"/>
  <unicode hex="0034"/>
  <outline>
    <contour>
      <point x="303.92" y="0" type="curve"/>
      <point x="332.08" y="0" type="line"/>
      <point x="341.97694272" y="0"/>
      <point x="350" y="8.023057280000002"/>
      <point x="350" y="17.92" type="curve"/>
      <point x="350" y="682.08" type="line"/>
      <point x="350" y="691.97694272"/>
      <point x="341.97694272" y="700"/>
      <point x="332.08" y="700" type="curve"/>
      <point x="303.92" y="700" type="line"/>
      <point x="294.02305728" y="700"/>
      <point x="286" y="691.97694272"/>
      <point x="286" y="682.08" type="curve"/>
      <point x="286" y="17.92" type="line"/>
      <point x="286" y="8.023057280000002"/>
      <point x="294.02305728" y="0"/>
    </contour>
    <contour>
      <point x="50.33770197685893" y="292.00616824746186" type="line"/>
      <point x="220.33770197685894" y="712.0061682474619" type="line"/>
      <point x="279.6622980231411" y="687.9938317525381" type="line"/>
      <point x="109.66229802314106" y="267.99383175253814" type="line"/>
    </contour>
    <contour>
      <point x="95.36" y="280" type="curve"/>
      <point x="394.64" y="280" type="line"/>
      <point x="403.12309375999996" y="280"/>
      <point x="410" y="286.87690624000004"/>
      <point x="410" y="295.36" type="curve"/>
      <point x="410" y="328.64" type="line"/>
      <point x="410" y="337.12309375999996"/>
      <point x="403.12309375999996" y="344"/>
      <point x="394.64" y="344" type="curve"/>
      <point x="95.36" y="344" type="line"/>
      <point x="86.87690624" y="344"/>
      <point x="80" y="337.12309375999996"/>
      <point x="80" y="328.64" type="curve"/>
      <point x="80" y="295.36" type="line"/>
      <point x="80" y="286.87690624000004"/>
      <point x="86.87690624" y="280"/>
    </contour>
  </outline>
</glyph>
<glyph name="uni0036" format="2">
  <advance width="500"/>
  <unicode hex="0036"/>
  <outline>
    <contour>
      <point x="425" y="190" type="curve"/>
      <point x="425" y="294.9341025"/>
      <point x="346.64983125000003" y="380"/>
      <point x="250" y="380" type="curve"/>
      <point x="153.35016875" y="380"/>
      <point x="75" y="294.9341025"/>
      <point x="75" y="190" type="curve"/>
      <point x="75" y="85.0658975"/>
      <point x="153.35016875" y="0"/>
      <point x="250" y="0" type="curve"/>
      <point x="346.64983125000003" y="0"/>
      <point x="425" y="85.0658975"/>
    </contour>
    <contour>
      <point x="361" y="190" type="curve"/>
      <point x="361" y="120.4121215"/>
      <point x="311.30360725" y="64"/>
      <point x="250" y="64" type="curve"/>
      <point x="188.69639275" y="64"/>
      <point x="139" y="120.4121215"/>
      <point x="139" y="190" type="curve"/>
      <point x="139" y="259.5878785"/>
      <point x="188.69639275" y="316"/>
      <point x="250" y="316" type="curve"/>
      <point x="311.30360725" y="316"/>
      <point x="361" y="259.5878785"/>
    </contour>
    <contour>
      <point x="75" y="190" type="line"/>
      <point x="75" y="505"/>
      <point x="188" y="710"/>
      <point x="352" y="710" type="curve"/>
      <point x="385" y="646" type="line"/>
      <point x="250" y="636"/>
      <point x="139" y="492"/>
      <point x="139" y="220" type="curve"/>
    </contour>
  </outline>
</glyph>
<glyph name="uni0037" format="2">
  <advance width="500"/>
  <unicode hex="0037"/>
  <outline>
    <contour>
      <point x="85.36" y="636" type="curve"/>
      <point x="414.64" y="636" type="line"/>
      <point x="423.12309375999996" y="636"/>
      <point x="430" y="642.87690624"/>
      <point x="430" y="651.36" type="curve"/>
      <point x="430" y="684.64" type="line"/>
      <point x="430" y="693.12309376"/>
      <point x="423.12309375999996" y="700"/>
      <point x="414.64" y="700" type="curve"/>
      <point x="85.36" y="700" type="line"/>
      <point x="76.87690624" y="700"/>
      <point x="70" y="693.12309376"/>
      <point x="70" y="684.64" type="curve"/>
      <point x="70" y="651.36" type="line"/>
      <point x="70" y="642.87690624"/>
      <point x="76.87690624" y="636"/>
    </contour>
    <contour>
      <point x="440.1152875990784" y="657.1801361919479" type="line"/>
      <point x="200.11528759907839" y="-10.819863808052112" type="line"/>
      <point x="139.88471240092161" y="10.819863808052112" type="line"/>
      <point x="379.8847124009216" y="678.8198638080521" type="line"/>
    </contour>
  </outline>
</glyph>
<glyph name="uni0038" format="2">
  <advance width="500"/>
  <unicode hex="0038"/>
  <outline>
    <contour>
      <point x="415" y="525" type="curve"/>
      <point x="415" y="613.36556"/>
      <point x="341.12698375" y="685"/>
      <point x="250" y="685" type="curve"/>
      <point x="158.87301625" y="685"/>
      <point x="85" y="613.36556"/>
      <point x="85" y="525" type="curve"/>
      <point x="85" y="436.63444"/>
      <point x="158.87301625" y="365"/>
      <point x="250" y="365" type="curve"/>
      <point x="341.12698375" y="365"/>
      <point x="415" y="436.63444"/>
    </contour>
    <contour>
      <point x="351" y="525" type="curve"/>
      <point x="351" y="471.980664"/>
      <point x="305.78075975" y="429"/>
      <point x="250" y="429" type="curve"/>
      <point x="194.21924024999998" y="429"/>
      <point x="149" y="471.980664"/>
      <point x="149" y="525" type="curve"/>
      <point x="149" y="578.019336"/>
      <point x="194.21924024999998" y="621"/>
      <point x="250" y="621" type="curve"/>
      <point x="305.78075975" y="621"/>
      <point x="351" y="578.019336"/>
    </contour>
    <contour>
      <point x="415" y="175" type="curve"/>
      <point x="415" y="263.36556"/>
      <point x="341.12698375" y="335"/>
      <point x="250" y="335" type="curve"/>
      <point x="158.87301625" y="335"/>
      <point x="85" y="263.36556"/>
      <point x="85" y="175" type="curve"/>
      <point x="85" y="86.63444"/>
      <point x="158.87301625" y="15"/>
      <point x="250" y="15" type="curve"/>
      <point x="341.12698375" y="15"/>
      <point x="415" y="86.63444"/>
    </contour>
    <contour>
      <point x="351" y="175" type="curve"/>
      <point x="351" y="121.980664"/>
      <point x="305.78075975" y="79"/>
      <point x="250" y="79" type="curve"/>
      <point x="194.21924024999998" y="79"/>
      <point x="149" y="121.980664"/>
      <point x="149" y="175" type="curve"/>
      <point x="149" y="228.019336"/>
      <point x="194.21924024999998" y="271"/>
      <point x="250" y="271" type="curve"/>
      <point x="305.78075975" y="271"/>
      <point x="351" y="228.019336"/>
    </contour>
  </outline>
</glyph>
<glyph name="uni0039" format="2">
  <advance width="500"/>
  <unicode hex="0039"/>
  <outline>
    <contour>
      <point x="425" y="510" type="curve"/>
      <point x="425" y="614.9341025"/>
      <point x="346.64983125000003" y="700"/>
      <point x="250" y="700" type="curve"/>
      <point x="153.35016875" y="700"/>
      <point x="75" y="614.9341025"/>
      <point x="75" y="510" type="curve"/>
      <point x="75" y="405.0658975"/>
      <point x="153.35016875" y="320"/>
      <point x="250" y="320" type="curve"/>
      <point x="346.64983125000003" y="320"/>
      <point x="425" y="405.0658975"/>
    </contour>
    <contour>
      <point x="361" y="510" type="curve"/>
      <point x="361" y="440.4121215"/>
      <point x="311.30360725" y="384"/>
      <point x="250" y="384" type="curve"/>
      <point x="188.69639275" y="384"/>
      <point x="139" y="440.4121215"/>
      <point x="139" y="510" type="curve"/>
      <point x="139" y="579.5878785"/>
      <point x="188.69639275" y="636"/>
      <point x="250" y="636" type="curve"/>
      <point x="311.30360725" y="636"/>
      <point x="361" y="579.5878785"/>
    </contour>
    <contour>
      <point x="425" y="510" type="line"/>
      <point x="425" y="194"/>
      <point x="312" y="-10"/>
      <point x="148" y="-10" type="curve"/>
      <point x="115" y="54" type="line"/>
      <point x="250" y="64"/>
      <point x="361" y="208"/>
      <point x="361" y="480" type="curve"/>
    </contour>
  </outline>
</glyph>
<glyph name="uni003A" format="2">
  <advance width="250"/>
  <unicode hex="003A"/>
  <outline>
    <contour>
      <point x="282.0" y="390" type="curve"/>
      <point x="282.0" y="407.673112"/>
      <point x="267.673112" y="422.0"/>
      <point x="250" y="422.0" type="curve"/>
      <point x="232.326888" y="422.0"/>
      <point x="218.0" y="407.673112"/>
      <point x="218.0" y="390" type="curve"/>
      <point x="218.0" y="372.326888"/>
      <point x="232.326888" y="358.0"/>
      <point x="250" y="358.0" type="curve"/>
      <point x="267.673112" y="358.0"/>
      <point x="282.0" y="372.326888"/>
    </contour>
    <contour>
      <point x="282.0" y="35" type="curve"/>
      <point x="282.0" y="52.673112"/>
      <point x="267.673112" y="67.0"/>
      <point x="250" y="67.0" type="curve"/>
      <point x="232.326888" y="67.0"/>
      <point x="218.0" y="52.673112"/>
      <point x="218.0" y="35" type="curve"/>
      <point x="218.0" y="17.326888"/>
      <point x="232.326888" y="3.0"/>
      <point x="250" y="3.0" type="curve"/>
      <point x="267.673112" y="3.0"/>
      <point x="282.0" y="17.326888"/>
    </contour>
  </outline>
</glyph>
<glyph name="uni003F" format="2">
  <advance width="500"/>
  <unicode hex="003F"/>
  <outline>
    <contour>
      <point x="105" y="491" type="line"/>
      <point x="355" y="491" type="line"/>
      <point x="355" y="555" type="line"/>
      <point x="105" y="555" type="line"/>
    </contour>
    <contour>
      <point x="291" y="300" type="line"/>
      <point x="355" y="300" type="line"/>
      <point x="355" y="555" type="line"/>
      <point x="291" y="555" type="line"/>
    </contour>
    <contour>
      <point x="215" y="190" type="line"/>
      <point x="279" y="190" type="line"/>
      <point x="279" y="300" type="line"/>
      <point x="215" y="300" type="line"/>
    </contour>
    <contour>
      <point x="282.0" y="35" type="curve"/>
      <point x="282.0" y="52.673112"/>
      <point x="267.673112" y="67.0"/>
      <point x="250" y="67.0" type="curve"/>
      <point x="232.326888" y="67.0"/>
      <point x="218.0" y="52.673112"/>
      <point x="218.0" y="35" type="curve"/>
      <point x="218.0" y="17.326888"/>
      <point x="232.326888" y="3.0"/>
      <point x="250" y="3.0" type="curve"/>
      <point x="267.673112" y="3.0"/>
      <point x="282.0" y="17.326888"/>
    </contour>
  </outline>
</glyph>
<glyph name="uni0040" format="2">
  <advance width="560"/>
  <unicode hex="0040"/>
  <outline>
    <contour>
      <point x="460" y="350" type="curve"/>
      <point x="460" y="504.63973"/>
      <point x="365.9797975" y="630"/>
      <point x="250" y="630" type="curve"/>
      <point x="134.02020249999998" y="630"/>
      <point x="40" y="504.63973"/>
      <point x="40" y="350" type="curve"/>
      <point x="40" y="195.36027"/>
      <point x="134.02020249999998" y="70"/>
      <point x="250" y="70" type="curve"/>
      <point x="365.9797975" y="70"/>
      <point x="460" y="195.36027"/>
    </contour>
    <contour>
      <point x="396" y="350" type="curve"/>
      <point x="396" y="230.70649400000002"/>
      <point x="330.6335735" y="134"/>
      <point x="250" y="134" type="curve"/>
      <point x="169.3664265" y="134"/>
      <point x="104" y="230.70649400000002"/>
      <point x="104" y="350" type="curve"/>
      <point x="104" y="469.293506"/>
      <point x="169.3664265" y="566"/>
      <point x="250" y="566" type="curve"/>
      <point x="330.6335735" y="566"/>
      <point x="396" y="469.293506"/>
    </contour>
    <contour>
      <point x="360" y="350" type="curve"/>
      <point x="360" y="416.27417"/>
      <point x="315.228475" y="470"/>
      <point x="260" y="470" type="curve"/>
      <point x="204.771525" y="470"/>
      <point x="160" y="416.27417"/>
      <point x="160" y="350" type="curve"/>
      <point x="160" y="283.72583"/>
      <point x="204.771525" y="230"/>
      <point x="260" y="230" type="curve"/>
      <point x="315.228475" y="230"/>
      <point x="360" y="283.72583"/>
    </contour>
    <contour>
      <point x="296" y="350" type="curve"/>
      <point x="296" y="319.072054"/>
      <point x="279.882251" y="294"/>
      <point x="260" y="294" type="curve"/>
      <point x="240.117749" y="294"/>
      <point x="224" y="319.072054"/>
      <point x="224" y="350" type="curve"/>
      <point x="224" y="380.927946"/>
      <point x="240.117749" y="406"/>
      <point x="260" y="406" type="curve"/>
      <point x="279.882251" y="406"/>
      <point x="296" y="380.927946"/>
    </contour>
    <contour>
      <point x="320" y="290" type="line"/>
      <point x="384" y="290" type="line"/>
      <point x="384" y="440" type="line"/>
      <point x="320" y="440" type="line"/>
    </contour>
  </outline>
</glyph>
<glyph name="A" format="2">
  <advance width="500"/>
  <unicode hex="0041"/>
  <outline>
    <contour>
      <point x="40.69211306300621" y="6.619381809535829" type="line"/>
      <point x="188.69211306300622" y="706.6193818095359" type="line"/>
      <point x="251.30788693699378" y="693.3806181904641" type="line"/>
      <point x="103.30788693699378" y="-6.619381809535829" type="line"/>
    </contour>
    <contour>
      <point x="396.6921130630062" y="-6.619381809535829" type="line"/>
      <point x="248.69211306300622" y="693.3806181904641" type="line"/>
      <point x="311.3078869369938" y="706.6193818095359" type="line"/>
      <point x="459.3078869369938" y="6.619381809535829" type="line"/>
    </contour>
    <contour>
      <point x="165.08" y="286" type="curve"/>
      <point x="334.92" y="286" type="line"/>
      <point x="342.69616928" y="286"/>
      <point x="349" y="292.30383072"/>
      <point x="349" y="300.08" type="curve"/>
      <point x="349" y="324.40000000000003" type="line"/>
      <point x="349" y="332.17616928"/>
      <point x="342.69616928" y="338.48"/>
      <point x="334.92" y="338.48" type="curve"/>
      <point x="165.08" y="338.48" type="line"/>
      <point x="157.30383072" y="338.48"/>
      <point x="151" y="332.17616928"/>
      <point x="151" y="324.40000000000003" type="curve"/>
      <point x="151" y="300.08" type="line"/>
      <point x="151" y="292.30383072"/>
      <point x="157.30383072" y="286"/>
    </contour>
  </outline>
</glyph>
<glyph name="B" format="2">
  <advance width="500"/>
  <unicode hex="0042"/>
  <outline>
    <contour>
      <point x="40" y="0" type="line"/>
      <point x="104" y="0" type="line"/>
      <point x="104" y="700" type="line"/>
      <point x="40" y="700" type="line"/>
    </contour>
    <contour>
      <point x="435" y="525" type="curve"/>
      <point x="435" y="613.36556"/>
      <point x="349.9341025" y="685"/>
      <point x="245" y="685" type="curve"/>
      <point x="140.0658975" y="685"/>
      <point x="55" y="613.36556"/>
      <point x="55" y="525" type="curve"/>
      <point x="55" y="436.63444"/>
      <point x="140.0658975" y="365"/>
      <point x="245" y="365" type="curve"/>
      <point x="349.9341025" y="365"/>
      <point x="435" y="436.63444"/>
    </contour>
    <contour>
      <point x="371" y="525" type="curve"/>
      <point x="371" y="471.980664"/>
      <point x="314.5878785" y="429"/>
      <point x="245" y="429" type="curve"/>
      <point x="175.4121215" y="429"/>
      <point x="119" y="471.980664"/>
      <point x="119" y="525" type="curve"/>
      <point x="119" y="578.019336"/>
      <point x="175.4121215" y="621"/>
      <point x="245" y="621" type="curve"/>
      <point x="314.5878785" y="621"/>
      <point x="371" y="578.019336"/>
    </contour>
    <contour>
      <point x="435" y="175" type="curve"/>
      <point x="435" y="263.36556"/>
      <point x="349.9341025" y="335"/>
      <point x="245" y="335" type="curve"/>
      <point x="140.0658975" y="335"/>
      <point x="55" y="263.36556"/>
      <point x="55" y="175" type="curve"/>
      <point x="55" y="86.63444"/>
      <point x="140.0658975" y="15"/>
      <point x="245" y="15" type="curve"/>
      <point x="349.9341025" y="15"/>
      <point x="435" y="86.63444"/>
    </contour>
    <contour>
      <point x="371" y="175" type="curve"/>
      <point x="371" y="121.980664"/>
      <point x="314.5878785" y="79"/>
      <point x="245" y="79" type="curve"/>
      <point x="175.4121215" y="79"/>
      <point x="119" y="121.980664"/>
      <point x="119" y="175" type="curve"/>
      <point x="119" y="228.019336"/>
      <point x="175.4121215" y="271"/>
      <point x="245" y="271" type="curve"/>
      <point x="314.5878785" y="271"/>
      <point x="371" y="228.019336"/>
    </contour>
  </outline>
</glyph>
<glyph name="G" format="2">
  <advance width="500"/>
  <unicode hex="0047"/>
  <outline>
    <contour>
      <point x="419.48" y="588.0" type="line"/>
      <point x="353.76" y="700"/>
      <point x="162.96" y="700"/>
      <point x="40" y="500.5" type="curve"/>
      <point x="40" y="199.5"/>
      <point x="162.96" y="0"/>
      <point x="353.76" y="0" type="curve"/>
      <point x="406.76" y="87.5"/>
      <point x="419.48" y="147.0"/>
      <point x="419.48" y="175.0" type="curve"/>
      <point x="368.92" y="213.5" type="line"/>
      <point x="332.56" y="64"/>
      <point x="104" y="238.0"/>
      <point x="104" y="350" type="curve"/>
      <point x="104" y="462.0"/>
      <point x="332.56" y="636"/>
      <point x="368.92" y="486.5" type="curve"/>
    </contour>
    <contour>
      <point x="267.92" y="294" type="curve"/>
      <point x="422.08" y="294" type="line"/>
      <point x="431.97694272" y="294"/>
      <point x="440" y="302.02305728"/>
      <point x="440" y="311.92" type="curve"/>
      <point x="440" y="340.08" type="line"/>
      <point x="440" y="349.97694272"/>
      <point x="431.97694272" y="358"/>
      <point x="422.08" y="358" type="curve"/>
      <point x="267.92" y="358" type="line"/>
      <point x="258.02305728" y="358"/>
      <point x="250" y="349.97694272"/>
      <point x="250" y="340.08" type="curve"/>
      <point x="250" y="311.92" type="line"/>
      <point x="250" y="302.02305728"/>
      <point x="258.02305728" y="294"/>
    </contour>
    <contour>
      <point x="393.92" y="132" type="curve"/>
      <point x="422.08" y="132" type="line"/>
      <point x="431.97694272" y="132"/>
      <point x="440" y="140.02305728000002"/>
      <point x="440" y="149.92000000000002" type="curve"/>
      <point x="440" y="282.08" type="line"/>
      <point x="440" y="291.97694272"/>
      <point x="431.97694272" y="300"/>
      <point x="422.08" y="300" type="curve"/>
      <point x="393.92" y="300" type="line"/>
      <point x="384.02305728" y="300"/>
      <point x="376" y="291.97694272"/>
      <point x="376" y="282.08" type="curve"/>
      <point x="376" y="149.92000000000002" type="line"/>
      <point x="376" y="140.02305728000002"/>
      <point x="384.02305728" y="132"/>
    </contour>
  </outline>
</glyph>
<glyph name="H" format="2">
  <advance width="500"/>
  <unicode hex="0048"/>
  <outline>
    <contour>
      <point x="40" y="0" type="line"/>
      <point x="104" y="0" type="line"/>
      <point x="104" y="700" type="line"/>
      <point x="40" y="700" type="line"/>
    </contour>
    <contour>
      <point x="396" y="0" type="line"/>
      <point x="460" y="0" type="line"/>
      <point x="460" y="700" type="line"/>
      <point x="396" y="700" type="line"/>
    </contour>
    <contour>
      <point x="40" y="320" type="line"/>
      <point x="460" y="320" type="line"/>
      <point x="460" y="384" type="line"/>
      <point x="40" y="384" type="line"/>
    </contour>
  </outline>
</glyph>
<glyph name="J" format="2">
  <advance width="500"/>
  <unicode hex="004A"/>
  <outline>
    <contour>
      <point x="362.92" y="150" type="curve"/>
      <point x="391.08" y="150" type="line"/>
      <point x="400.97694272" y="150"/>
      <point x="409" y="158.02305728000002"/>
      <point x="409" y="167.92000000000002" type="curve"/>
      <point x="409" y="682.08" type="line"/>
      <point x="409" y="691.97694272"/>
      <point x="400.97694272" y="700"/>
      <point x="391.08" y="700" type="curve"/>
      <point x="362.92" y="700" type="line"/>
      <point x="353.02305728" y="700"/>
      <point x="345" y="691.97694272"/>
      <point x="345" y="682.08" type="curve"/>
      <point x="345" y="167.92000000000002" type="line"/>
      <point x="345" y="158.02305728000002"/>
      <point x="353.02305728" y="150"/>
    </contour>
    <contour>
      <point x="409" y="150" type="line"/>
      <point x="409" y="42"/>
      <point x="328" y="-8"/>
      <point x="218" y="-8" type="curve"/>
      <point x="110" y="-8"/>
      <point x="48" y="47"/>
      <point x="48" y="160" type="curve"/>
      <point x="112" y="160" type="line"/>
      <point x="112" y="85"/>
      <point x="147" y="54"/>
      <point x="218" y="54" type="curve"/>
      <point x="286" y="54"/>
      <point x="345" y="83"/>
      <point x="345" y="150" type="curve"/>
    </contour>
  </outline>
</glyph>
<glyph name="K" format="2">
  <advance width="500"/>
  <unicode hex="004B"/>
  <outline>
    <contour>
      <point x="40" y="0" type="line"/>
      <point x="104" y="0" type="line"/>
      <point x="104" y="700" type="line"/>
      <point x="40" y="700" type="line"/>
    </contour>
    <contour>
      <point x="453.41600442452614" y="678.1896644502986" type="line"/>
      <point x="127.41600442452614" y="328.1896644502985" type="line"/>
      <point x="80.58399557547386" y="371.8103355497015" type="line"/>
      <point x="406.58399557547386" y="721.8103355497014" type="line"/>
    </contour>
    <contour>
      <point x="127.08439427299045" y="372.1610185020708" type="line"/>
      <point x="463.08439427299044" y="22.16101850207083" type="line"/>
      <point x="416.91560572700956" y="-22.16101850207083" type="line"/>
      <point x="80.91560572700955" y="327.8389814979292" type="line"/>
    </contour>
  </outline>
</glyph>
<glyph name="L" format="2">
  <advance width="500"/>
  <unicode hex="004C"/>
  <outline>
    <contour>
      <point x="40" y="0" type="line"/>
      <point x="104" y="0" type="line"/>
      <point x="104" y="700" type="line"/>
      <point x="40" y="700" type="line"/>
    </contour>
    <contour>
      <point x="40" y="0" type="line"/>
      <point x="440" y="0" type="line"/>
      <point x="440" y="64" type="line"/>
      <point x="40" y="64" type="line"/>
    </contour>
  </outline>
</glyph>
<glyph name="M" format="2">
  <advance width="560"/>
  <unicode hex="004D"/>
  <outline>
    <contour>
      <point x="40" y="0" type="line"/>
      <point x="104" y="0" type="line"/>
      <point x="104" y="700" type="line"/>
      <point x="40" y="700" type="line"/>
    </contour>
    <contour>
      <point x="430" y="0" type="line"/>
      <point x="494" y="0" type="line"/>
      <point x="494" y="700" type="line"/>
      <point x="430" y="700" type="line"/>
    </contour>
    <contour>
      <point x="133.53346612958993" y="712.319674442629" type="line"/>
      <point x="279.5334661295899" y="362.3196744426289" type="line"/>
      <point x="220.46653387041007" y="337.6803255573711" type="line"/>
      <point x="74.46653387041007" y="687.680325557371" type="line"/>
    </contour>
    <contour>
      <point x="425.5334661295899" y="687.680325557371" type="line"/>
      <point x="279.5334661295899" y="337.6803255573711" type="line"/>
      <point x="220.46653387041007" y="362.3196744426289" type="line"/>
      <point x="366.4665338704101" y="712.319674442629" type="line"/>
    </contour>
  </outline>
</glyph>
<glyph name="N" format="2">
  <advance width="500"/>
  <unicode hex="004E"/>
  <outline>
    <contour>
      <point x="40" y="0" type="line"/>
      <point x="104" y="0" type="line"/>
      <point x="104" y="700" type="line"/>
      <point x="40" y="700" type="line"/>
    </contour>
    <contour>
      <point x="396" y="0" type="line"/>
      <point x="460" y="0" type="line"/>
      <point x="460" y="700" type="line"/>
      <point x="396" y="700" type="line"/>
    </contour>
    <contour>
      <point x="133.53346612958993" y="712.319674442629" type="line"/>
      <point x="425.5334661295899" y="12.31967444262894" type="line"/>
      <point x="366.4665338704101" y="-12.31967444262894" type="line"/>
      <point x="74.46653387041007" y="687.680325557371" type="line"/>
    </contour>
  </outline>
</glyph>
<glyph name="O" format="2">
  <advance width="500"/>
  <unicode hex="004F"/>
  <outline>
    <contour>
      <point x="460" y="350" type="curve"/>
      <point x="460" y="543.2996625000001"/>
      <point x="365.9797975" y="700"/>
      <point x="250" y="700" type="curve"/>
      <point x="134.02020249999998" y="700"/>
      <point x="40" y="543.2996625000001"/>
      <point x="40" y="350" type="curve"/>
      <point x="40" y="156.7003375"/>
      <point x="134.02020249999998" y="0"/>
      <point x="250" y="0" type="curve"/>
      <point x="365.9797975" y="0"/>
      <point x="460" y="156.7003375"/>
    </contour>
    <contour>
      <point x="396" y="350" type="curve"/>
      <point x="396" y="192.0465615"/>
      <point x="330.6335735" y="64"/>
      <point x="250" y="64" type="curve"/>
      <point x="169.3664265" y="64"/>
      <point x="104" y="192.0465615"/>
      <point x="104" y="350" type="curve"/>
      <point x="104" y="507.9534385"/>
      <point x="169.3664265" y="636"/>
      <point x="250" y="636" type="curve"/>
      <point x="330.6335735" y="636"/>
      <point x="396" y="507.9534385"/>
    </contour>
  </outline>
</glyph>
<glyph name="R" format="2">
  <advance width="500"/>
  <unicode hex="0052"/>
  <outline>
    <contour>
      <point x="40" y="0" type="line"/>
      <point x="104" y="0" type="line"/>
      <point x="104" y="700" type="line"/>
      <point x="40" y="700" type="line"/>
    </contour>
    <contour>
      <point x="435" y="525" type="curve"/>
      <point x="435" y="613.36556"/>
      <point x="349.9341025" y="685"/>
      <point x="245" y="685" type="curve"/>
      <point x="140.0658975" y="685"/>
      <point x="55" y="613.36556"/>
      <point x="55" y="525" type="curve"/>
      <point x="55" y="436.63444"/>
      <point x="140.0658975" y="365"/>
      <point x="245" y="365" type="curve"/>
      <point x="349.9341025" y="365"/>
      <point x="435" y="436.63444"/>
    </contour>
    <contour>
      <point x="371" y="525" type="curve"/>
      <point x="371" y="471.980664"/>
      <point x="314.5878785" y="429"/>
      <point x="245" y="429" type="curve"/>
      <point x="175.4121215" y="429"/>
      <point x="119" y="471.980664"/>
      <point x="119" y="525" type="curve"/>
      <point x="119" y="578.019336"/>
      <point x="175.4121215" y="621"/>
      <point x="245" y="621" type="curve"/>
      <point x="314.5878785" y="621"/>
      <point x="371" y="578.019336"/>
    </contour>
    <contour>
      <point x="278.300312091103" y="374.9362758258599" type="line"/>
      <point x="468.300312091103" y="14.936275825859932" type="line"/>
      <point x="411.699687908897" y="-14.936275825859932" type="line"/>
      <point x="221.69968790889698" y="345.0637241741401" type="line"/>
    </contour>
  </outline>
</glyph>
<glyph name="S" format="2">
  <advance width="500"/>
  <unicode hex="0053"/>
  <outline>
    <contour>
      <point x="412.6" y="693.6" type="line"/>
      <point x="287.0" y="705.12"/>
      <point x="74.6" y="694.88"/>
      <point x="71.4" y="434.0" type="curve"/>
      <point x="68.2" y="357.0"/>
      <point x="227.8" y="355.12"/>
      <point x="246.3" y="350" type="curve"/>
      <point x="287.0" y="266.0"/>
      <point x="432.44" y="329.0"/>
      <point x="429.88" y="203.0" type="curve"/>
      <point x="427.32" y="3.2"/>
      <point x="205.6" y="-3.84"/>
      <point x="68.2" y="8.96" type="curve"/>
      <point x="75.24" y="62.72" type="line"/>
      <point x="213.0" y="39.68"/>
      <point x="393.4" y="54.4"/>
      <point x="397.88" y="189.0" type="curve"/>
      <point x="400.44" y="315.0"/>
      <point x="268.5" y="308.0"/>
      <point x="235.2" y="351.92" type="curve"/>
      <point x="187.1" y="359.6"/>
      <point x="94.44" y="357.68"/>
      <point x="98.28" y="448.0" type="curve"/>
      <point x="102.12" y="660.32"/>
      <point x="279.6" y="671.2"/>
      <point x="414.52" y="637.28" type="curve"/>
    </contour>
  </outline>
</glyph>
<glyph name="U" format="2">
  <advance width="500"/>
  <unicode hex="0055"/>
  <outline>
    <contour>
      <point x="57.92" y="210" type="curve"/>
      <point x="86.08" y="210" type="line"/>
      <point x="95.97694272" y="210"/>
      <point x="104" y="218.02305728000002"/>
      <point x="104" y="227.92000000000002" type="curve"/>
      <point x="104" y="682.08" type="line"/>
      <point x="104" y="691.97694272"/>
      <point x="95.97694272" y="700"/>
      <point x="86.08" y="700" type="curve"/>
      <point x="57.92" y="700" type="line"/>
      <point x="48.02305728" y="700"/>
      <point x="40" y="691.97694272"/>
      <point x="40" y="682.08" type="curve"/>
      <point x="40" y="227.92000000000002" type="line"/>
      <point x="40" y="218.02305728000002"/>
      <point x="48.02305728" y="210"/>
    </contour>
    <contour>
      <point x="413.92" y="210" type="curve"/>
      <point x="442.08" y="210" type="line"/>
      <point x="451.97694272" y="210"/>
      <point x="460" y="218.02305728000002"/>
      <point x="460" y="227.92000000000002" type="curve"/>
      <point x="460" y="682.08" type="line"/>
      <point x="460" y="691.97694272"/>
      <point x="451.97694272" y="700"/>
      <point x="442.08" y="700" type="curve"/>
      <point x="413.92" y="700" type="line"/>
      <point x="404.02305728" y="700"/>
      <point x="396" y="691.97694272"/>
      <point x="396" y="682.08" type="curve"/>
      <point x="396" y="227.92000000000002" type="line"/>
      <point x="396" y="218.02305728000002"/>
      <point x="404.02305728" y="210"/>
    </contour>
    <contour>
      <point x="40" y="210" type="line"/>
      <point x="40" y="68"/>
      <point x="127" y="-8"/>
      <point x="250" y="-8" type="curve"/>
      <point x="373" y="-8"/>
      <point x="460" y="68"/>
      <point x="460" y="210" type="curve"/>
      <point x="396" y="210" type="line"/>
      <point x="396" y="104"/>
      <point x="345" y="54"/>
      <point x="250" y="54" type="curve"/>
      <point x="155" y="54"/>
      <point x="104" y="104"/>
      <point x="104" y="210" type="curve"/>
    </contour>
  </outline>
</glyph>
<glyph name="V" format="2">
  <advance width="500"/>
  <unicode hex="0056"/>
  <outline>
    <contour>
      <point x="106.04456000465062" y="707.7611400011626" type="line"/>
      <point x="281.04456000465063" y="7.761140001162654" type="line"/>
      <point x="218.9554399953494" y="-7.761140001162654" type="line"/>
      <point x="43.95543999534938" y="692.2388599988374" type="line"/>
    </contour>
    <contour>
      <point x="456.04456000465063" y="692.2388599988374" type="line"/>
      <point x="281.04456000465063" y="-7.761140001162654" type="line"/>
      <point x="218.9554399953494" y="7.761140001162654" type="line"/>
      <point x="393.95543999534937" y="707.7611400011626" type="line"/>
    </contour>
  </outline>
</glyph>
<glyph name="W" format="2">
  <advance width="560"/>
  <unicode hex="0057"/>
  <outline>
    <contour>
      <point x="76.70931546628394" y="704.3034070989956" type="line"/>
      <point x="171.70931546628393" y="4.3034070989956765" type="line"/>
      <point x="108.29068453371606" y="-4.3034070989956765" type="line"/>
      <point x="13.290684533716064" y="695.6965929010044" type="line"/>
    </contour>
    <contour>
      <point x="486.70931546628395" y="695.6965929010044" type="line"/>
      <point x="391.70931546628395" y="-4.3034070989956765" type="line"/>
      <point x="328.29068453371605" y="4.3034070989956765" type="line"/>
      <point x="423.29068453371605" y="704.3034070989956" type="line"/>
    </contour>
    <contour>
      <point x="109.20161036843507" y="8.686725280697798" type="line"/>
      <point x="219.20161036843507" y="398.6867252806978" type="line"/>
      <point x="280.79838963156493" y="381.3132747193022" type="line"/>
      <point x="170.79838963156493" y="-8.686725280697798" type="line"/>
    </contour>
    <contour>
      <point x="329.20161036843507" y="-8.686725280697798" type="line"/>
      <point x="219.20161036843507" y="381.3132747193022" type="line"/>
      <point x="280.79838963156493" y="398.6867252806978" type="line"/>
      <point x="390.79838963156493" y="8.686725280697798" type="line"/>
    </contour>
  </outline>
</glyph>
<glyph name="X" format="2">
  <advance width="500"/>
  <unicode hex="0058"/>
  <outline>
    <contour>
      <point x="98.4572096741807" y="714.6351364038644" type="line"/>
      <point x="458.4572096741807" y="14.635136403864363" type="line"/>
      <point x="401.5427903258193" y="-14.635136403864363" type="line"/>
      <point x="41.5427903258193" y="685.3648635961356" type="line"/>
    </contour>
    <contour>
      <point x="458.4572096741807" y="685.3648635961356" type="line"/>
      <point x="98.4572096741807" y="-14.635136403864363" type="line"/>
      <point x="41.5427903258193" y="14.635136403864363" type="line"/>
      <point x="401.5427903258193" y="714.6351364038644" type="line"/>
    </contour>
  </outline>
</glyph>
<glyph name="Y" format="2">
  <advance width="500"/>
  <unicode hex="0059"/>
  <outline>
    <contour>
      <point x="98.4572096741807" y="714.6351364038644" type="line"/>
      <point x="278.4572096741807" y="364.63513640386435" type="line"/>
      <point x="221.54279032581928" y="335.36486359613565" type="line"/>
      <point x="41.5427903258193" y="685.3648635961356" type="line"/>
    </contour>
    <contour>
      <point x="458.4572096741807" y="685.3648635961356" type="line"/>
      <point x="278.4572096741807" y="335.36486359613565" type="line"/>
      <point x="221.54279032581928" y="364.63513640386435" type="line"/>
      <point x="401.5427903258193" y="714.6351364038644" type="line"/>
    </contour>
    <contour>
      <point x="218" y="0" type="line"/>
      <point x="282" y="0" type="line"/>
      <point x="282" y="350" type="line"/>
      <point x="218" y="350" type="line"/>
    </contour>
  </outline>
</glyph>
<glyph name="Z" format="2">
  <advance width="500"/>
  <unicode hex="005A"/>
  <outline>
    <contour>
      <point x="50" y="636" type="line"/>
      <point x="450" y="636" type="line"/>
      <point x="450" y="700" type="line"/>
      <point x="50" y="700" type="line"/>
    </contour>
    <contour>
      <point x="457.8482193622867" y="652.2368569647434" type="line"/>
      <point x="97.84821936228671" y="16.23685696474337" type="line"/>
      <point x="42.15178063771329" y="47.76314303525663" type="line"/>
      <point x="402.1517806377133" y="683.7631430352566" type="line"/>
    </contour>
    <contour>
      <point x="50" y="0" type="line"/>
      <point x="450" y="0" type="line"/>
      <point x="450" y="64" type="line"/>
      <point x="50" y="64" type="line"/>
    </contour>
  </outline>
</glyph>
<glyph name="uni005B" format="2">
  <advance width="310"/>
  <unicode hex="005B"/>
  <outline>
    <contour>
      <point x="150" y="80" type="line"/>
      <point x="214" y="80" type="line"/>
      <point x="214" y="620" type="line"/>
      <point x="150" y="620" type="line"/>
    </contour>
    <contour>
      <point x="150" y="620" type="line"/>
      <point x="250" y="620" type="line"/>
      <point x="250" y="684" type="line"/>
      <point x="150" y="684" type="line"/>
    </contour>
    <contour>
      <point x="150" y="80" type="line"/>
      <point x="250" y="80" type="line"/>
      <point x="250" y="144" type="line"/>
      <point x="150" y="144" type="line"/>
    </contour>
  </outline>
</glyph>
<glyph name="uni005C" format="2">
  <advance width="500"/>
  <unicode hex="005C"/>
  <outline>
    <contour>
      <point x="350.0023912956875" y="-11.141968947316068" type="line"/>
      <point x="90.00239129568752" y="688.8580310526839" type="line"/>
      <point x="149.99760870431248" y="711.1419689473161" type="line"/>
      <point x="409.9976087043125" y="11.141968947316068" type="line"/>
    </contour>
  </outline>
</glyph>
<glyph name="uni005D" format="2">
  <advance width="310"/>
  <unicode hex="005D"/>
  <outline>
    <contour>
      <point x="286" y="80" type="line"/>
      <point x="350" y="80" type="line"/>
      <point x="350" y="620" type="line"/>
      <point x="286" y="620" type="line"/>
    </contour>
    <contour>
      <point x="222" y="620" type="line"/>
      <point x="322" y="620" type="line"/>
      <point x="322" y="684" type="line"/>
      <point x="222" y="684" type="line"/>
    </contour>
    <contour>
      <point x="222" y="80" type="line"/>
      <point x="322" y="80" type="line"/>
      <point x="322" y="144" type="line"/>
      <point x="222" y="144" type="line"/>
    </contour>
  </outline>
</glyph>
<glyph name="uni005F" format="2">
  <advance width="500"/>
  <unicode hex="005F"/>
  <outline>
    <contour>
      <point x="90" y="0" type="line"/>
      <point x="410" y="0" type="line"/>
      <point x="410" y="64" type="line"/>
      <point x="90" y="64" type="line"/>
    </contour>
  </outline>
</glyph>
<glyph name="uni0060" format="2">
  <advance width="250"/>
  <unicode hex="0060"/>
  <outline>
    <contour>
      <point x="264.6209847779241" y="548.5017845431448" type="line"/>
      <point x="224.62098477792412" y="458.5017845431448" type="line"/>
      <point x="195.37901522207588" y="471.4982154568552" type="line"/>
      <point x="235.37901522207588" y="561.4982154568552" type="line"/>
    </contour>
  </outline>
</glyph>
<glyph name="a" format="2">
  <advance width="500"/>
  <unicode hex="0061"/>
  <outline>
    <contour>
      <point x="378" y="244" type="curve"/>
      <point x="378" y="378.757479"/>
      <point x="310.8427125" y="488"/>
      <point x="228" y="488" type="curve"/>
      <point x="145.1572875" y="488"/>
      <point x="78" y="378.757479"/>
      <point x="78" y="244" type="curve"/>
      <point x="78" y="109.24252100000001"/>
      <point x="145.1572875" y="0"/>
      <point x="228" y="0" type="curve"/>
      <point x="310.8427125" y="0"/>
      <point x="378" y="109.24252100000001"/>
    </contour>
    <contour>
      <point x="314" y="244" type="curve"/>
      <point x="314" y="144.58874500000002"/>
      <point x="275.4964885" y="64"/>
      <point x="228" y="64" type="curve"/>
      <point x="180.5035115" y="64"/>
      <point x="142" y="144.58874500000002"/>
      <point x="142" y="244" type="curve"/>
      <point x="142" y="343.411255"/>
      <point x="180.5035115" y="424"/>
      <point x="228" y="424" type="curve"/>
      <point x="275.4964885" y="424"/>
      <point x="314" y="343.411255"/>
    </contour>
    <contour>
      <point x="361.92" y="0" type="curve"/>
      <point x="390.08" y="0" type="line"/>
      <point x="399.97694272" y="0"/>
      <point x="408" y="8.023057280000002"/>
      <point x="408" y="17.92" type="curve"/>
      <point x="408" y="537.08" type="line"/>
      <point x="408" y="546.97694272"/>
      <point x="399.97694272" y="555"/>
      <point x="390.08" y="555" type="curve"/>
      <point x="361.92" y="555" type="line"/>
      <point x="352.02305728" y="555"/>
      <point x="344" y="546.97694272"/>
      <point x="344" y="537.08" type="curve"/>
      <point x="344" y="17.92" type="line"/>
      <point x="344" y="8.023057280000002"/>
      <point x="352.02305728" y="0"/>
    </contour>
  </outline>
</glyph>
<glyph name="b" format="2">
  <advance width="500"/>
  <unicode hex="0062"/>
  <outline>
    <contour>
      <point x="77.92" y="0" type="curve"/>
      <point x="106.08" y="0" type="line"/>
      <point x="115.97694272" y="0"/>
      <point x="124" y="8.023057280000002"/>
      <point x="124" y="17.92" type="curve"/>
      <point x="124" y="742.08" type="line"/>
      <point x="124" y="751.97694272"/>
      <point x="115.97694272" y="760"/>
      <point x="106.08" y="760" type="curve"/>
      <point x="77.92" y="760" type="line"/>
      <point x="68.02305728" y="760"/>
      <point x="60" y="751.97694272"/>
      <point x="60" y="742.08" type="curve"/>
      <point x="60" y="17.92" type="line"/>
      <point x="60" y="8.023057280000002"/>
      <point x="68.02305728" y="0"/>
    </contour>
    <contour>
      <point x="430" y="278" type="curve"/>
      <point x="430" y="431.53516049999996"/>
      <point x="349.411255" y="556"/>
      <point x="250" y="556" type="curve"/>
      <point x="150.58874500000002" y="556"/>
      <point x="70" y="431.53516049999996"/>
      <point x="70" y="278" type="curve"/>
      <point x="70" y="124.46483950000001"/>
      <point x="150.58874500000002" y="0"/>
      <point x="250" y="0" type="curve"/>
      <point x="349.411255" y="0"/>
      <point x="430" y="124.46483950000001"/>
    </contour>
    <contour>
      <point x="366" y="278" type="curve"/>
      <point x="366" y="159.8110635"/>
      <point x="314.065031" y="64"/>
      <point x="250" y="64" type="curve"/>
      <point x="185.934969" y="64"/>
      <point x="134" y="159.8110635"/>
      <point x="134" y="278" type="curve"/>
      <point x="134" y="396.1889365"/>
      <point x="185.934969" y="492"/>
      <point x="250" y="492" type="curve"/>
      <point x="314.065031" y="492"/>
      <point x="366" y="396.1889365"/>
    </contour>
  </outline>
</glyph>
<glyph name="d" format="2">
  <advance width="500"/>
  <unicode hex="0064"/>
  <outline>
    <contour>
      <point x="329.92" y="0" type="curve"/>
      <point x="358.08" y="0" type="line"/>
      <point x="367.97694272" y="0"/>
      <point x="376" y="8.023057280000002"/>
      <point x="376" y="17.92" type="curve"/>
      <point x="376" y="742.08" type="line"/>
      <point x="376" y="751.97694272"/>
      <point x="367.97694272" y="760"/>
      <point x="358.08" y="760" type="curve"/>
      <point x="329.92" y="760" type="line"/>
      <point x="320.02305728" y="760"/>
      <point x="312" y="751.97694272"/>
      <point x="312" y="742.08" type="curve"/>
      <point x="312" y="17.92" type="line"/>
      <point x="312" y="8.023057280000002"/>
      <point x="320.02305728" y="0"/>
    </contour>
    <contour>
      <point x="430" y="278" type="curve"/>
      <point x="430" y="431.53516049999996"/>
      <point x="349.411255" y="556"/>
      <point x="250" y="556" type="curve"/>
      <point x="150.58874500000002" y="556"/>
      <point x="70" y="431.53516049999996"/>
      <point x="70" y="278" type="curve"/>
      <point x="70" y="124.46483950000001"/>
      <point x="150.58874500000002" y="0"/>
      <point x="250" y="0" type="curve"/>
      <point x="349.411255" y="0"/>
      <point x="430" y="124.46483950000001"/>
    </contour>
    <contour>
      <point x="366" y="278" type="curve"/>
      <point x="366" y="159.8110635"/>
      <point x="314.065031" y="64"/>
      <point x="250" y="64" type="curve"/>
      <point x="185.934969" y="64"/>
      <point x="134" y="159.8110635"/>
      <point x="134" y="278" type="curve"/>
      <point x="134" y="396.1889365"/>
      <point x="185.934969" y="492"/>
      <point x="250" y="492" type="curve"/>
      <point x="314.065031" y="492"/>
      <point x="366" y="396.1889365"/>
    </contour>
  </outline>
</glyph>
<glyph name="e" format="2">
  <advance width="500"/>
  <unicode hex="0065"/>
  <outline>
    <contour>
      <point x="388.6" y="467.04" type="line"/>
      <point x="336.4" y="556"/>
      <point x="174.4" y="556"/>
      <point x="70" y="397.53999999999996" type="curve"/>
      <point x="70" y="158.46"/>
      <point x="174.4" y="0"/>
      <point x="336.4" y="0" type="curve"/>
      <point x="381.4" y="69.5"/>
      <point x="388.6" y="116.76000000000002"/>
      <point x="388.6" y="139.0" type="curve"/>
      <point x="339.32" y="169.57999999999998" type="line"/>
      <point x="318.4" y="64"/>
      <point x="134" y="189.04"/>
      <point x="134" y="278" type="curve"/>
      <point x="134" y="366.96000000000004"/>
      <point x="318.4" y="492"/>
      <point x="339.32" y="386.42" type="curve"/>
    </contour>
    <contour>
      <point x="107.36" y="246" type="curve"/>
      <point x="386.64" y="246" type="line"/>
      <point x="395.12309375999996" y="246"/>
      <point x="402" y="252.87690624"/>
      <point x="402" y="261.36" type="curve"/>
      <point x="402" y="294.64" type="line"/>
      <point x="402" y="303.12309375999996"/>
      <point x="395.12309375999996" y="310"/>
      <point x="386.64" y="310" type="curve"/>
      <point x="107.36" y="310" type="line"/>
      <point x="98.87690624" y="310"/>
      <point x="92" y="303.12309375999996"/>
      <point x="92" y="294.64" type="curve"/>
      <point x="92" y="261.36" type="line"/>
      <point x="92" y="252.87690624"/>
      <point x="98.87690624" y="246"/>
    </contour>
  </outline>
</glyph>
<glyph name="f" format="2">
  <advance width="500"/>
  <unicode hex="0066"/>
  <outline>
    <contour>
      <point x="232.92000000000002" y="0" type="curve"/>
      <point x="261.08" y="0" type="line"/>
      <point x="270.97694272" y="0"/>
      <point x="279" y="8.023057280000002"/>
      <point x="279" y="17.92" type="curve"/>
      <point x="279" y="742.08" type="line"/>
      <point x="279" y="751.97694272"/>
      <point x="270.97694272" y="760"/>
      <point x="261.08" y="760" type="curve"/>
      <point x="232.92000000000002" y="760" type="line"/>
      <point x="223.02305728000002" y="760"/>
      <point x="215" y="751.97694272"/>
      <point x="215" y="742.08" type="curve"/>
      <point x="215" y="17.92" type="line"/>
      <point x="215" y="8.023057280000002"/>
      <point x="223.02305728000002" y="0"/>
    </contour>
    <contour>
      <point x="215" y="500" type="line"/>
      <point x="215" y="670"/>
      <point x="294" y="770"/>
      <point x="398" y="734" type="curve"/>
      <point x="398" y="670" type="line"/>
      <point x="325" y="687"/>
      <point x="279" y="632"/>
      <point x="279" y="500" type="curve"/>
    </contour>
    <contour>
      <point x="120.36" y="350" type="curve"/>
      <point x="379.64" y="350" type="line"/>
      <point x="388.12309375999996" y="350"/>
      <point x="395" y="356.87690624000004"/>
      <point x="395" y="365.36" type="curve"/>
      <point x="395" y="398.64" type="line"/>
      <point x="395" y="407.12309375999996"/>
      <point x="388.12309375999996" y="414"/>
      <point x="379.64" y="414" type="curve"/>
      <point x="120.36" y="414" type="line"/>
      <point x="111.87690624" y="414"/>
      <point x="105" y="407.12309375999996"/>
      <point x="105" y="398.64" type="curve"/>
      <point x="105" y="365.36" type="line"/>
      <point x="105" y="356.87690624000004"/>
      <point x="111.87690624" y="350"/>
    </contour>
  </outline>
</glyph>
<glyph name="g" format="2">
  <advance width="500"/>
  <unicode hex="0067"/>
  <outline>
    <contour>
      <point x="378" y="260" type="curve"/>
      <point x="378" y="392.54834"/>
      <point x="310.8427125" y="500"/>
      <point x="228" y="500" type="curve"/>
      <point x="145.1572875" y="500"/>
      <point x="78" y="392.54834"/>
      <point x="78" y="260" type="curve"/>
      <point x="78" y="127.45166"/>
      <point x="145.1572875" y="20"/>
      <point x="228" y="20" type="curve"/>
      <point x="310.8427125" y="20"/>
      <point x="378" y="127.45166"/>
    </contour>
    <contour>
      <point x="314" y="260" type="curve"/>
      <point x="314" y="162.797884"/>
      <point x="275.4964885" y="84"/>
      <point x="228" y="84" type="curve"/>
      <point x="180.5035115" y="84"/>
      <point x="142" y="162.797884"/>
      <point x="142" y="260" type="curve"/>
      <point x="142" y="357.202116"/>
      <point x="180.5035115" y="436"/>
      <point x="228" y="436" type="curve"/>
      <point x="275.4964885" y="436"/>
      <point x="314" y="357.202116"/>
    </contour>
    <contour>
      <point x="361.92" y="-210" type="curve"/>
      <point x="390.08" y="-210" type="line"/>
      <point x="399.97694272" y="-210"/>
      <point x="408" y="-201.97694271999998"/>
      <point x="408" y="-192.07999999999998" type="curve"/>
      <point x="408" y="537.08" type="line"/>
      <point x="408" y="546.97694272"/>
      <point x="399.97694272" y="555"/>
      <point x="390.08" y="555" type="curve"/>
      <point x="361.92" y="555" type="line"/>
      <point x="352.02305728" y="555"/>
      <point x="344" y="546.97694272"/>
      <point x="344" y="537.08" type="curve"/>
      <point x="344" y="-192.07999999999998" type="line"/>
      <point x="344" y="-201.97694271999998"/>
      <point x="352.02305728" y="-210"/>
    </contour>
    <contour>
      <point x="408" y="0" type="line"/>
      <point x="408" y="-210"/>
      <point x="324" y="-210"/>
      <point x="230" y="-210" type="curve"/>
      <point x="173" y="-210"/>
      <point x="139" y="-185"/>
      <point x="128" y="-146" type="curve"/>
      <point x="192" y="-146" type="line"/>
      <point x="205" y="-175"/>
      <point x="221" y="-180"/>
      <point x="245" y="-180" type="curve"/>
      <point x="305" y="-180"/>
      <point x="344" y="-138"/>
      <point x="344" y="0" type="curve"/>
    </contour>
  </outline>
</glyph>
<glyph name="i" format="2">
  <advance width="250"/>
  <unicode hex="0069"/>
  <outline>
    <contour>
      <point x="235.92000000000002" y="0" type="curve"/>
      <point x="264.08" y="0" type="line"/>
      <point x="273.97694272" y="0"/>
      <point x="282" y="8.023057280000002"/>
      <point x="282" y="17.92" type="curve"/>
      <point x="282" y="437.08" type="line"/>
      <point x="282" y="446.97694272"/>
      <point x="273.97694272" y="455"/>
      <point x="264.08" y="455" type="curve"/>
      <point x="235.92000000000002" y="455" type="line"/>
      <point x="226.02305728000002" y="455"/>
      <point x="218" y="446.97694272"/>
      <point x="218" y="437.08" type="curve"/>
      <point x="218" y="17.92" type="line"/>
      <point x="218" y="8.023057280000002"/>
      <point x="226.02305728000002" y="0"/>
    </contour>
    <contour>
      <point x="285.2" y="525" type="curve"/>
      <point x="285.2" y="544.4404232"/>
      <point x="269.4404232" y="560.2"/>
      <point x="250" y="560.2" type="curve"/>
      <point x="230.5595768" y="560.2"/>
      <point x="214.8" y="544.4404232"/>
      <point x="214.8" y="525" type="curve"/>
      <point x="214.8" y="505.5595768"/>
      <point x="230.5595768" y="489.8"/>
      <point x="250" y="489.8" type="curve"/>
      <point x="269.4404232" y="489.8"/>
      <point x="285.2" y="505.5595768"/>
    </contour>
  </outline>
</glyph>
<glyph name="j" format="2">
  <advance width="500"/>
  <unicode hex="006A"/>
  <outline>
    <contour>
      <point x="235.92000000000002" y="-190" type="curve"/>
      <point x="264.08" y="-190" type="line"/>
      <point x="273.97694272" y="-190"/>
      <point x="282" y="-181.97694271999998"/>
      <point x="282" y="-172.07999999999998" type="curve"/>
      <point x="282" y="437.08" type="line"/>
      <point x="282" y="446.97694272"/>
      <point x="273.97694272" y="455"/>
      <point x="264.08" y="455" type="curve"/>
      <point x="235.92000000000002" y="455" type="line"/>
      <point x="226.02305728000002" y="455"/>
      <point x="218" y="446.97694272"/>
      <point x="218" y="437.08" type="curve"/>
      <point x="218" y="-172.07999999999998" type="line"/>
      <point x="218" y="-181.97694271999998"/>
      <point x="226.02305728000002" y="-190"/>
    </contour>
    <contour>
      <point x="285.2" y="525" type="curve"/>
      <point x="285.2" y="544.4404232"/>
      <point x="269.4404232" y="560.2"/>
      <point x="250" y="560.2" type="curve"/>
      <point x="230.5595768" y="560.2"/>
      <point x="214.8" y="544.4404232"/>
      <point x="214.8" y="525" type="curve"/>
      <point x="214.8" y="505.5595768"/>
      <point x="230.5595768" y="489.8"/>
      <point x="250" y="489.8" type="curve"/>
      <point x="269.4404232" y="489.8"/>
      <point x="285.2" y="505.5595768"/>
    </contour>
    <contour>
      <point x="282" y="-190" type="line"/>
      <point x="282" y="-210"/>
      <point x="247" y="-210"/>
      <point x="201" y="-210" type="curve"/>
      <point x="177" y="-210" type="line"/>
      <point x="177" y="-185" type="line"/>
      <point x="201" y="-185" type="line"/>
      <point x="212" y="-185"/>
      <point x="218" y="-188"/>
      <point x="218" y="-190" type="curve"/>
    </contour>
  </outline>
</glyph>
<glyph name="k" format="2">
  <advance width="500"/>
  <unicode hex="006B"/>
  <outline>
    <contour>
      <point x="77.92" y="0" type="curve"/>
      <point x="106.08" y="0" type="line"/>
      <point x="115.97694272" y="0"/>
      <point x="124" y="8.023057280000002"/>
      <point x="124" y="17.92" type="curve"/>
      <point x="124" y="742.08" type="line"/>
      <point x="124" y="751.97694272"/>
      <point x="115.97694272" y="760"/>
      <point x="106.08" y="760" type="curve"/>
      <point x="77.92" y="760" type="line"/>
      <point x="68.02305728" y="760"/>
      <point x="60" y="751.97694272"/>
      <point x="60" y="742.08" type="curve"/>
      <point x="60" y="17.92" type="line"/>
      <point x="60" y="8.023057280000002"/>
      <point x="68.02305728" y="0"/>
    </contour>
    <contour>
      <point x="100.07337287168988" y="299.24891795510575" type="line"/>
      <point x="346.0733728716899" y="576.2489179551058" type="line"/>
      <point x="393.9266271283101" y="533.7510820448942" type="line"/>
      <point x="147.92662712831012" y="256.75108204489425" type="line"/>
    </contour>
    <contour>
      <point x="147.53966401848902" y="299.6768129091122" type="line"/>
      <point x="403.539664018489" y="21.676812909112197" type="line"/>
      <point x="356.460335981511" y="-21.676812909112197" type="line"/>
      <point x="100.46033598151098" y="256.3231870908878" type="line"/>
    </contour>
  </outline>
</glyph>
<glyph name="l" format="2">
  <advance width="250"/>
  <unicode hex="006C"/>
  <outline>
    <contour>
      <point x="235.92000000000002" y="0" type="curve"/>
      <point x="264.08" y="0" type="line"/>
      <point x="273.97694272" y="0"/>
      <point x="282" y="8.023057280000002"/>
      <point x="282" y="17.92" type="curve"/>
      <point x="282" y="742.08" type="line"/>
      <point x="282" y="751.97694272"/>
      <point x="273.97694272" y="760"/>
      <point x="264.08" y="760" type="curve"/>
      <point x="235.92000000000002" y="760" type="line"/>
      <point x="226.02305728000002" y="760"/>
      <point x="218" y="751.97694272"/>
      <point x="218" y="742.08" type="curve"/>
      <point x="218" y="17.92" type="line"/>
      <point x="218" y="8.023057280000002"/>
      <point x="226.02305728000002" y="0"/>
    </contour>
  </outline>
</glyph>
<glyph name="m" format="2">
  <advance width="560"/>
  <unicode hex="006D"/>
  <outline>
    <contour>
      <point x="57.92" y="0" type="curve"/>
      <point x="86.08" y="0" type="line"/>
      <point x="95.97694272" y="0"/>
      <point x="104" y="8.023057280000002"/>
      <point x="104" y="17.92" type="curve"/>
      <point x="104" y="537.08" type="line"/>
      <point x="104" y="546.97694272"/>
      <point x="95.97694272" y="555"/>
      <point x="86.08" y="555" type="curve"/>
      <point x="57.92" y="555" type="line"/>
      <point x="48.02305728" y="555"/>
      <point x="40" y="546.97694272"/>
      <point x="40" y="537.08" type="curve"/>
      <point x="40" y="17.92" type="line"/>
      <point x="40" y="8.023057280000002"/>
      <point x="48.02305728" y="0"/>
    </contour>
    <contour>
      <point x="104" y="0" type="line"/>
      <point x="104" y="555" type="line"/>
      <point x="153.64" y="565"/>
      <point x="250" y="460.65"/>
      <point x="250" y="349.65" type="curve"/>
      <point x="250" y="0" type="line"/>
      <point x="186" y="0" type="line"/>
      <point x="186" y="349.65" type="line"/>
      <point x="186" y="519.8"/>
      <point x="217.64" y="491"/>
      <point x="168" y="491" type="curve"/>
      <point x="168" y="0" type="line"/>
    </contour>
    <contour>
      <point x="239" y="0" type="line"/>
      <point x="239" y="555" type="line"/>
      <point x="284.9" y="565"/>
      <point x="374" y="460.65"/>
      <point x="374" y="349.65" type="curve"/>
      <point x="374" y="0" type="line"/>
      <point x="310" y="0" type="line"/>
      <point x="310" y="349.65" type="line"/>
      <point x="310" y="519.8"/>
      <point x="348.9" y="491"/>
      <point x="303" y="491" type="curve"/>
      <point x="303" y="0" type="line"/>
    </contour>
  </outline>
</glyph>
<glyph name="n" format="2">
  <advance width="500"/>
  <unicode hex="006E"/>
  <outline>
    <contour>
      <point x="77.92" y="0" type="curve"/>
      <point x="106.08" y="0" type="line"/>
      <point x="115.97694272" y="0"/>
      <point x="124" y="8.023057280000002"/>
      <point x="124" y="17.92" type="curve"/>
      <point x="124" y="537.08" type="line"/>
      <point x="124" y="546.97694272"/>
      <point x="115.97694272" y="555"/>
      <point x="106.08" y="555" type="curve"/>
      <point x="77.92" y="555" type="line"/>
      <point x="68.02305728" y="555"/>
      <point x="60" y="546.97694272"/>
      <point x="60" y="537.08" type="curve"/>
      <point x="60" y="17.92" type="line"/>
      <point x="60" y="8.023057280000002"/>
      <point x="68.02305728" y="0"/>
    </contour>
    <contour>
      <point x="124" y="0" type="line"/>
      <point x="124" y="555" type="line"/>
      <point x="198.8" y="565"/>
      <point x="344" y="460.65"/>
      <point x="344" y="349.65" type="curve"/>
      <point x="344" y="0" type="line"/>
      <point x="280" y="0" type="line"/>
      <point x="280" y="349.65" type="line"/>
      <point x="280" y="519.8"/>
      <point x="262.8" y="491"/>
      <point x="188" y="491" type="curve"/>
      <point x="188" y="0" type="line"/>
    </contour>
  </outline>
</glyph>
<glyph name="o" format="2">
  <advance width="500"/>
  <unicode hex="006F"/>
  <outline>
    <contour>
      <point x="430" y="278" type="curve"/>
      <point x="430" y="431.53516049999996"/>
      <point x="349.411255" y="556"/>
      <point x="250" y="556" type="curve"/>
      <point x="150.58874500000002" y="556"/>
      <point x="70" y="431.53516049999996"/>
      <point x="70" y="278" type="curve"/>
      <point x="70" y="124.46483950000001"/>
      <point x="150.58874500000002" y="0"/>
      <point x="250" y="0" type="curve"/>
      <point x="349.411255" y="0"/>
      <point x="430" y="124.46483950000001"/>
    </contour>
    <contour>
      <point x="366" y="278" type="curve"/>
      <point x="366" y="159.8110635"/>
      <point x="314.065031" y="64"/>
      <point x="250" y="64" type="curve"/>
      <point x="185.934969" y="64"/>
      <point x="134" y="159.8110635"/>
      <point x="134" y="278" type="curve"/>
      <point x="134" y="396.1889365"/>
      <point x="185.934969" y="492"/>
      <point x="250" y="492" type="curve"/>
      <point x="314.065031" y="492"/>
      <point x="366" y="396.1889365"/>
    </contour>
  </outline>
</glyph>
<glyph name="p" format="2">
  <advance width="500"/>
  <unicode hex="0070"/>
  <outline>
    <contour>
      <point x="77.92" y="-210" type="curve"/>
      <point x="106.08" y="-210" type="line"/>
      <point x="115.97694272" y="-210"/>
      <point x="124" y="-201.97694271999998"/>
      <point x="124" y="-192.07999999999998" type="curve"/>
      <point x="124" y="537.08" type="line"/>
      <point x="124" y="546.97694272"/>
      <point x="115.97694272" y="555"/>
      <point x="106.08" y="555" type="curve"/>
      <point x="77.92" y="555" type="line"/>
      <point x="68.02305728" y="555"/>
      <point x="60" y="546.97694272"/>
      <point x="60" y="537.08" type="curve"/>
      <point x="60" y="-192.07999999999998" type="line"/>
      <point x="60" y="-201.97694271999998"/>
      <point x="68.02305728" y="-210"/>
    </contour>
    <contour>
      <point x="430" y="278" type="curve"/>
      <point x="430" y="431.53516049999996"/>
      <point x="349.411255" y="556"/>
      <point x="250" y="556" type="curve"/>
      <point x="150.58874500000002" y="556"/>
      <point x="70" y="431.53516049999996"/>
      <point x="70" y="278" type="curve"/>
      <point x="70" y="124.46483950000001"/>
      <point x="150.58874500000002" y="0"/>
      <point x="250" y="0" type="curve"/>
      <point x="349.411255" y="0"/>
      <point x="430" y="124.46483950000001"/>
    </contour>
    <contour>
      <point x="366" y="278" type="curve"/>
      <point x="366" y="159.8110635"/>
      <point x="314.065031" y="64"/>
      <point x="250" y="64" type="curve"/>
      <point x="185.934969" y="64"/>
      <point x="134" y="159.8110635"/>
      <point x="134" y="278" type="curve"/>
      <point x="134" y="396.1889365"/>
      <point x="185.934969" y="492"/>
      <point x="250" y="492" type="curve"/>
      <point x="314.065031" y="492"/>
      <point x="366" y="396.1889365"/>
    </contour>
  </outline>
</glyph>
<glyph name="q" format="2">
  <advance width="500"/>
  <unicode hex="0071"/>
  <outline>
    <contour>
      <point x="329.92" y="-210" type="curve"/>
      <point x="358.08" y="-210" type="line"/>
      <point x="367.97694272" y="-210"/>
      <point x="376" y="-201.97694271999998"/>
      <point x="376" y="-192.07999999999998" type="curve"/>
      <point x="376" y="537.08" type="line"/>
      <point x="376" y="546.97694272"/>
      <point x="367.97694272" y="555"/>
      <point x="358.08" y="555" type="curve"/>
      <point x="329.92" y="555" type="line"/>
      <point x="320.02305728" y="555"/>
      <point x="312" y="546.97694272"/>
      <point x="312" y="537.08" type="curve"/>
      <point x="312" y="-192.07999999999998" type="line"/>
      <point x="312" y="-201.97694271999998"/>
      <point x="320.02305728" y="-210"/>
    </contour>
    <contour>
      <point x="430" y="278" type="curve"/>
      <point x="430" y="431.53516049999996"/>
      <point x="349.411255" y="556"/>
      <point x="250" y="556" type="curve"/>
      <point x="150.58874500000002" y="556"/>
      <point x="70" y="431.53516049999996"/>
      <point x="70" y="278" type="curve"/>
      <point x="70" y="124.46483950000001"/>
      <point x="150.58874500000002" y="0"/>
      <point x="250" y="0" type="curve"/>
      <point x="349.411255" y="0"/>
      <point x="430" y="124.46483950000001"/>
    </contour>
    <contour>
      <point x="366" y="278" type="curve"/>
      <point x="366" y="159.8110635"/>
      <point x="314.065031" y="64"/>
      <point x="250" y="64" type="curve"/>
      <point x="185.934969" y="64"/>
      <point x="134" y="159.8110635"/>
      <point x="134" y="278" type="curve"/>
      <point x="134" y="396.1889365"/>
      <point x="185.934969" y="492"/>
      <point x="250" y="492" type="curve"/>
      <point x="314.065031" y="492"/>
      <point x="366" y="396.1889365"/>
    </contour>
  </outline>
</glyph>
<glyph name="r" format="2">
  <advance width="500"/>
  <unicode hex="0072"/>
  <outline>
    <contour>
      <point x="77.92" y="0" type="curve"/>
      <point x="106.08" y="0" type="line"/>
      <point x="115.97694272" y="0"/>
      <point x="124" y="8.023057280000002"/>
      <point x="124" y="17.92" type="curve"/>
      <point x="124" y="537.08" type="line"/>
      <point x="124" y="546.97694272"/>
      <point x="115.97694272" y="555"/>
      <point x="106.08" y="555" type="curve"/>
      <point x="77.92" y="555" type="line"/>
      <point x="68.02305728" y="555"/>
      <point x="60" y="546.97694272"/>
      <point x="60" y="537.08" type="curve"/>
      <point x="60" y="17.92" type="line"/>
      <point x="60" y="8.023057280000002"/>
      <point x="68.02305728" y="0"/>
    </contour>
    <contour>
      <point x="124" y="305" type="line"/>
      <point x="154" y="474"/>
      <point x="270" y="555"/>
      <point x="390" y="472" type="curve"/>
      <point x="390" y="400" type="line"/>
      <point x="284" y="450"/>
      <point x="205" y="417"/>
      <point x="188" y="305" type="curve"/>
    </contour>
  </outline>
</glyph>
<glyph name="s" format="2">
  <advance width="500"/>
  <unicode hex="0073"/>
  <outline>
    <contour>
      <point x="392.6" y="549.1" type="line"/>
      <point x="283.0" y="560.62"/>
      <point x="94.6" y="550.38"/>
      <point x="91.4" y="344.6" type="curve"/>
      <point x="88.2" y="283.55"/>
      <point x="230.2" y="283.12"/>
      <point x="246.7" y="278" type="curve"/>
      <point x="283.0" y="211.4"/>
      <point x="412.44" y="261.35"/>
      <point x="409.88" y="161.45" type="curve"/>
      <point x="407.32" y="3.7"/>
      <point x="210.4" y="-3.34"/>
      <point x="88.2" y="9.46" type="curve"/>
      <point x="95.24" y="63.22" type="line"/>
      <point x="217.0" y="40.18"/>
      <point x="373.4" y="54.9"/>
      <point x="377.88" y="150.35" type="curve"/>
      <point x="380.44" y="250.25"/>
      <point x="266.5" y="244.7"/>
      <point x="236.8" y="279.92" type="curve"/>
      <point x="193.9" y="287.6"/>
      <point x="114.44" y="285.68"/>
      <point x="118.28" y="355.7" type="curve"/>
      <point x="122.12" y="515.82"/>
      <point x="276.4" y="526.7"/>
      <point x="394.52" y="492.78" type="curve"/>
    </contour>
  </outline>
</glyph>
<glyph name="t" format="2">
  <advance width="500"/>
  <unicode hex="0074"/>
  <outline>
    <contour>
      <point x="232.92000000000002" y="0" type="curve"/>
      <point x="261.08" y="0" type="line"/>
      <point x="270.97694272" y="0"/>
      <point x="279" y="8.023057280000002"/>
      <point x="279" y="17.92" type="curve"/>
      <point x="279" y="742.08" type="line"/>
      <point x="279" y="751.97694272"/>
      <point x="270.97694272" y="760"/>
      <point x="261.08" y="760" type="curve"/>
      <point x="232.92000000000002" y="760" type="line"/>
      <point x="223.02305728000002" y="760"/>
      <point x="215" y="751.97694272"/>
      <point x="215" y="742.08" type="curve"/>
      <point x="215" y="17.92" type="line"/>
      <point x="215" y="8.023057280000002"/>
      <point x="223.02305728000002" y="0"/>
    </contour>
    <contour>
      <point x="120.36" y="360" type="curve"/>
      <point x="359.64" y="360" type="line"/>
      <point x="368.12309375999996" y="360"/>
      <point x="375" y="366.87690624000004"/>
      <point x="375" y="375.36" type="curve"/>
      <point x="375" y="408.64" type="line"/>
      <point x="375" y="417.12309375999996"/>
      <point x="368.12309375999996" y="424"/>
      <point x="359.64" y="424" type="curve"/>
      <point x="120.36" y="424" type="line"/>
      <point x="111.87690624" y="424"/>
      <point x="105" y="417.12309375999996"/>
      <point x="105" y="408.64" type="curve"/>
      <point x="105" y="375.36" type="line"/>
      <point x="105" y="366.87690624000004"/>
      <point x="111.87690624" y="360"/>
    </contour>
  </outline>
</glyph>
<glyph name="u" format="2">
  <advance width="500"/>
  <unicode hex="0075"/>
  <outline>
    <contour>
      <point x="77.92" y="190" type="curve"/>
      <point x="106.08" y="190" type="line"/>
      <point x="115.97694272" y="190"/>
      <point x="124" y="198.02305728000002"/>
      <point x="124" y="207.92000000000002" type="curve"/>
      <point x="124" y="537.08" type="line"/>
      <point x="124" y="546.97694272"/>
      <point x="115.97694272" y="555"/>
      <point x="106.08" y="555" type="curve"/>
      <point x="77.92" y="555" type="line"/>
      <point x="68.02305728" y="555"/>
      <point x="60" y="546.97694272"/>
      <point x="60" y="537.08" type="curve"/>
      <point x="60" y="207.92000000000002" type="line"/>
      <point x="60" y="198.02305728000002"/>
      <point x="68.02305728" y="190"/>
    </contour>
    <contour>
      <point x="297.92" y="0" type="curve"/>
      <point x="326.08" y="0" type="line"/>
      <point x="335.97694272" y="0"/>
      <point x="344" y="8.023057280000002"/>
      <point x="344" y="17.92" type="curve"/>
      <point x="344" y="537.08" type="line"/>
      <point x="344" y="546.97694272"/>
      <point x="335.97694272" y="555"/>
      <point x="326.08" y="555" type="curve"/>
      <point x="297.92" y="555" type="line"/>
      <point x="288.02305728" y="555"/>
      <point x="280" y="546.97694272"/>
      <point x="280" y="537.08" type="curve"/>
      <point x="280" y="17.92" type="line"/>
      <point x="280" y="8.023057280000002"/>
      <point x="288.02305728" y="0"/>
    </contour>
    <contour>
      <point x="60" y="190" type="line"/>
      <point x="60" y="67"/>
      <point x="125" y="-4"/>
      <point x="234" y="-4" type="curve"/>
      <point x="320" y="-4"/>
      <point x="344" y="67"/>
      <point x="344" y="190" type="curve"/>
      <point x="280" y="190" type="line"/>
      <point x="280" y="91"/>
      <point x="263" y="54"/>
      <point x="234" y="54" type="curve"/>
      <point x="201" y="54"/>
      <point x="124" y="91"/>
      <point x="124" y="190" type="curve"/>
    </contour>
  </outline>
</glyph>
<glyph name="w" format="2">
  <advance width="560"/>
  <unicode hex="0077"/>
  <outline>
    <contour>
      <point x="76.63118147578939" y="559.8444151809767" type="line"/>
      <point x="161.6311814757894" y="4.844415180976753" type="line"/>
      <point x="98.36881852421061" y="-4.844415180976753" type="line"/>
      <point x="13.36881852421061" y="550.1555848190233" type="line"/>
    </contour>
    <contour>
      <point x="486.6311814757894" y="550.1555848190233" type="line"/>
      <point x="401.6311814757894" y="-4.844415180976753" type="line"/>
      <point x="338.3688185242106" y="4.844415180976753" type="line"/>
      <point x="423.3688185242106" y="559.8444151809767" type="line"/>
    </contour>
    <contour>
      <point x="100.28874589167171" y="11.884501643331319" type="line"/>
      <point x="220.2887458916717" y="311.8845016433313" type="line"/>
      <point x="279.7112541083283" y="288.1154983566687" type="line"/>
      <point x="159.7112541083283" y="-11.884501643331319" type="line"/>
    </contour>
    <contour>
      <point x="340.2887458916717" y="-11.884501643331319" type="line"/>
      <point x="220.2887458916717" y="288.1154983566687" type="line"/>
      <point x="279.7112541083283" y="311.8845016433313" type="line"/>
      <point x="399.7112541083283" y="11.884501643331319" type="line"/>
    </contour>
  </outline>
</glyph>
<glyph name="x" format="2">
  <advance width="500"/>
  <unicode hex="0078"/>
  <outline>
    <contour>
      <point x="96.84676118488508" y="572.4141153631687" type="line"/>
      <point x="456.84676118488505" y="17.414115363168698" type="line"/>
      <point x="403.15323881511495" y="-17.414115363168698" type="line"/>
      <point x="43.153238815114925" y="537.5858846368313" type="line"/>
    </contour>
    <contour>
      <point x="456.84676118488505" y="537.5858846368313" type="line"/>
      <point x="96.84676118488508" y="-17.414115363168698" type="line"/>
      <point x="43.153238815114925" y="17.414115363168698" type="line"/>
      <point x="403.15323881511495" y="572.4141153631687" type="line"/>
    </contour>
  </outline>
</glyph>
<glyph name="y" format="2">
  <advance width="500"/>
  <unicode hex="0079"/>
  <outline>
    <contour>
      <point x="105.51879777399107" y="564.6230443431504" type="line"/>
      <point x="280.5187977739911" y="9.623044343150337" type="line"/>
      <point x="219.48120222600892" y="-9.623044343150337" type="line"/>
      <point x="44.48120222600893" y="545.3769556568496" type="line"/>
    </contour>
    <contour>
      <point x="455.5187977739911" y="545.3769556568496" type="line"/>
      <point x="280.5187977739911" y="-9.623044343150337" type="line"/>
      <point x="219.48120222600892" y="9.623044343150337" type="line"/>
      <point x="394.4812022260089" y="564.6230443431504" type="line"/>
    </contour>
    <contour>
      <point x="218" y="-210" type="line"/>
      <point x="282" y="-210" type="line"/>
      <point x="282" y="-110" type="line"/>
      <point x="218" y="-110" type="line"/>
    </contour>
  </outline>
</glyph>
<glyph name="z" format="2">
  <advance width="500"/>
  <unicode hex="007A"/>
  <outline>
    <contour>
      <point x="70" y="491" type="line"/>
      <point x="430" y="491" type="line"/>
      <point x="430" y="555" type="line"/>
      <point x="70" y="555" type="line"/>
    </contour>
    <contour>
      <point x="436.80896891437146" y="505.52775956700845" type="line"/>
      <point x="116.80896891437145" y="14.527759567008427" type="line"/>
      <point x="63.19103108562855" y="49.47224043299157" type="line"/>
      <point x="383.19103108562854" y="540.4722404329916" type="line"/>
    </contour>
    <contour>
      <point x="70" y="0" type="line"/>
      <point x="430" y="0" type="line"/>
      <point x="430" y="64" type="line"/>
      <point x="70" y="64" type="line"/>
    </contour>
  </outline>
</glyph>
<glyph name="uni00A1" format="2">
  <advance width="500"/>
  <unicode hex="00A1"/>
  <outline>
    <contour>
      <point x="218.0" y="0" type="line"/>
      <point x="282.0" y="0" type="line"/>
      <point x="282.0" y="425" type="line"/>
      <point x="218.0" y="425" type="line"/>
    </contour>
    <contour>
      <point x="282.0" y="520" type="curve" smooth="yes"/>
      <point x="282.0" y="537.673112"/>
      <point x="267.673112" y="552.0"/>
      <point x="250.0" y="552.0" type="curve" smooth="yes"/>
      <point x="232.326888" y="552.0"/>
      <point x="218.0" y="537.673112"/>
      <point x="218.0" y="520" type="curve" smooth="yes"/>
      <point x="218.0" y="502.326888"/>
      <point x="232.326888" y="488.0"/>
      <point x="250.0" y="488.0" type="curve" smooth="yes"/>
      <point x="267.673112" y="488.0"/>
      <point x="282.0" y="502.326888"/>
    </contour>
  </outline>
</glyph>
<glyph name="uni00A9" format="2">
  <advance width="500"/>
  <unicode hex="00A9"/>
  <outline>
    <contour>
      <point x="440.0" y="350" type="curve" smooth="yes"/>
      <point x="440.0" y="493.59403499999996"/>
      <point x="354.9341025" y="610"/>
      <point x="250.0" y="610" type="curve" smooth="yes"/>
      <point x="145.0658975" y="610"/>
      <point x="60.0" y="493.59403499999996"/>
      <point x="60.0" y="350" type="curve" smooth="yes"/>
      <point x="60.0" y="206.405965"/>
      <point x="145.0658975" y="90"/>
      <point x="250.0" y="90" type="curve" smooth="yes"/>
      <point x="354.9341025" y="90"/>
      <point x="440.0" y="206.405965"/>
    </contour>
    <contour>
      <point x="386.0" y="350" type="curve" smooth="yes"/>
      <point x="386.0" y="236.2293415"/>
      <point x="325.110726" y="144"/>
      <point x="250.0" y="144" type="curve" smooth="yes"/>
      <point x="174.889274" y="144"/>
      <point x="114.0" y="236.2293415"/>
      <point x="114.0" y="350" type="curve" smooth="yes"/>
      <point x="114.0" y="463.77065849999997"/>
      <point x="174.889274" y="556"/>
      <point x="250.0" y="556" type="curve" smooth="yes"/>
      <point x="325.110726" y="556"/>
      <point x="386.0" y="463.77065849999997"/>
    </contour>
    <contour>
      <point x="195.0" y="180" type="line"/>
      <point x="259.0" y="180" type="line"/>
      <point x="259.0" y="520" type="line"/>
      <point x="195.0" y="520" type="line"/>
    </contour>
    <contour>
      <point x="240.0" y="180" type="line"/>
      <point x="350.0" y="180" type="line"/>
      <point x="350.0" y="244" type="line"/>
      <point x="240.0" y="244" type="line"/>
    </contour>
    <contour>
      <point x="240.0" y="480" type="line"/>
      <point x="350.0" y="480" type="line"/>
      <point x="350.0" y="544" type="line"/>
      <point x="240.0" y="544" type="line"/>
    </contour>
  </outline>
</glyph>
<glyph name="uni00AE" format="2">
  <advance width="500"/>
  <unicode hex="00AE"/>
  <outline>
    <contour>
      <point x="440.0" y="350" type="curve" smooth="yes"/>
      <point x="440.0" y="493.59403499999996"/>
      <point x="354.9341025" y="610"/>
      <point x="250.0" y="610" type="curve" smooth="yes"/>
      <point x="145.0658975" y="610"/>
      <point x="60.0" y="493.59403499999996"/>
      <point x="60.0" y="350" type="curve" smooth="yes"/>
      <point x="60.0" y="206.405965"/>
      <point x="145.0658975" y="90"/>
      <point x="250.0" y="90" type="curve" smooth="yes"/>
      <point x="354.9341025" y="90"/>
      <point x="440.0" y="206.405965"/>
    </contour>
    <contour>
      <point x="386.0" y="350" type="curve" smooth="yes"/>
      <point x="386.0" y="236.2293415"/>
      <point x="325.110726" y="144"/>
      <point x="250.0" y="144" type="curve" smooth="yes"/>
      <point x="174.889274" y="144"/>
      <point x="114.0" y="236.2293415"/>
      <point x="114.0" y="350" type="curve" smooth="yes"/>
      <point x="114.0" y="463.77065849999997"/>
      <point x="174.889274" y="556"/>
      <point x="250.0" y="556" type="curve" smooth="yes"/>
      <point x="325.110726" y="556"/>
      <point x="386.0" y="463.77065849999997"/>
    </contour>
    <contour>
      <point x="188.0" y="225" type="line"/>
      <point x="252.0" y="225" type="line"/>
      <point x="252.0" y="450" type="line"/>
      <point x="188.0" y="450" type="line"/>
    </contour>
    <contour>
      <point x="188.0" y="410" type="line"/>
      <point x="276.0" y="410" type="line"/>
      <point x="276.0" y="474" type="line"/>
      <point x="188.0" y="474" type="line"/>
    </contour>
    <contour>
      <point x="258.0" y="340" type="line"/>
      <point x="322.0" y="340" type="line"/>
      <point x="322.0" y="435" type="line"/>
      <point x="258.0" y="435" type="line"/>
    </contour>
    <contour>
      <point x="274.1672066151751" y="355.1857983490509" type="line"/>
      <point x="336.1672066151751" y="240.1857983490509" type="line"/>
      <point x="279.8327933848249" y="209.8142016509491" type="line"/>
      <point x="217.83279338482492" y="324.8142016509491" type="line"/>
    </contour>
  </outline>
</glyph>
<glyph name="uni00B0" format="2">
  <advance width="500"/>
  <unicode hex="00B0"/>
  <outline>
    <contour>
      <point x="320.0" y="500" type="curve" smooth="yes"/>
      <point x="320.0" y="538.6599325"/>
      <point x="288.65993249999997" y="570"/>
      <point x="250.0" y="570" type="curve" smooth="yes"/>
      <point x="211.3400675" y="570"/>
      <point x="180.0" y="538.6599325"/>
      <point x="180.0" y="500" type="curve" smooth="yes"/>
      <point x="180.0" y="461.34006750000003"/>
      <point x="211.3400675" y="430"/>
      <point x="250.0" y="430" type="curve" smooth="yes"/>
      <point x="288.65993249999997" y="430"/>
      <point x="320.0" y="461.34006750000003"/>
    </contour>
    <contour>
      <point x="258.0" y="500" type="curve" smooth="yes"/>
      <point x="258.0" y="495.581722"/>
      <point x="254.418278" y="492"/>
      <point x="250.0" y="492" type="curve" smooth="yes"/>
      <point x="245.581722" y="492"/>
      <point x="242.0" y="495.581722"/>
      <point x="242.0" y="500" type="curve" smooth="yes"/>
      <point x="242.0" y="504.418278"/>
      <point x="245.581722" y="508"/>
      <point x="250.0" y="508" type="curve" smooth="yes"/>
      <point x="254.418278" y="508"/>
      <point x="258.0" y="504.418278"/>
    </contour>
  </outline>
</glyph>
<glyph name="uni00B1" format="2">
  <advance width="500"/>
  <unicode hex="00B1"/>
  <outline>
    <contour>
      <point x="100.0" y="410" type="line"/>
      <point x="400.0" y="410" type="line"/>
      <point x="400.0" y="474" type="line"/>
      <point x="100.0" y="474" type="line"/>
    </contour>
    <contour>
      <point x="218.0" y="270" type="line"/>
      <point x="282.0" y="270" type="line"/>
      <point x="282.0" y="550" type="line"/>
      <point x="218.0" y="550" type="line"/>
    </contour>
    <contour>
      <point x="100.0" y="120" type="line"/>
      <point x="400.0" y="120" type="line"/>
      <point x="400.0" y="184" type="line"/>
      <point x="100.0" y="184" type="line"/>
    </contour>
  </outline>
</glyph>
<glyph name="uni00B7" format="2">
  <advance width="500"/>
  <unicode hex="00B7"/>
  <outline>
    <contour>
      <point x="282.0" y="280" type="curve" smooth="yes"/>
      <point x="282.0" y="297.673112"/>
      <point x="267.673112" y="312.0"/>
      <point x="250.0" y="312.0" type="curve" smooth="yes"/>
      <point x="232.326888" y="312.0"/>
      <point x="218.0" y="297.673112"/>
      <point x="218.0" y="280" type="curve" smooth="yes"/>
      <point x="218.0" y="262.326888"/>
      <point x="232.326888" y="248.0"/>
      <point x="250.0" y="248.0" type="curve" smooth="yes"/>
      <point x="267.673112" y="248.0"/>
      <point x="282.0" y="262.326888"/>
    </contour>
  </outline>
</glyph>
<glyph name="uni00C0" format="2">
  <advance width="480"/>
  <unicode hex="00C0"/>
  <outline>
    <contour>
      <point x="291.2502473806809" y="769.0895025521571" type="line"/>
      <point x="215.2502473806809" y="691.0895025521571" type="line"/>
      <point x="188.7497526193191" y="716.9104974478429" type="line"/>
      <point x="264.7497526193191" y="794.9104974478429" type="line"/>
    </contour>
    <component base="A"/>
  </outline>
</glyph>
<glyph name="uni00C1" format="2">
  <advance width="480"/>
  <unicode hex="00C1"/>
  <outline>
    <contour>
      <point x="188.7497526193191" y="716.9104974478429" type="line"/>
      <point x="264.7497526193191" y="794.9104974478429" type="line"/>
      <point x="291.2502473806809" y="769.0895025521571" type="line"/>
      <point x="215.2502473806809" y="691.0895025521571" type="line"/>
    </contour>
    <component base="A"/>
  </outline>
</glyph>
<glyph name="uni00C2" format="2">
  <advance width="480"/>
  <unicode hex="00C2"/>
  <outline>
    <contour>
      <point x="168.012866101939" y="733.1082651654856" type="line"/>
      <point x="226.012866101939" y="800.1082651654856" type="line"/>
      <point x="253.987133898061" y="775.8917348345144" type="line"/>
      <point x="195.987133898061" y="708.8917348345144" type="line"/>
    </contour>
    <contour>
      <point x="253.987133898061" y="800.1082651654856" type="line"/>
      <point x="311.987133898061" y="733.1082651654856" type="line"/>
      <point x="284.012866101939" y="708.8917348345144" type="line"/>
      <point x="226.012866101939" y="775.8917348345144" type="line"/>
    </contour>
    <component base="A"/>
  </outline>
</glyph>
<glyph name="uni00C4" format="2">
  <advance width="480"/>
  <unicode hex="00C4"/>
  <outline>
    <contour>
      <point x="220.5" y="764" type="curve" smooth="yes"/>
      <point x="220.5" y="774.217267875"/>
      <point x="212.217267875" y="782.5"/>
      <point x="202.0" y="782.5" type="curve" smooth="yes"/>
      <point x="191.782732125" y="782.5"/>
      <point x="183.5" y="774.217267875"/>
      <point x="183.5" y="764" type="curve" smooth="yes"/>
      <point x="183.5" y="753.782732125"/>
      <point x="191.782732125" y="745.5"/>
      <point x="202.0" y="745.5" type="curve" smooth="yes"/>
      <point x="212.217267875" y="745.5"/>
      <point x="220.5" y="753.782732125"/>
    </contour>
    <contour>
      <point x="296.5" y="764" type="curve" smooth="yes"/>
      <point x="296.5" y="774.217267875"/>
      <point x="288.217267875" y="782.5"/>
      <point x="278.0" y="782.5" type="curve" smooth="yes"/>
      <point x="267.782732125" y="782.5"/>
      <point x="259.5" y="774.217267875"/>
      <point x="259.5" y="764" type="curve" smooth="yes"/>
      <point x="259.5" y="753.782732125"/>
      <point x="267.782732125" y="745.5"/>
      <point x="278.0" y="745.5" type="curve" smooth="yes"/>
      <point x="288.217267875" y="745.5"/>
      <point x="296.5" y="753.782732125"/>
    </contour>
    <component base="A"/>
  </outline>
</glyph>
<glyph name="uni00C5" format="2">
  <advance width="480"/>
  <unicode hex="00C5"/>
  <outline>
    <contour>
      <point x="282.0" y="764" type="curve" smooth="yes"/>
      <point x="282.0" y="787.1959595"/>
      <point x="263.1959595" y="806"/>
      <point x="240.0" y="806" type="curve" smooth="yes"/>
      <point x="216.80404049999999" y="806"/>
      <point x="198.0" y="787.1959595"/>
      <point x="198.0" y="764" type="curve" smooth="yes"/>
      <point x="198.0" y="740.8040405"/>
      <point x="216.80404049999999" y="722"/>
      <point x="240.0" y="722" type="curve" smooth="yes"/>
      <point x="263.1959595" y="722"/>
      <point x="282.0" y="740.8040405"/>
    </contour>
    <contour>
      <point x="261.0" y="764" type="curve" smooth="yes"/>
      <point x="261.0" y="752.40202025"/>
      <point x="251.59797975" y="743"/>
      <point x="240.0" y="743" type="curve" smooth="yes"/>
      <point x="228.40202025" y="743"/>
      <point x="219.0" y="752.40202025"/>
      <point x="219.0" y="764" type="curve" smooth="yes"/>
      <point x="219.0" y="775.59797975"/>
      <point x="228.40202025" y="785"/>
      <point x="240.0" y="785" type="curve" smooth="yes"/>
      <point x="251.59797975" y="785"/>
      <point x="261.0" y="775.59797975"/>
    </contour>
    <component base="A"/>
  </outline>
</glyph>
<glyph name="uni00C7" format="2">
  <advance width="500"/>
  <unicode hex="00C7"/>
  <outline>
    <contour>
      <point x="268.5" y="-105.0" type="curve" smooth="yes"/>
      <point x="268.5" y="-94.782732125"/>
      <point x="260.217267875" y="-86.5"/>
      <point x="250.0" y="-86.5" type="curve" smooth="yes"/>
      <point x="239.782732125" y="-86.5"/>
      <point x="231.5" y="-94.782732125"/>
      <point x="231.5" y="-105.0" type="curve" smooth="yes"/>
      <point x="231.5" y="-115.217267875"/>
      <point x="239.782732125" y="-123.5"/>
      <point x="250.0" y="-123.5" type="curve" smooth="yes"/>
      <point x="260.217267875" y="-123.5"/>
      <point x="268.5" y="-115.217267875"/>
    </contour>
    <contour>
      <point x="268.2321428561608" y="-15.136712749447025" type="line"/>
      <point x="236.23214285616083" y="-201.136712749447" type="line"/>
      <point x="199.76785714383917" y="-194.863287250553" type="line"/>
      <point x="231.76785714383917" y="-8.863287250552975" type="line"/>
    </contour>
    <component base="C"/>
  </outline>
</glyph>
<glyph name="uni00CD" format="2">
  <advance width="250"/>
  <unicode hex="00CD"/>
  <outline>
    <contour>
      <point x="73.7497526193191" y="716.9104974478429" type="line"/>
      <point x="149.7497526193191" y="794.9104974478429" type="line"/>
      <point x="176.2502473806809" y="769.0895025521571" type="line"/>
      <point x="100.2502473806809" y="691.0895025521571" type="line"/>
    </contour>
    <component base="I"/>
  </outline>
</glyph>
<glyph name="uni00CE" format="2">
  <advance width="250"/>
  <unicode hex="00CE"/>
  <outline>
    <contour>
      <point x="53.012866101939" y="733.1082651654856" type="line"/>
      <point x="111.012866101939" y="800.1082651654856" type="line"/>
      <point x="138.987133898061" y="775.8917348345144" type="line"/>
      <point x="80.987133898061" y="708.8917348345144" type="line"/>
    </contour>
    <contour>
      <point x="138.987133898061" y="800.1082651654856" type="line"/>
      <point x="196.987133898061" y="733.1082651654856" type="line"/>
      <point x="169.012866101939" y="708.8917348345144" type="line"/>
      <point x="111.012866101939" y="775.8917348345144" type="line"/>
    </contour>
    <component base="I"/>
  </outline>
</glyph>
<glyph name="uni00D4" format="2">
  <advance width="500"/>
  <unicode hex="00D4"/>
  <outline>
    <contour>
      <point x="178.012866101939" y="733.1082651654856" type="line"/>
      <point x="236.012866101939" y="800.1082651654856" type="line"/>
      <point x="263.987133898061" y="775.8917348345144" type="line"/>
      <point x="205.987133898061" y="708.8917348345144" type="line"/>
    </contour>
    <contour>
      <point x="263.987133898061" y="800.1082651654856" type="line"/>
      <point x="321.987133898061" y="733.1082651654856" type="line"/>
      <point x="294.012866101939" y="708.8917348345144" type="line"/>
      <point x="236.012866101939" y="775.8917348345144" type="line"/>
    </contour>
    <component base="O"/>
  </outline>
</glyph>
<glyph name="uni00D5" format="2">
  <advance width="500"/>
  <unicode hex="00D5"/>
  <outline>
    <contour>
      <point x="181.39094662927843" y="771.1557905296022" type="line"/>
      <point x="221.39094662927843" y="799.1557905296022" type="line"/>
      <point x="242.60905337072157" y="768.8442094703978" type="line"/>
      <point x="202.60905337072157" y="740.8442094703978" type="line"/>
    </contour>
    <contour>
      <point x="242.60905337072157" y="799.1557905296022" type="line"/>
      <point x="282.6090533707216" y="771.1557905296022" type="line"/>
      <point x="261.3909466292784" y="740.8442094703978" type="line"/>
      <point x="221.39094662927843" y="768.8442094703978" type="line"/>
    </contour>
    <contour>
      <point x="261.0258177960778" y="770.8935329910373" type="line"/>
      <point x="299.0258177960778" y="798.8935329910373" type="line"/>
      <point x="320.9741822039222" y="769.1064670089627" type="line"/>
      <point x="282.9741822039222" y="741.1064670089627" type="line"/>
    </contour>
    <component base="O"/>
  </outline>
</glyph>
<glyph name="uni00D7" format="2">
  <advance width="500"/>
  <unicode hex="00D7"/>
  <outline>
    <contour>
      <point x="97.37258300203048" y="232.62741699796953" type="line"/>
      <point x="357.37258300203047" y="492.62741699796953" type="line"/>
      <point x="402.62741699796953" y="447.37258300203047" type="line"/>
      <point x="142.62741699796953" y="187.37258300203047" type="line"/>
    </contour>
    <contour>
      <point x="357.37258300203047" y="187.37258300203047" type="line"/>
      <point x="97.37258300203048" y="447.37258300203047" type="line"/>
      <point x="142.62741699796953" y="492.62741699796953" type="line"/>
      <point x="402.62741699796953" y="232.62741699796953" type="line"/>
    </contour>
  </outline>
</glyph>
<glyph name="uni00DC" format="2">
  <advance width="500"/>
  <unicode hex="00DC"/>
  <outline>
    <contour>
      <point x="230.5" y="764" type="curve" smooth="yes"/>
      <point x="230.5" y="774.217267875"/>
      <point x="222.217267875" y="782.5"/>
      <point x="212.0" y="782.5" type="curve" smooth="yes"/>
      <point x="201.782732125" y="782.5"/>
      <point x="193.5" y="774.217267875"/>
      <point x="193.5" y="764" type="curve" smooth="yes"/>
      <point x="193.5" y="753.782732125"/>
      <point x="201.782732125" y="745.5"/>
      <point x="212.0" y="745.5" type="curve" smooth="yes"/>
      <point x="222.217267875" y="745.5"/>
      <point x="230.5" y="753.782732125"/>
    </contour>
    <contour>
      <point x="306.5" y="764" type="curve" smooth="yes"/>
      <point x="306.5" y="774.217267875"/>
      <point x="298.217267875" y="782.5"/>
      <point x="288.0" y="782.5" type="curve" smooth="yes"/>
      <point x="277.782732125" y="782.5"/>
      <point x="269.5" y="774.217267875"/>
      <point x="269.5" y="764" type="curve" smooth="yes"/>
      <point x="269.5" y="753.782732125"/>
      <point x="277.782732125" y="745.5"/>
      <point x="288.0" y="745.5" type="curve" smooth="yes"/>
      <point x="298.217267875" y="745.5"/>
      <point x="306.5" y="753.782732125"/>
    </contour>
    <component base="U"/>
  </outline>
</glyph>
<glyph name="uni00E1" format="2">
  <advance width="440"/>
  <unicode hex="00E1"/>
  <outline>
    <contour>
      <point x="168.7497526193191" y="567.9104974478429" type="line"/>
      <point x="244.7497526193191" y="645.9104974478429" type="line"/>
      <point x="271.2502473806809" y="620.0895025521571" type="line"/>
      <point x="195.2502473806809" y="542.0895025521571" type="line"/>
    </contour>
    <component base="a"/>
  </outline>
</glyph>
<glyph name="uni00E2" format="2">
  <advance width="440"/>
  <unicode hex="00E2"/>
  <outline>
    <contour>
      <point x="148.012866101939" y="584.1082651654856" type="line"/>
      <point x="206.012866101939" y="651.1082651654856" type="line"/>
      <point x="233.987133898061" y="626.8917348345144" type="line"/>
      <point x="175.987133898061" y="559.8917348345144" type="line"/>
    </contour>
    <contour>
      <point x="233.987133898061" y="651.1082651654856" type="line"/>
      <point x="291.987133898061" y="584.1082651654856" type="line"/>
      <point x="264.012866101939" y="559.8917348345144" type="line"/>
      <point x="206.012866101939" y="626.8917348345144" type="line"/>
    </contour>
    <component base="a"/>
  </outline>
</glyph>
<glyph name="uni00E4" format="2">
  <advance width="440"/>
  <unicode hex="00E4"/>
  <outline>
    <contour>
      <point x="200.5" y="615" type="curve" smooth="yes"/>
      <point x="200.5" y="625.217267875"/>
      <point x="192.217267875" y="633.5"/>
      <point x="182.0" y="633.5" type="curve" smooth="yes"/>
      <point x="171.782732125" y="633.5"/>
      <point x="163.5" y="625.217267875"/>
      <point x="163.5" y="615" type="curve" smooth="yes"/>
      <point x="163.5" y="604.782732125"/>
      <point x="171.782732125" y="596.5"/>
      <point x="182.0" y="596.5" type="curve" smooth="yes"/>
      <point x="192.217267875" y="596.5"/>
      <point x="200.5" y="604.782732125"/>
    </contour>
    <contour>
      <point x="276.5" y="615" type="curve" smooth="yes"/>
      <point x="276.5" y="625.217267875"/>
      <point x="268.217267875" y="633.5"/>
      <point x="258.0" y="633.5" type="curve" smooth="yes"/>
      <point x="247.782732125" y="633.5"/>
      <point x="239.5" y="625.217267875"/>
      <point x="239.5" y="615" type="curve" smooth="yes"/>
      <point x="239.5" y="604.782732125"/>
      <point x="247.782732125" y="596.5"/>
      <point x="258.0" y="596.5" type="curve" smooth="yes"/>
      <point x="268.217267875" y="596.5"/>
      <point x="276.5" y="604.782732125"/>
    </contour>
    <component base="a"/>
  </outline>
</glyph>
<glyph name="uni00E8" format="2">
  <advance width="500"/>
  <unicode hex="00E8"/>
  <outline>
    <contour>
      <point x="301.2502473806809" y="620.0895025521571" type="line"/>
      <point x="225.2502473806809" y="542.0895025521571" type="line"/>
      <point x="198.7497526193191" y="567.9104974478429" type="line"/>
      <point x="274.7497526193191" y="645.9104974478429" type="line"/>
    </contour>
    <component base="e"/>
  </outline>
</glyph>
<glyph name="uni00EC" format="2">
  <advance width="250"/>
  <unicode hex="00EC"/>
  <outline>
    <contour>
      <point x="176.2502473806809" y="620.0895025521571" type="line"/>
      <point x="100.2502473806809" y="542.0895025521571" type="line"/>
      <point x="73.7497526193191" y="567.9104974478429" type="line"/>
      <point x="149.7497526193191" y="645.9104974478429" type="line"/>
    </contour>
    <component base="i"/>
  </outline>
</glyph>
<glyph name="uni00EE" format="2">
  <advance width="250"/>
  <unicode hex="00EE"/>
  <outline>
    <contour>
      <point x="53.012866101939" y="584.1082651654856" type="line"/>
      <point x="111.012866101939" y="651.1082651654856" type="line"/>
      <point x="138.987133898061" y="626.8917348345144" type="line"/>
      <point x="80.987133898061" y="559.8917348345144" type="line"/>
    </contour>
    <contour>
      <point x="138.987133898061" y="651.1082651654856" type="line"/>
      <point x="196.987133898061" y="584.1082651654856" type="line"/>
      <point x="169.012866101939" y="559.8917348345144" type="line"/>
      <point x="111.012866101939" y="626.8917348345144" type="line"/>
    </contour>
    <component base="i"/>
  </outline>
</glyph>
<glyph name="uni00EF" format="2">
  <advance width="250"/>
  <unicode hex="00EF"/>
  <outline>
    <contour>
      <point x="105.5" y="615" type="curve" smooth="yes"/>
      <point x="105.5" y="625.217267875"/>
      <point x="97.217267875" y="633.5"/>
      <point x="87.0" y="633.5" type="curve" smooth="yes"/>
      <point x="76.782732125" y="633.5"/>
      <point x="68.5" y="625.217267875"/>
      <point x="68.5" y="615" type="curve" smooth="yes"/>
      <point x="68.5" y="604.782732125"/>
      <point x="76.782732125" y="596.5"/>
      <point x="87.0" y="596.5" type="curve" smooth="yes"/>
      <point x="97.217267875" y="596.5"/>
      <point x="105.5" y="604.782732125"/>
    </contour>
    <contour>
      <point x="181.5" y="615" type="curve" smooth="yes"/>
      <point x="181.5" y="625.217267875"/>
      <point x="173.217267875" y="633.5"/>
      <point x="163.0" y="633.5" type="curve" smooth="yes"/>
      <point x="152.782732125" y="633.5"/>
      <point x="144.5" y="625.217267875"/>
      <point x="144.5" y="615" type="curve" smooth="yes"/>
      <point x="144.5" y="604.782732125"/>
      <point x="152.782732125" y="596.5"/>
      <point x="163.0" y="596.5" type="curve" smooth="yes"/>
      <point x="173.217267875" y="596.5"/>
      <point x="181.5" y="604.782732125"/>
    </contour>
    <component base="i"/>
  </outline>
</glyph>
<glyph name="uni00F0" format="2">
  <advance width="500"/>
  <unicode hex="00F0"/>
  <outline>
    <contour>
      <point x="118.90417805545418" y="107.11930586008758" type="line"/>
      <point x="348.90417805545417" y="627.1193058600876" type="line"/>
      <point x="381.09582194454583" y="612.8806941399124" type="line"/>
      <point x="151.09582194454583" y="92.88069413991242" type="line"/>
    </contour>
    <component base="d"/>
  </outline>
</glyph>
<glyph name="uni00F1" format="2">
  <advance width="500"/>
  <unicode hex="00F1"/>
  <outline>
    <contour>
      <point x="181.39094662927843" y="622.1557905296022" type="line"/>
      <point x="221.39094662927843" y="650.1557905296022" type="line"/>
      <point x="242.60905337072157" y="619.8442094703978" type="line"/>
      <point x="202.60905337072157" y="591.8442094703978" type="line"/>
    </contour>
    <contour>
      <point x="242.60905337072157" y="650.1557905296022" type="line"/>
      <point x="282.6090533707216" y="622.1557905296022" type="line"/>
      <point x="261.3909466292784" y="591.8442094703978" type="line"/>
      <point x="221.39094662927843" y="619.8442094703978" type="line"/>
    </contour>
    <contour>
      <point x="261.0258177960778" y="621.8935329910373" type="line"/>
      <point x="299.0258177960778" y="649.8935329910373" type="line"/>
      <point x="320.9741822039222" y="620.1064670089627" type="line"/>
      <point x="282.9741822039222" y="592.1064670089627" type="line"/>
    </contour>
    <component base="n"/>
  </outline>
</glyph>
<glyph name="uni00F7" format="2">
  <advance width="500"/>
  <unicode hex="00F7"/>
  <outline>
    <contour>
      <point x="100.0" y="320" type="line"/>
      <point x="400.0" y="320" type="line"/>
      <point x="400.0" y="384" type="line"/>
      <point x="100.0" y="384" type="line"/>
    </contour>
    <contour>
      <point x="282.0" y="500" type="curve" smooth="yes"/>
      <point x="282.0" y="517.673112"/>
      <point x="267.673112" y="532.0"/>
      <point x="250.0" y="532.0" type="curve" smooth="yes"/>
      <point x="232.326888" y="532.0"/>
      <point x="218.0" y="517.673112"/>
      <point x="218.0" y="500" type="curve" smooth="yes"/>
      <point x="218.0" y="482.326888"/>
      <point x="232.326888" y="468.0"/>
      <point x="250.0" y="468.0" type="curve" smooth="yes"/>
      <point x="267.673112" y="468.0"/>
      <point x="282.0" y="482.326888"/>
    </contour>
    <contour>
      <point x="282.0" y="140" type="curve" smooth="yes"/>
      <point x="282.0" y="157.673112"/>
      <point x="267.673112" y="172.0"/>
      <point x="250.0" y="172.0" type="curve" smooth="yes"/>
      <point x="232.326888" y="172.0"/>
      <point x="218.0" y="157.673112"/>
      <point x="218.0" y="140" type="curve" smooth="yes"/>
      <point x="218.0" y="122.326888"/>
      <point x="232.326888" y="108.0"/>
      <point x="250.0" y="108.0" type="curve" smooth="yes"/>
      <point x="267.673112" y="108.0"/>
      <point x="282.0" y="122.326888"/>
    </contour>
  </outline>
</glyph>
<glyph name="uni0104" format="2">
  <advance width="480"/>
  <unicode hex="0104"/>
  <outline>
    <contour>
      <point x="269.99795828168067" y="14.280595483210536" type="line"/>
      <point x="313.99795828168067" y="-170.71940451678947" type="line"/>
      <point x="278.00204171831933" y="-179.28059548321053" type="line"/>
      <point x="234.00204171831933" y="5.7194045167894645" type="line"/>
    </contour>
    <component base="A"/>
  </outline>
</glyph>
<glyph name="uni0105" format="2">
  <advance width="440"/>
  <unicode hex="0105"/>
  <outline>
    <contour>
      <point x="249.99795828168067" y="14.280595483210536" type="line"/>
      <point x="293.99795828168067" y="-170.71940451678947" type="line"/>
      <point x="258.00204171831933" y="-179.28059548321053" type="line"/>
      <point x="214.00204171831933" y="5.7194045167894645" type="line"/>
    </contour>
    <component base="a"/>
  </outline>
</glyph>
<glyph name="uni010A" format="2">
  <advance width="500"/>
  <unicode hex="010A"/>
  <outline>
    <contour>
      <point x="268.5" y="764" type="curve" smooth="yes"/>
      <point x="268.5" y="774.217267875"/>
      <point x="260.217267875" y="782.5"/>
      <point x="250.0" y="782.5" type="curve" smooth="yes"/>
      <point x="239.782732125" y="782.5"/>
      <point x="231.5" y="774.217267875"/>
      <point x="231.5" y="764" type="curve" smooth="yes"/>
      <point x="231.5" y="753.782732125"/>
      <point x="239.782732125" y="745.5"/>
      <point x="250.0" y="745.5" type="curve" smooth="yes"/>
      <point x="260.217267875" y="745.5"/>
      <point x="268.5" y="753.782732125"/>
    </contour>
    <component base="C"/>
  </outline>
</glyph>
<glyph name="uni0111" format="2">
  <advance width="500"/>
  <unicode hex="0111"/>
  <outline>
    <contour>
      <point x="118.90417805545418" y="107.11930586008758" type="line"/>
      <point x="348.90417805545417" y="627.1193058600876" type="line"/>
      <point x="381.09582194454583" y="612.8806941399124" type="line"/>
      <point x="151.09582194454583" y="92.88069413991242" type="line"/>
    </contour>
    <component base="d"/>
  </outline>
</glyph>
<glyph name="uni0119" format="2">
  <advance width="500"/>
  <unicode hex="0119"/>
  <outline>
    <contour>
      <point x="279.99795828168067" y="14.280595483210536" type="line"/>
      <point x="323.99795828168067" y="-170.71940451678947" type="line"/>
      <point x="288.00204171831933" y="-179.28059548321053" type="line"/>
      <point x="244.00204171831933" y="5.7194045167894645" type="line"/>
    </contour>
    <component base="e"/>
  </outline>
</glyph>
<glyph name="uni011D" format="2">
  <advance width="500"/>
  <unicode hex="011D"/>
  <outline>
    <contour>
      <point x="178.012866101939" y="584.1082651654856" type="line"/>
      <point x="236.012866101939" y="651.1082651654856" type="line"/>
      <point x="263.987133898061" y="626.8917348345144" type="line"/>
      <point x="205.987133898061" y="559.8917348345144" type="line"/>
    </contour>
    <contour>
      <point x="263.987133898061" y="651.1082651654856" type="line"/>
      <point x="321.987133898061" y="584.1082651654856" type="line"/>
      <point x="294.012866101939" y="559.8917348345144" type="line"/>
      <point x="236.012866101939" y="626.8917348345144" type="line"/>
    </contour>
    <component base="g"/>
  </outline>
</glyph>
<glyph name="uni012B" format="2">
  <advance width="250"/>
  <unicode hex="012B"/>
  <outline>
    <contour>
      <point x="57.0" y="597" type="line"/>
      <point x="193.0" y="597" type="line"/>
      <point x="193.0" y="634" type="line"/>
      <point x="57.0" y="634" type="line"/>
    </contour>
    <component base="i"/>
  </outline>
</glyph>
<glyph name="uni012E" format="2">
  <advance width="250"/>
  <unicode hex="012E"/>
  <outline>
    <contour>
      <point x="154.99795828168067" y="14.280595483210536" type="line"/>
      <point x="198.99795828168067" y="-170.71940451678947" type="line"/>
      <point x="163.00204171831933" y="-179.28059548321053" type="line"/>
      <point x="119.00204171831933" y="5.7194045167894645" type="line"/>
    </contour>
    <component base="I"/>
  </outline>
</glyph>
<glyph name="uni0130" format="2">
  <advance width="250"/>
  <unicode hex="0130"/>
  <outline>
    <contour>
      <point x="143.5" y="764" type="curve" smooth="yes"/>
      <point x="143.5" y="774.217267875"/>
      <point x="135.217267875" y="782.5"/>
      <point x="125.0" y="782.5" type="curve" smooth="yes"/>
      <point x="114.782732125" y="782.5"/>
      <point x="106.5" y="774.217267875"/>
      <point x="106.5" y="764" type="curve" smooth="yes"/>
      <point x="106.5" y="753.782732125"/>
      <point x="114.782732125" y="745.5"/>
      <point x="125.0" y="745.5" type="curve" smooth="yes"/>
      <point x="135.217267875" y="745.5"/>
      <point x="143.5" y="753.782732125"/>
    </contour>
    <component base="I"/>
  </outline>
</glyph>
<glyph name="uni013A" format="2">
  <advance width="250"/>
  <unicode hex="013A"/>
  <outline>
    <contour>
      <point x="73.7497526193191" y="567.9104974478429" type="line"/>
      <point x="149.7497526193191" y="645.9104974478429" type="line"/>
      <point x="176.2502473806809" y="620.0895025521571" type="line"/>
      <point x="100.2502473806809" y="542.0895025521571" type="line"/>
    </contour>
    <component base="l"/>
  </outline>
</glyph>
<glyph name="uni013C" format="2">
  <advance width="250"/>
  <unicode hex="013C"/>
  <outline>
    <contour>
      <point x="143.5" y="-105.0" type="curve" smooth="yes"/>
      <point x="143.5" y="-94.782732125"/>
      <point x="135.217267875" y="-86.5"/>
      <point x="125.0" y="-86.5" type="curve" smooth="yes"/>
      <point x="114.782732125" y="-86.5"/>
      <point x="106.5" y="-94.782732125"/>
      <point x="106.5" y="-105.0" type="curve" smooth="yes"/>
      <point x="106.5" y="-115.217267875"/>
      <point x="114.782732125" y="-123.5"/>
      <point x="125.0" y="-123.5" type="curve" smooth="yes"/>
      <point x="135.217267875" y="-123.5"/>
      <point x="143.5" y="-115.217267875"/>
    </contour>
    <contour>
      <point x="143.23214285616083" y="-15.136712749447025" type="line"/>
      <point x="111.23214285616083" y="-201.136712749447" type="line"/>
      <point x="74.76785714383917" y="-194.863287250553" type="line"/>
      <point x="106.76785714383917" y="-8.863287250552975" type="line"/>
    </contour>
    <component base="l"/>
  </outline>
</glyph>
<glyph name="uni013E" format="2">
  <advance width="250"/>
  <unicode hex="013E"/>
  <outline>
    <contour>
      <point x="80.987133898061" y="651.1082651654856" type="line"/>
      <point x="138.987133898061" y="584.1082651654856" type="line"/>
      <point x="111.012866101939" y="559.8917348345144" type="line"/>
      <point x="53.012866101939" y="626.8917348345144" type="line"/>
    </contour>
    <contour>
      <point x="111.012866101939" y="584.1082651654856" type="line"/>
      <point x="169.012866101939" y="651.1082651654856" type="line"/>
      <point x="196.987133898061" y="626.8917348345144" type="line"/>
      <point x="138.987133898061" y="559.8917348345144" type="line"/>
    </contour>
    <component base="l"/>
  </outline>
</glyph>
<glyph name="uni013F" format="2">
  <advance width="500"/>
  <unicode hex="013F"/>
  <outline>
    <contour>
      <point x="384.2" y="266.4" type="curve" smooth="yes"/>
      <point x="384.2" y="277.0038672"/>
      <point x="375.6038672" y="285.59999999999997"/>
      <point x="365.0" y="285.59999999999997" type="curve" smooth="yes"/>
      <point x="354.3961328" y="285.59999999999997"/>
      <point x="345.8" y="277.0038672"/>
      <point x="345.8" y="266.4" type="curve" smooth="yes"/>
      <point x="345.8" y="255.79613279999998"/>
      <point x="354.3961328" y="247.2"/>
      <point x="365.0" y="247.2" type="curve" smooth="yes"/>
      <point x="375.6038672" y="247.2"/>
      <point x="384.2" y="255.79613279999998"/>
    </contour>
    <component base="L"/>
  </outline>
</glyph>
<glyph name="uni0140" format="2">
  <advance width="250"/>
  <unicode hex="0140"/>
  <outline>
    <contour>
      <point x="201.7" y="266.4" type="curve" smooth="yes"/>
      <point x="201.7" y="277.0038672"/>
      <point x="193.1038672" y="285.59999999999997"/>
      <point x="182.5" y="285.59999999999997" type="curve" smooth="yes"/>
      <point x="171.8961328" y="285.59999999999997"/>
      <point x="163.3" y="277.0038672"/>
      <point x="163.3" y="266.4" type="curve" smooth="yes"/>
      <point x="163.3" y="255.79613279999998"/>
      <point x="171.8961328" y="247.2"/>
      <point x="182.5" y="247.2" type="curve" smooth="yes"/>
      <point x="193.1038672" y="247.2"/>
      <point x="201.7" y="255.79613279999998"/>
    </contour>
    <component base="l"/>
  </outline>
</glyph>
<glyph name="uni0142" format="2">
  <advance width="250"/>
  <unicode hex="0142"/>
  <outline>
    <contour>
      <point x="50.31522869170304" y="103.80047827010414" type="line"/>
      <point x="165.31522869170306" y="623.8004782701041" type="line"/>
      <point x="199.68477130829694" y="616.1995217298959" type="line"/>
      <point x="84.68477130829696" y="96.19952172989586" type="line"/>
    </contour>
    <component base="l"/>
  </outline>
</glyph>
<glyph name="uni0144" format="2">
  <advance width="500"/>
  <unicode hex="0144"/>
  <outline>
    <contour>
      <point x="198.7497526193191" y="567.9104974478429" type="line"/>
      <point x="274.7497526193191" y="645.9104974478429" type="line"/>
      <point x="301.2502473806809" y="620.0895025521571" type="line"/>
      <point x="225.2502473806809" y="542.0895025521571" type="line"/>
    </contour>
    <component base="n"/>
  </outline>
</glyph>
<glyph name="uni0149" format="2">
  <advance width="500"/>
  <unicode hex="0149"/>
  <outline>
    <contour>
      <point x="142.4972987534078" y="562.8555992876616" type="line"/>
      <point x="102.49729875340779" y="632.8555992876616" type="line"/>
      <point x="127.50270124659221" y="647.1444007123384" type="line"/>
      <point x="167.5027012465922" y="577.1444007123384" type="line"/>
    </contour>
    <component base="n"/>
  </outline>
</glyph>
<glyph name="uni0169" format="2">
  <advance width="500"/>
  <unicode hex="0169"/>
  <outline>
    <contour>
      <point x="188.0" y="605" type="line"/>
      <point x="212.0" y="631" type="line"/>
      <point x="236.0" y="631" type="line"/>
      <point x="260.0" y="605" type="line"/>
      <point x="284.0" y="605" type="line"/>
      <point x="312.0" y="631" type="line"/>
      <point x="312.0" y="609.54" type="line"/>
      <point x="284.0" y="583.54" type="line"/>
      <point x="260.0" y="583.54" type="line"/>
      <point x="236.0" y="609.54" type="line"/>
      <point x="212.0" y="609.54" type="line"/>
      <point x="188.0" y="583.54" type="line"/>
    </contour>
    <component base="u"/>
  </outline>
</glyph>
<glyph name="uni016A" format="2">
  <advance width="500"/>
  <unicode hex="016A"/>
  <outline>
    <contour>
      <point x="182.0" y="746" type="line"/>
      <point x="318.0" y="746" type="line"/>
      <point x="318.0" y="783" type="line"/>
      <point x="182.0" y="783" type="line"/>
    </contour>
    <component base="U"/>
  </outline>
</glyph>
<glyph name="uni016B" format="2">
  <advance width="500"/>
  <unicode hex="016B"/>
  <outline>
    <contour>
      <point x="182.0" y="597" type="line"/>
      <point x="318.0" y="597" type="line"/>
      <point x="318.0" y="634" type="line"/>
      <point x="182.0" y="634" type="line"/>
    </contour>
    <component base="u"/>
  </outline>
</glyph>
<glyph name="uni016E" format="2">
  <advance width="500"/>
  <unicode hex="016E"/>
  <outline>
    <contour>
      <point x="292.0" y="764" type="curve" smooth="yes"/>
      <point x="292.0" y="787.1959595"/>
      <point x="273.1959595" y="806"/>
      <point x="250.0" y="806" type="curve" smooth="yes"/>
      <point x="226.80404049999999" y="806"/>
      <point x="208.0" y="787.1959595"/>
      <point x="208.0" y="764" type="curve" smooth="yes"/>
      <point x="208.0" y="740.8040405"/>
      <point x="226.80404049999999" y="722"/>
      <point x="250.0" y="722" type="curve" smooth="yes"/>
      <point x="273.1959595" y="722"/>
      <point x="292.0" y="740.8040405"/>
    </contour>
    <contour>
      <point x="271.0" y="764" type="curve" smooth="yes"/>
      <point x="271.0" y="752.40202025"/>
      <point x="261.59797975" y="743"/>
      <point x="250.0" y="743" type="curve" smooth="yes"/>
      <point x="238.40202025" y="743"/>
      <point x="229.0" y="752.40202025"/>
      <point x="229.0" y="764" type="curve" smooth="yes"/>
      <point x="229.0" y="775.59797975"/>
      <point x="238.40202025" y="785"/>
      <point x="250.0" y="785" type="curve" smooth="yes"/>
      <point x="261.59797975" y="785"/>
      <point x="271.0" y="775.59797975"/>
    </contour>
    <component base="U"/>
  </outline>
</glyph>
<glyph name="uni016F" format="2">
  <advance width="500"/>
  <unicode hex="016F"/>
  <outline>
    <contour>
      <point x="292.0" y="615" type="curve" smooth="yes"/>
      <point x="292.0" y="638.1959595"/>
      <point x="273.1959595" y="657"/>
      <point x="250.0" y="657" type="curve" smooth="yes"/>
      <point x="226.80404049999999" y="657"/>
      <point x="208.0" y="638.1959595"/>
      <point x="208.0" y="615" type="curve" smooth="yes"/>
      <point x="208.0" y="591.8040405"/>
      <point x="226.80404049999999" y="573"/>
      <point x="250.0" y="573" type="curve" smooth="yes"/>
      <point x="273.1959595" y="573"/>
      <point x="292.0" y="591.8040405"/>
    </contour>
    <contour>
      <point x="271.0" y="615" type="curve" smooth="yes"/>
      <point x="271.0" y="603.40202025"/>
      <point x="261.59797975" y="594"/>
      <point x="250.0" y="594" type="curve" smooth="yes"/>
      <point x="238.40202025" y="594"/>
      <point x="229.0" y="603.40202025"/>
      <point x="229.0" y="615" type="curve" smooth="yes"/>
      <point x="229.0" y="626.59797975"/>
      <point x="238.40202025" y="636"/>
      <point x="250.0" y="636" type="curve" smooth="yes"/>
      <point x="261.59797975" y="636"/>
      <point x="271.0" y="626.59797975"/>
    </contour>
    <component base="u"/>
  </outline>
</glyph>
<glyph name="uni0171" format="2">
  <advance width="500"/>
  <unicode hex="0171"/>
  <outline>
    <contour>
      <point x="179.85483673118915" y="582.6242190094644" type="line"/>
      <point x="226.85483673118915" y="649.6242190094644" type="line"/>
      <point x="257.14516326881085" y="628.3757809905356" type="line"/>
      <point x="210.14516326881085" y="561.3757809905356" type="line"/>
    </contour>
    <contour>
      <point x="242.85483673118915" y="582.6242190094644" type="line"/>
      <point x="289.85483673118915" y="649.6242190094644" type="line"/>
      <point x="320.14516326881085" y="628.3757809905356" type="line"/>
      <point x="273.14516326881085" y="561.3757809905356" type="line"/>
    </contour>
    <component base="u"/>
  </outline>
</glyph>
<glyph name="uni0174" format="2">
  <advance width="560"/>
  <unicode hex="0174"/>
  <outline>
    <contour>
      <point x="208.012866101939" y="733.1082651654856" type="line"/>
      <point x="266.012866101939" y="800.1082651654856" type="line"/>
      <point x="293.987133898061" y="775.8917348345144" type="line"/>
      <point x="235.987133898061" y="708.8917348345144" type="line"/>
    </contour>
    <contour>
      <point x="293.987133898061" y="800.1082651654856" type="line"/>
      <point x="351.987133898061" y="733.1082651654856" type="line"/>
      <point x="324.012866101939" y="708.8917348345144" type="line"/>
      <point x="266.012866101939" y="775.8917348345144" type="line"/>
    </contour>
    <component base="W"/>
  </outline>
</glyph>
<glyph name="uni0175" format="2">
  <advance width="560"/>
  <unicode hex="0175"/>
  <outline>
    <contour>
      <point x="208.012866101939" y="584.1082651654856" type="line"/>
      <point x="266.012866101939" y="651.1082651654856" type="line"/>
      <point x="293.987133898061" y="626.8917348345144" type="line"/>
      <point x="235.987133898061" y="559.8917348345144" type="line"/>
    </contour>
    <contour>
      <point x="293.987133898061" y="651.1082651654856" type="line"/>
      <point x="351.987133898061" y="584.1082651654856" type="line"/>
      <point x="324.012866101939" y="559.8917348345144" type="line"/>
      <point x="266.012866101939" y="626.8917348345144" type="line"/>
    </contour>
    <component base="w"/>
  </outline>
</glyph>
<glyph name="uni0179" format="2">
  <advance width="500"/>
  <unicode hex="0179"/>
  <outline>
    <contour>
      <point x="198.7497526193191" y="716.9104974478429" type="line"/>
      <point x="274.7497526193191" y="794.9104974478429" type="line"/>
      <point x="301.2502473806809" y="769.0895025521571" type="line"/>
      <point x="225.2502473806809" y="691.0895025521571" type="line"/>
    </contour>
    <component base="Z"/>
  </outline>
</glyph>
<glyph name="uni017C" format="2">
  <advance width="500"/>
  <unicode hex="017C"/>
  <outline>
    <contour>
      <point x="268.5" y="615" type="curve" smooth="yes"/>
      <point x="268.5" y="625.217267875"/>
      <point x="260.217267875" y="633.5"/>
      <point x="250.0" y="633.5" type="curve" smooth="yes"/>
      <point x="239.782732125" y="633.5"/>
      <point x="231.5" y="625.217267875"/>
      <point x="231.5" y="615" type="curve" smooth="yes"/>
      <point x="231.5" y="604.782732125"/>
      <point x="239.782732125" y="596.5"/>
      <point x="250.0" y="596.5" type="curve" smooth="yes"/>
      <point x="260.217267875" y="596.5"/>
      <point x="268.5" y="604.782732125"/>
    </contour>
    <component base="z"/>
  </outline>
</glyph>
<glyph name="uni01A0" format="2">
  <advance width="500"/>
  <unicode hex="01A0"/>
  <outline>
    <contour>
      <point x="312.0" y="752" type="line"/>
      <point x="334.0" y="760" type="line"/>
      <point x="366.0" y="794" type="line"/>
      <point x="349.35" y="794" type="line"/>
      <point x="313.35" y="766" type="line"/>
      <point x="312.0" y="735.35" type="line"/>
    </contour>
    <component base="O"/>
  </outline>
</glyph>
<glyph name="uni01A1" format="2">
  <advance width="500"/>
  <unicode hex="01A1"/>
  <outline>
    <contour>
      <point x="312.0" y="603" type="line"/>
      <point x="334.0" y="611" type="line"/>
      <point x="366.0" y="645" type="line"/>
      <point x="349.35" y="645" type="line"/>
      <point x="313.35" y="617" type="line"/>
      <point x="312.0" y="586.35" type="line"/>
    </contour>
    <component base="o"/>
  </outline>
</glyph>
<glyph name="uni01AF" format="2">
  <advance width="500"/>
  <unicode hex="01AF"/>
  <outline>
    <contour>
      <point x="312.0" y="752" type="line"/>
      <point x="334.0" y="760" type="line"/>
      <point x="366.0" y="794" type="line"/>
      <point x="349.35" y="794" type="line"/>
      <point x="313.35" y="766" type="line"/>
      <point x="312.0" y="735.35" type="line"/>
    </contour>
    <component base="U"/>
  </outline>
</glyph>
<glyph name="uni01B0" format="2">
  <advance width="500"/>
  <unicode hex="01B0"/>
  <outline>
    <contour>
      <point x="312.0" y="603" type="line"/>
      <point x="334.0" y="611" type="line"/>
      <point x="366.0" y="645" type="line"/>
      <point x="349.35" y="645" type="line"/>
      <point x="313.35" y="617" type="line"/>
      <point x="312.0" y="586.35" type="line"/>
    </contour>
    <component base="u"/>
  </outline>
</glyph>
<glyph name="uni0218" format="2">
  <advance width="500"/>
  <unicode hex="0218"/>
  <outline>
    <contour>
      <point x="268.5" y="-105.0" type="curve" smooth="yes"/>
      <point x="268.5" y="-94.782732125"/>
      <point x="260.217267875" y="-86.5"/>
      <point x="250.0" y="-86.5" type="curve" smooth="yes"/>
      <point x="239.782732125" y="-86.5"/>
      <point x="231.5" y="-94.782732125"/>
      <point x="231.5" y="-105.0" type="curve" smooth="yes"/>
      <point x="231.5" y="-115.217267875"/>
      <point x="239.782732125" y="-123.5"/>
      <point x="250.0" y="-123.5" type="curve" smooth="yes"/>
      <point x="260.217267875" y="-123.5"/>
      <point x="268.5" y="-115.217267875"/>
    </contour>
    <contour>
      <point x="272.3478905327295" y="-14.36746974615864" type="line"/>
      <point x="248.34789053272948" y="-200.36746974615863" type="line"/>
      <point x="211.65210946727052" y="-195.63253025384137" type="line"/>
      <point x="235.65210946727052" y="-9.63253025384136" type="line"/>
    </contour>
    <component base="S"/>
  </outline>
</glyph>
<glyph name="uni0386" format="2">
  <advance width="500"/>
  <unicode hex="0386"/>
  <outline>
    <contour>
      <point x="198.7497526193191" y="716.9104974478429" type="line"/>
      <point x="274.7497526193191" y="794.9104974478429" type="line"/>
      <point x="301.2502473806809" y="769.0895025521571" type="line"/>
      <point x="225.2502473806809" y="691.0895025521571" type="line"/>
    </contour>
    <component base="A"/>
  </outline>
</glyph>
<glyph name="uni038F" format="2">
  <advance width="500"/>
  <unicode hex="038F"/>
  <outline>
    <contour>
      <point x="75.92" y="0" type="curve"/>
      <point x="152.07999999999998" y="0" type="line"/>
      <point x="161.97694271999998" y="0"/>
      <point x="170" y="8.023057280000002"/>
      <point x="170" y="17.92" type="curve"/>
      <point x="170" y="46.08" type="line"/>
      <point x="170" y="55.97694272"/>
      <point x="161.97694271999998" y="64"/>
      <point x="152.07999999999998" y="64" type="curve"/>
      <point x="75.92" y="64" type="line"/>
      <point x="66.02305728" y="64"/>
      <point x="58" y="55.97694272"/>
      <point x="58" y="46.08" type="curve"/>
      <point x="58" y="17.92" type="line"/>
      <point x="58" y="8.023057280000002"/>
      <point x="66.02305728" y="0"/>
    </contour>
    <contour>
      <point x="347.92" y="0" type="curve"/>
      <point x="424.08" y="0" type="line"/>
      <point x="433.97694272" y="0"/>
      <point x="442" y="8.023057280000002"/>
      <point x="442" y="17.92" type="curve"/>
      <point x="442" y="46.08" type="line"/>
      <point x="442" y="55.97694272"/>
      <point x="433.97694272" y="64"/>
      <point x="424.08" y="64" type="curve"/>
      <point x="347.92" y="64" type="line"/>
      <point x="338.02305728" y="64"/>
      <point x="330" y="55.97694272"/>
      <point x="330" y="46.08" type="curve"/>
      <point x="330" y="17.92" type="line"/>
      <point x="330" y="8.023057280000002"/>
      <point x="338.02305728" y="0"/>
    </contour>
    <contour>
      <point x="92" y="44" type="line"/>
      <point x="38" y="190"/>
      <point x="68" y="708"/>
      <point x="250" y="708" type="curve"/>
      <point x="432" y="708"/>
      <point x="462" y="190"/>
      <point x="408" y="44" type="curve"/>
      <point x="344" y="44" type="line"/>
      <point x="384" y="172"/>
      <point x="360" y="642"/>
      <point x="250" y="642" type="curve"/>
      <point x="140" y="642"/>
      <point x="116" y="172"/>
      <point x="156" y="44" type="curve"/>
    </contour>
    <contour>
      <point x="198.7497526193191" y="716.9104974478429" type="line"/>
      <point x="274.7497526193191" y="794.9104974478429" type="line"/>
      <point x="301.2502473806809" y="769.0895025521571" type="line"/>
      <point x="225.2502473806809" y="691.0895025521571" type="line"/>
    </contour>
  </outline>
</glyph>
<glyph name="uni0390" format="2">
  <advance width="250"/>
  <unicode hex="0390"/>
  <outline>
    <contour>
      <point x="105.5" y="615" type="curve"/>
      <point x="105.5" y="625.217267875"/>
      <point x="97.217267875" y="633.5"/>
      <point x="87.0" y="633.5" type="curve"/>
      <point x="76.782732125" y="633.5"/>
      <point x="68.5" y="625.217267875"/>
      <point x="68.5" y="615" type="curve"/>
      <point x="68.5" y="604.782732125"/>
      <point x="76.782732125" y="596.5"/>
      <point x="87.0" y="596.5" type="curve"/>
      <point x="97.217267875" y="596.5"/>
      <point x="105.5" y="604.782732125"/>
    </contour>
    <contour>
      <point x="181.5" y="615" type="curve"/>
      <point x="181.5" y="625.217267875"/>
      <point x="173.217267875" y="633.5"/>
      <point x="163.0" y="633.5" type="curve"/>
      <point x="152.782732125" y="633.5"/>
      <point x="144.5" y="625.217267875"/>
      <point x="144.5" y="615" type="curve"/>
      <point x="144.5" y="604.782732125"/>
      <point x="152.782732125" y="596.5"/>
      <point x="163.0" y="596.5" type="curve"/>
      <point x="173.217267875" y="596.5"/>
      <point x="181.5" y="604.782732125"/>
    </contour>
    <contour>
      <point x="73.7497526193191" y="567.9104974478429" type="line"/>
      <point x="149.7497526193191" y="645.9104974478429" type="line"/>
      <point x="176.2502473806809" y="620.0895025521571" type="line"/>
      <point x="100.2502473806809" y="542.0895025521571" type="line"/>
    </contour>
    <component base="i"/>
  </outline>
</glyph>
<glyph name="uni0393" format="2">
  <advance width="500"/>
  <unicode hex="0393"/>
  <outline>
    <contour>
      <point x="75.92" y="0" type="curve"/>
      <point x="104.08" y="0" type="line"/>
      <point x="113.97694272" y="0"/>
      <point x="122" y="8.023057280000002"/>
      <point x="122" y="17.92" type="curve"/>
      <point x="122" y="682.08" type="line"/>
      <point x="122" y="691.97694272"/>
      <point x="113.97694272" y="700"/>
      <point x="104.08" y="700" type="curve"/>
      <point x="75.92" y="700" type="line"/>
      <point x="66.02305728" y="700"/>
      <point x="58" y="691.97694272"/>
      <point x="58" y="682.08" type="curve"/>
      <point x="58" y="17.92" type="line"/>
      <point x="58" y="8.023057280000002"/>
      <point x="66.02305728" y="0"/>
    </contour>
    <contour>
      <point x="58" y="636" type="line"/>
      <point x="408" y="636" type="line"/>
      <point x="408" y="700" type="line"/>
      <point x="58" y="700" type="line"/>
    </contour>
  </outline>
</glyph>
<glyph name="uni0394" format="2">
  <advance width="500"/>
  <unicode hex="0394"/>
  <outline>
    <contour>
      <point x="37.0296797827753" y="8.052283256478423" type="line"/>
      <point x="219.0296797827753" y="708.0522832564784" type="line"/>
      <point x="280.9703202172247" y="691.9477167435216" type="line"/>
      <point x="98.9703202172247" y="-8.052283256478423" type="line"/>
    </contour>
    <contour>
      <point x="401.0296797827753" y="-8.052283256478423" type="line"/>
      <point x="219.0296797827753" y="691.9477167435216" type="line"/>
      <point x="280.9703202172247" y="708.0522832564784" type="line"/>
      <point x="462.9703202172247" y="8.052283256478423" type="line"/>
    </contour>
    <contour>
      <point x="89.92" y="0" type="curve"/>
      <point x="410.08" y="0" type="line"/>
      <point x="419.97694272" y="0"/>
      <point x="428" y="8.023057280000002"/>
      <point x="428" y="17.92" type="curve"/>
      <point x="428" y="46.08" type="line"/>
      <point x="428" y="55.97694272"/>
      <point x="419.97694272" y="64"/>
      <point x="410.08" y="64" type="curve"/>
      <point x="89.92" y="64" type="line"/>
      <point x="80.02305728" y="64"/>
      <point x="72" y="55.97694272"/>
      <point x="72" y="46.08" type="curve"/>
      <point x="72" y="17.92" type="line"/>
      <point x="72" y="8.023057280000002"/>
      <point x="80.02305728" y="0"/>
    </contour>
  </outline>
</glyph>
<glyph name="uni039B" format="2">
  <advance width="500"/>
  <unicode hex="039B"/>
  <outline>
    <contour>
      <point x="37.0296797827753" y="8.052283256478423" type="line"/>
      <point x="219.0296797827753" y="708.0522832564784" type="line"/>
      <point x="280.9703202172247" y="691.9477167435216" type="line"/>
      <point x="98.9703202172247" y="-8.052283256478423" type="line"/>
    </contour>
    <contour>
      <point x="401.0296797827753" y="-8.052283256478423" type="line"/>
      <point x="219.0296797827753" y="691.9477167435216" type="line"/>
      <point x="280.9703202172247" y="708.0522832564784" type="line"/>
      <point x="462.9703202172247" y="8.052283256478423" type="line"/>
    </contour>
  </outline>
</glyph>
<glyph name="uni03A0" format="2">
  <advance width="500"/>
  <unicode hex="03A0"/>
  <outline>
    <contour>
      <point x="77.92" y="0" type="curve"/>
      <point x="106.08" y="0" type="line"/>
      <point x="115.97694272" y="0"/>
      <point x="124" y="8.023057280000002"/>
      <point x="124" y="17.92" type="curve"/>
      <point x="124" y="682.08" type="line"/>
      <point x="124" y="691.97694272"/>
      <point x="115.97694272" y="700"/>
      <point x="106.08" y="700" type="curve"/>
      <point x="77.92" y="700" type="line"/>
      <point x="68.02305728" y="700"/>
      <point x="60" y="691.97694272"/>
      <point x="60" y="682.08" type="curve"/>
      <point x="60" y="17.92" type="line"/>
      <point x="60" y="8.023057280000002"/>
      <point x="68.02305728" y="0"/>
    </contour>
    <contour>
      <point x="393.92" y="0" type="curve"/>
      <point x="422.08" y="0" type="line"/>
      <point x="431.97694272" y="0"/>
      <point x="440" y="8.023057280000002"/>
      <point x="440" y="17.92" type="curve"/>
      <point x="440" y="682.08" type="line"/>
      <point x="440" y="691.97694272"/>
      <point x="431.97694272" y="700"/>
      <point x="422.08" y="700" type="curve"/>
      <point x="393.92" y="700" type="line"/>
      <point x="384.02305728" y="700"/>
      <point x="376" y="691.97694272"/>
      <point x="376" y="682.08" type="curve"/>
      <point x="376" y="17.92" type="line"/>
      <point x="376" y="8.023057280000002"/>
      <point x="384.02305728" y="0"/>
    </contour>
    <contour>
      <point x="60" y="636" type="line"/>
      <point x="440" y="636" type="line"/>
      <point x="440" y="700" type="line"/>
      <point x="60" y="700" type="line"/>
    </contour>
  </outline>
</glyph>
<glyph name="uni03A3" format="2">
  <advance width="500"/>
  <unicode hex="03A3"/>
  <outline>
    <contour>
      <point x="99.92" y="636" type="curve"/>
      <point x="404.08" y="636" type="line"/>
      <point x="413.97694272" y="636"/>
      <point x="422" y="644.02305728"/>
      <point x="422" y="653.92" type="curve"/>
      <point x="422" y="682.08" type="line"/>
      <point x="422" y="691.97694272"/>
      <point x="413.97694272" y="700"/>
      <point x="404.08" y="700" type="curve"/>
      <point x="99.92" y="700" type="line"/>
      <point x="90.02305728" y="700"/>
      <point x="82" y="691.97694272"/>
      <point x="82" y="682.08" type="curve"/>
      <point x="82" y="653.92" type="line"/>
      <point x="82" y="644.02305728"/>
      <point x="90.02305728" y="636"/>
    </contour>
    <contour>
      <point x="423.2336129784594" y="648.32095591617" type="line"/>
      <point x="175.23361297845943" y="330.32095591617" type="line"/>
      <point x="124.76638702154058" y="369.67904408383" type="line"/>
      <point x="372.7663870215406" y="687.67904408383" type="line"/>
    </contour>
    <contour>
      <point x="175.23361297845943" y="369.67904408383" type="line"/>
      <point x="423.2336129784594" y="51.67904408382999" type="line"/>
      <point x="372.7663870215406" y="12.32095591617001" type="line"/>
      <point x="124.76638702154058" y="330.32095591617" type="line"/>
    </contour>
    <contour>
      <point x="99.92" y="0" type="curve"/>
      <point x="404.08" y="0" type="line"/>
      <point x="413.97694272" y="0"/>
      <point x="422" y="8.023057280000002"/>
      <point x="422" y="17.92" type="curve"/>
      <point x="422" y="46.08" type="line"/>
      <point x="422" y="55.97694272"/>
      <point x="413.97694272" y="64"/>
      <point x="404.08" y="64" type="curve"/>
      <point x="99.92" y="64" type="line"/>
      <point x="90.02305728" y="64"/>
      <point x="82" y="55.97694272"/>
      <point x="82" y="46.08" type="curve"/>
      <point x="82" y="17.92" type="line"/>
      <point x="82" y="8.023057280000002"/>
      <point x="90.02305728" y="0"/>
    </contour>
  </outline>
</glyph>
<glyph name="uni03A6" format="2">
  <advance width="500"/>
  <unicode hex="03A6"/>
  <outline>
    <contour>
      <point x="428" y="350.0" type="curve"/>
      <point x="428" y="488.0711875"/>
      <point x="348.3066855" y="600.0"/>
      <point x="250" y="600.0" type="curve"/>
      <point x="151.69331449999999" y="600.0"/>
      <point x="72" y="488.0711875"/>
      <point x="72" y="350.0" type="curve"/>
      <point x="72" y="211.9288125"/>
      <point x="151.69331449999999" y="100.0"/>
      <point x="250" y="100.0" type="curve"/>
      <point x="348.3066855" y="100.0"/>
      <point x="428" y="211.9288125"/>
    </contour>
    <contour>
      <point x="364" y="350.0" type="curve"/>
      <point x="364" y="247.2750365"/>
      <point x="312.9604615" y="164.0"/>
      <point x="250" y="164.0" type="curve"/>
      <point x="187.0395385" y="164.0"/>
      <point x="136" y="247.2750365"/>
      <point x="136" y="350.0" type="curve"/>
      <point x="136" y="452.7249635"/>
      <point x="187.0395385" y="536.0"/>
      <point x="250" y="536.0" type="curve"/>
      <point x="312.9604615" y="536.0"/>
      <point x="364" y="452.7249635"/>
    </contour>
    <contour>
      <point x="235.92000000000002" y="-56" type="curve"/>
      <point x="264.08" y="-56" type="line"/>
      <point x="273.97694272" y="-56"/>
      <point x="282.0" y="-47.97694272"/>
      <point x="282.0" y="-38.08" type="curve"/>
      <point x="282.0" y="738.08" type="line"/>
      <point x="282.0" y="747.97694272"/>
      <point x="273.97694272" y="756"/>
      <point x="264.08" y="756" type="curve"/>
      <point x="235.92000000000002" y="756" type="line"/>
      <point x="226.02305728000002" y="756"/>
      <point x="218.0" y="747.97694272"/>
      <point x="218.0" y="738.08" type="curve"/>
      <point x="218.0" y="-38.08" type="line"/>
      <point x="218.0" y="-47.97694272"/>
      <point x="226.02305728000002" y="-56"/>
    </contour>
  </outline>
</glyph>
<glyph name="uni03A8" format="2">
  <advance width="500"/>
  <unicode hex="03A8"/>
  <outline>
    <contour>
      <point x="428" y="478" type="curve"/>
      <point x="428" y="575.202116"/>
      <point x="348.3066855" y="654"/>
      <point x="250" y="654" type="curve"/>
      <point x="151.69331449999999" y="654"/>
      <point x="72" y="575.202116"/>
      <point x="72" y="478" type="curve"/>
      <point x="72" y="380.797884"/>
      <point x="151.69331449999999" y="302"/>
      <point x="250" y="302" type="curve"/>
      <point x="348.3066855" y="302"/>
      <point x="428" y="380.797884"/>
    </contour>
    <contour>
      <point x="364" y="478" type="curve"/>
      <point x="364" y="416.144108"/>
      <point x="312.9604615" y="366"/>
      <point x="250" y="366" type="curve"/>
      <point x="187.0395385" y="366"/>
      <point x="136" y="416.144108"/>
      <point x="136" y="478" type="curve"/>
      <point x="136" y="539.855892"/>
      <point x="187.0395385" y="590"/>
      <point x="250" y="590" type="curve"/>
      <point x="312.9604615" y="590"/>
      <point x="364" y="539.855892"/>
    </contour>
    <contour>
      <point x="235.92000000000002" y="0" type="curve"/>
      <point x="264.08" y="0" type="line"/>
      <point x="273.97694272" y="0"/>
      <point x="282.0" y="8.023057280000002"/>
      <point x="282.0" y="17.92" type="curve"/>
      <point x="282.0" y="452.08" type="line"/>
      <point x="282.0" y="461.97694272"/>
      <point x="273.97694272" y="470"/>
      <point x="264.08" y="470" type="curve"/>
      <point x="235.92000000000002" y="470" type="line"/>
      <point x="226.02305728000002" y="470"/>
      <point x="218.0" y="461.97694272"/>
      <point x="218.0" y="452.08" type="curve"/>
      <point x="218.0" y="17.92" type="line"/>
      <point x="218.0" y="8.023057280000002"/>
      <point x="226.02305728000002" y="0"/>
    </contour>
  </outline>
</glyph>
<glyph name="uni03AC" format="2">
  <advance width="500"/>
  <unicode hex="03AC"/>
  <outline>
    <contour>
      <point x="359" y="246" type="curve"/>
      <point x="359" y="381.8620485"/>
      <point x="294.08128875" y="492"/>
      <point x="214" y="492" type="curve"/>
      <point x="133.91871125" y="492"/>
      <point x="69" y="381.8620485"/>
      <point x="69" y="246" type="curve"/>
      <point x="69" y="110.13795150000001"/>
      <point x="133.91871125" y="0"/>
      <point x="214" y="0" type="curve"/>
      <point x="294.08128875" y="0"/>
      <point x="359" y="110.13795150000001"/>
    </contour>
    <contour>
      <point x="295" y="246" type="curve"/>
      <point x="295" y="145.4841755"/>
      <point x="258.73506475" y="64"/>
      <point x="214" y="64" type="curve"/>
      <point x="169.26493525" y="64"/>
      <point x="133" y="145.4841755"/>
      <point x="133" y="246" type="curve"/>
      <point x="133" y="346.5158245"/>
      <point x="169.26493525" y="428"/>
      <point x="214" y="428" type="curve"/>
      <point x="258.73506475" y="428"/>
      <point x="295" y="346.5158245"/>
    </contour>
    <contour>
      <point x="382.92" y="0" type="curve"/>
      <point x="411.08" y="0" type="line"/>
      <point x="420.97694272" y="0"/>
      <point x="429" y="8.023057280000002"/>
      <point x="429" y="17.92" type="curve"/>
      <point x="429" y="537.08" type="line"/>
      <point x="429" y="546.97694272"/>
      <point x="420.97694272" y="555"/>
      <point x="411.08" y="555" type="curve"/>
      <point x="382.92" y="555" type="line"/>
      <point x="373.02305728" y="555"/>
      <point x="365" y="546.97694272"/>
      <point x="365" y="537.08" type="curve"/>
      <point x="365" y="17.92" type="line"/>
      <point x="365" y="8.023057280000002"/>
      <point x="373.02305728" y="0"/>
    </contour>
    <contour>
      <point x="365" y="0" type="line"/>
      <point x="430" y="0" type="line"/>
      <point x="430" y="64" type="line"/>
      <point x="365" y="64" type="line"/>
    </contour>
    <contour>
      <point x="198.7497526193191" y="567.9104974478429" type="line"/>
      <point x="274.7497526193191" y="645.9104974478429" type="line"/>
      <point x="301.2502473806809" y="620.0895025521571" type="line"/>
      <point x="225.2502473806809" y="542.0895025521571" type="line"/>
    </contour>
  </outline>
</glyph>
<glyph name="uni03AE" format="2">
  <advance width="500"/>
  <unicode hex="03AE"/>
  <outline>
    <contour>
      <point x="77.92" y="0" type="curve"/>
      <point x="106.08" y="0" type="line"/>
      <point x="115.97694272" y="0"/>
      <point x="124" y="8.023057280000002"/>
      <point x="124" y="17.92" type="curve"/>
      <point x="124" y="537.08" type="line"/>
      <point x="124" y="546.97694272"/>
      <point x="115.97694272" y="555"/>
      <point x="106.08" y="555" type="curve"/>
      <point x="77.92" y="555" type="line"/>
      <point x="68.02305728" y="555"/>
      <point x="60" y="546.97694272"/>
      <point x="60" y="537.08" type="curve"/>
      <point x="60" y="17.92" type="line"/>
      <point x="60" y="8.023057280000002"/>
      <point x="68.02305728" y="0"/>
    </contour>
    <contour>
      <point x="124" y="-210" type="line"/>
      <point x="124" y="555" type="line"/>
      <point x="198.8" y="565"/>
      <point x="344" y="424.95"/>
      <point x="344" y="271.95" type="curve"/>
      <point x="344" y="-210" type="line"/>
      <point x="280" y="-210" type="line"/>
      <point x="280" y="271.95" type="line"/>
      <point x="280" y="519.8"/>
      <point x="262.8" y="491"/>
      <point x="188" y="491" type="curve"/>
      <point x="188" y="-210" type="line"/>
    </contour>
    <contour>
      <point x="198.7497526193191" y="567.9104974478429" type="line"/>
      <point x="274.7497526193191" y="645.9104974478429" type="line"/>
      <point x="301.2502473806809" y="620.0895025521571" type="line"/>
      <point x="225.2502473806809" y="542.0895025521571" type="line"/>
    </contour>
  </outline>
</glyph>
<glyph name="uni03B0" format="2">
  <advance width="500"/>
  <unicode hex="03B0"/>
  <outline>
    <contour>
      <point x="230.5" y="615" type="curve"/>
      <point x="230.5" y="625.217267875"/>
      <point x="222.217267875" y="633.5"/>
      <point x="212.0" y="633.5" type="curve"/>
      <point x="201.782732125" y="633.5"/>
      <point x="193.5" y="625.217267875"/>
      <point x="193.5" y="615" type="curve"/>
      <point x="193.5" y="604.782732125"/>
      <point x="201.782732125" y="596.5"/>
      <point x="212.0" y="596.5" type="curve"/>
      <point x="222.217267875" y="596.5"/>
      <point x="230.5" y="604.782732125"/>
    </contour>
    <contour>
      <point x="306.5" y="615" type="curve"/>
      <point x="306.5" y="625.217267875"/>
      <point x="298.217267875" y="633.5"/>
      <point x="288.0" y="633.5" type="curve"/>
      <point x="277.782732125" y="633.5"/>
      <point x="269.5" y="625.217267875"/>
      <point x="269.5" y="615" type="curve"/>
      <point x="269.5" y="604.782732125"/>
      <point x="277.782732125" y="596.5"/>
      <point x="288.0" y="596.5" type="curve"/>
      <point x="298.217267875" y="596.5"/>
      <point x="306.5" y="604.782732125"/>
    </contour>
    <contour>
      <point x="198.7497526193191" y="567.9104974478429" type="line"/>
      <point x="274.7497526193191" y="645.9104974478429" type="line"/>
      <point x="301.2502473806809" y="620.0895025521571" type="line"/>
      <point x="225.2502473806809" y="542.0895025521571" type="line"/>
    </contour>
    <component base="u"/>
  </outline>
</glyph>
<glyph name="uni03B1" format="2">
  <advance width="500"/>
  <unicode hex="03B1"/>
  <outline>
    <contour>
      <point x="359" y="246" type="curve"/>
      <point x="359" y="381.8620485"/>
      <point x="294.08128875" y="492"/>
      <point x="214" y="492" type="curve"/>
      <point x="133.91871125" y="492"/>
      <point x="69" y="381.8620485"/>
      <point x="69" y="246" type="curve"/>
      <point x="69" y="110.13795150000001"/>
      <point x="133.91871125" y="0"/>
      <point x="214" y="0" type="curve"/>
      <point x="294.08128875" y="0"/>
      <point x="359" y="110.13795150000001"/>
    </contour>
    <contour>
      <point x="295" y="246" type="curve"/>
      <point x="295" y="145.4841755"/>
      <point x="258.73506475" y="64"/>
      <point x="214" y="64" type="curve"/>
      <point x="169.26493525" y="64"/>
      <point x="133" y="145.4841755"/>
      <point x="133" y="246" type="curve"/>
      <point x="133" y="346.5158245"/>
      <point x="169.26493525" y="428"/>
      <point x="214" y="428" type="curve"/>
      <point x="258.73506475" y="428"/>
      <point x="295" y="346.5158245"/>
    </contour>
    <contour>
      <point x="382.92" y="0" type="curve"/>
      <point x="411.08" y="0" type="line"/>
      <point x="420.97694272" y="0"/>
      <point x="429" y="8.023057280000002"/>
      <point x="429" y="17.92" type="curve"/>
      <point x="429" y="537.08" type="line"/>
      <point x="429" y="546.97694272"/>
      <point x="420.97694272" y="555"/>
      <point x="411.08" y="555" type="curve"/>
      <point x="382.92" y="555" type="line"/>
      <point x="373.02305728" y="555"/>
      <point x="365" y="546.97694272"/>
      <point x="365" y="537.08" type="curve"/>
      <point x="365" y="17.92" type="line"/>
      <point x="365" y="8.023057280000002"/>
      <point x="373.02305728" y="0"/>
    </contour>
    <contour>
      <point x="365" y="0" type="line"/>
      <point x="430" y="0" type="line"/>
      <point x="430" y="64" type="line"/>
      <point x="365" y="64" type="line"/>
    </contour>
  </outline>
</glyph>
<glyph name="uni03B2" format="2">
  <advance width="500"/>
  <unicode hex="03B2"/>
  <outline>
    <contour>
      <point x="89.92" y="-210" type="curve"/>
      <point x="118.08" y="-210" type="line"/>
      <point x="127.97694272" y="-210"/>
      <point x="136" y="-201.97694271999998"/>
      <point x="136" y="-192.07999999999998" type="curve"/>
      <point x="136" y="742.08" type="line"/>
      <point x="136" y="751.97694272"/>
      <point x="127.97694272" y="760"/>
      <point x="118.08" y="760" type="curve"/>
      <point x="89.92" y="760" type="line"/>
      <point x="80.02305728" y="760"/>
      <point x="72" y="751.97694272"/>
      <point x="72" y="742.08" type="curve"/>
      <point x="72" y="-192.07999999999998" type="line"/>
      <point x="72" y="-201.97694271999998"/>
      <point x="80.02305728" y="-210"/>
    </contour>
    <contour>
      <point x="382" y="386" type="curve"/>
      <point x="382" y="478.783838"/>
      <point x="316.6335735" y="554"/>
      <point x="236" y="554" type="curve"/>
      <point x="155.3664265" y="554"/>
      <point x="90" y="478.783838"/>
      <point x="90" y="386" type="curve"/>
      <point x="90" y="293.216162"/>
      <point x="155.3664265" y="218"/>
      <point x="236" y="218" type="curve"/>
      <point x="316.6335735" y="218"/>
      <point x="382" y="293.216162"/>
    </contour>
    <contour>
      <point x="318" y="386" type="curve"/>
      <point x="318" y="328.562386"/>
      <point x="281.2873495" y="282"/>
      <point x="236" y="282" type="curve"/>
      <point x="190.7126505" y="282"/>
      <point x="154" y="328.562386"/>
      <point x="154" y="386" type="curve"/>
      <point x="154" y="443.437614"/>
      <point x="190.7126505" y="490"/>
      <point x="236" y="490" type="curve"/>
      <point x="281.2873495" y="490"/>
      <point x="318" y="443.437614"/>
    </contour>
    <contour>
      <point x="382" y="142" type="curve"/>
      <point x="382" y="224.8427125"/>
      <point x="316.6335735" y="292"/>
      <point x="236" y="292" type="curve"/>
      <point x="155.3664265" y="292"/>
      <point x="90" y="224.8427125"/>
      <point x="90" y="142" type="curve"/>
      <point x="90" y="59.157287499999995"/>
      <point x="155.3664265" y="-8"/>
      <point x="236" y="-8" type="curve"/>
      <point x="316.6335735" y="-8"/>
      <point x="382" y="59.157287499999995"/>
    </contour>
    <contour>
      <point x="318" y="142" type="curve"/>
      <point x="318" y="94.5035115"/>
      <point x="281.2873495" y="56"/>
      <point x="236" y="56" type="curve"/>
      <point x="190.7126505" y="56"/>
      <point x="154" y="94.5035115"/>
      <point x="154" y="142" type="curve"/>
      <point x="154" y="189.4964885"/>
      <point x="190.7126505" y="228"/>
      <point x="236" y="228" type="curve"/>
      <point x="281.2873495" y="228"/>
      <point x="318" y="189.4964885"/>
    </contour>
  </outline>
</glyph>
<glyph name="uni03B3" format="2">
  <advance width="500"/>
  <unicode hex="03B3"/>
  <outline>
    <contour>
      <point x="103.85832578941762" y="566.5100122090726" type="line"/>
      <point x="273.8583257894176" y="125.51001220907256" type="line"/>
      <point x="214.14167421058238" y="102.48998779092744" type="line"/>
      <point x="44.14167421058239" y="543.4899877909274" type="line"/>
    </contour>
    <contour>
      <point x="455.57996587311925" y="542.7923950364905" type="line"/>
      <point x="273.57996587311925" y="101.79239503649048" type="line"/>
      <point x="214.42003412688078" y="126.20760496350952" type="line"/>
      <point x="396.42003412688075" y="567.2076049635095" type="line"/>
    </contour>
    <contour>
      <point x="229.92000000000002" y="-210" type="curve"/>
      <point x="258.08" y="-210" type="line"/>
      <point x="267.97694272" y="-210"/>
      <point x="276" y="-201.97694271999998"/>
      <point x="276" y="-192.07999999999998" type="curve"/>
      <point x="276" y="-73.92" type="line"/>
      <point x="276" y="-64.02305728"/>
      <point x="267.97694272" y="-56"/>
      <point x="258.08" y="-56" type="curve"/>
      <point x="229.92000000000002" y="-56" type="line"/>
      <point x="220.02305728000002" y="-56"/>
      <point x="212" y="-64.02305728"/>
      <point x="212" y="-73.92" type="curve"/>
      <point x="212" y="-192.07999999999998" type="line"/>
      <point x="212" y="-201.97694271999998"/>
      <point x="220.02305728000002" y="-210"/>
    </contour>
  </outline>
</glyph>
<glyph name="uni03B5" format="2">
  <advance width="500"/>
  <unicode hex="03B5"/>
  <outline>
    <contour>
      <point x="396.15999999999997" y="443.92" type="line"/>
      <point x="333.52" y="522"/>
      <point x="176.92000000000002" y="522"/>
      <point x="76" y="382.92" type="curve"/>
      <point x="76" y="173.07999999999998"/>
      <point x="176.92000000000002" y="34"/>
      <point x="333.52" y="34" type="curve"/>
      <point x="377.02" y="95.0"/>
      <point x="396.15999999999997" y="136.48000000000002"/>
      <point x="396.15999999999997" y="156.0" type="curve"/>
      <point x="342.4" y="182.84" type="line"/>
      <point x="316.12" y="98"/>
      <point x="140" y="199.92000000000002"/>
      <point x="140" y="278" type="curve"/>
      <point x="140" y="356.08"/>
      <point x="316.12" y="458"/>
      <point x="342.4" y="373.15999999999997" type="curve"/>
    </contour>
    <contour>
      <point x="235.36" y="246" type="curve"/>
      <point x="364.64" y="246" type="line"/>
      <point x="373.12309375999996" y="246"/>
      <point x="380" y="252.87690624"/>
      <point x="380" y="261.36" type="curve"/>
      <point x="380" y="294.64" type="line"/>
      <point x="380" y="303.12309375999996"/>
      <point x="373.12309375999996" y="310"/>
      <point x="364.64" y="310" type="curve"/>
      <point x="235.36" y="310" type="line"/>
      <point x="226.87690624" y="310"/>
      <point x="220" y="303.12309375999996"/>
      <point x="220" y="294.64" type="curve"/>
      <point x="220" y="261.36" type="line"/>
      <point x="220" y="252.87690624"/>
      <point x="226.87690624" y="246"/>
    </contour>
  </outline>
</glyph>
<glyph name="uni03B8" format="2">
  <advance width="500"/>
  <unicode hex="03B8"/>
  <outline>
    <contour>
      <point x="420" y="278" type="curve"/>
      <point x="420" y="431.53516049999996"/>
      <point x="343.88840749999997" y="556"/>
      <point x="250" y="556" type="curve"/>
      <point x="156.1115925" y="556"/>
      <point x="80" y="431.53516049999996"/>
      <point x="80" y="278" type="curve"/>
      <point x="80" y="124.46483950000001"/>
      <point x="156.1115925" y="0"/>
      <point x="250" y="0" type="curve"/>
      <point x="343.88840749999997" y="0"/>
      <point x="420" y="124.46483950000001"/>
    </contour>
    <contour>
      <point x="356" y="278" type="curve"/>
      <point x="356" y="159.8110635"/>
      <point x="308.5421835" y="64"/>
      <point x="250" y="64" type="curve"/>
      <point x="191.4578165" y="64"/>
      <point x="144" y="159.8110635"/>
      <point x="144" y="278" type="curve"/>
      <point x="144" y="396.1889365"/>
      <point x="191.4578165" y="492"/>
      <point x="250" y="492" type="curve"/>
      <point x="308.5421835" y="492"/>
      <point x="356" y="396.1889365"/>
    </contour>
    <contour>
      <point x="119.36" y="246" type="curve"/>
      <point x="380.64" y="246" type="line"/>
      <point x="389.12309375999996" y="246"/>
      <point x="396" y="252.87690624"/>
      <point x="396" y="261.36" type="curve"/>
      <point x="396" y="294.64" type="line"/>
      <point x="396" y="303.12309375999996"/>
      <point x="389.12309375999996" y="310"/>
      <point x="380.64" y="310" type="curve"/>
      <point x="119.36" y="310" type="line"/>
      <point x="110.87690624" y="310"/>
      <point x="104" y="303.12309375999996"/>
      <point x="104" y="294.64" type="curve"/>
      <point x="104" y="261.36" type="line"/>
      <point x="104" y="252.87690624"/>
      <point x="110.87690624" y="246"/>
    </contour>
  </outline>
</glyph>
<glyph name="uni03BC" format="2">
  <advance width="500"/>
  <unicode hex="03BC"/>
  <outline>
    <contour>
      <point x="77.92" y="-210" type="curve"/>
      <point x="106.08" y="-210" type="line"/>
      <point x="115.97694272" y="-210"/>
      <point x="124" y="-201.97694271999998"/>
      <point x="124" y="-192.07999999999998" type="curve"/>
      <point x="124" y="537.08" type="line"/>
      <point x="124" y="546.97694272"/>
      <point x="115.97694272" y="555"/>
      <point x="106.08" y="555" type="curve"/>
      <point x="77.92" y="555" type="line"/>
      <point x="68.02305728" y="555"/>
      <point x="60" y="546.97694272"/>
      <point x="60" y="537.08" type="curve"/>
      <point x="60" y="-192.07999999999998" type="line"/>
      <point x="60" y="-201.97694271999998"/>
      <point x="68.02305728" y="-210"/>
    </contour>
    <contour>
      <point x="297.92" y="0" type="curve"/>
      <point x="326.08" y="0" type="line"/>
      <point x="335.97694272" y="0"/>
      <point x="344" y="8.023057280000002"/>
      <point x="344" y="17.92" type="curve"/>
      <point x="344" y="537.08" type="line"/>
      <point x="344" y="546.97694272"/>
      <point x="335.97694272" y="555"/>
      <point x="326.08" y="555" type="curve"/>
      <point x="297.92" y="555" type="line"/>
      <point x="288.02305728" y="555"/>
      <point x="280" y="546.97694272"/>
      <point x="280" y="537.08" type="curve"/>
      <point x="280" y="17.92" type="line"/>
      <point x="280" y="8.023057280000002"/>
      <point x="288.02305728" y="0"/>
    </contour>
    <contour>
      <point x="124" y="180" type="line"/>
      <point x="124" y="70"/>
      <point x="160" y="48"/>
      <point x="234" y="48" type="curve"/>
      <point x="306" y="48"/>
      <point x="344" y="92"/>
      <point x="344" y="190" type="curve"/>
      <point x="280" y="190" type="line"/>
      <point x="280" y="106"/>
      <point x="264" y="54"/>
      <point x="234" y="54" type="curve"/>
      <point x="202" y="54"/>
      <point x="124" y="96"/>
      <point x="124" y="190" type="curve"/>
    </contour>
  </outline>
</glyph>
<glyph name="uni03C0" format="2">
  <advance width="500"/>
  <unicode hex="03C0"/>
  <outline>
    <contour>
      <point x="75.92" y="491" type="curve"/>
      <point x="424.08" y="491" type="line"/>
      <point x="433.97694272" y="491"/>
      <point x="442" y="499.02305728"/>
      <point x="442" y="508.92" type="curve"/>
      <point x="442" y="537.08" type="line"/>
      <point x="442" y="546.97694272"/>
      <point x="433.97694272" y="555"/>
      <point x="424.08" y="555" type="curve"/>
      <point x="75.92" y="555" type="line"/>
      <point x="66.02305728" y="555"/>
      <point x="58" y="546.97694272"/>
      <point x="58" y="537.08" type="curve"/>
      <point x="58" y="508.92" type="line"/>
      <point x="58" y="499.02305728"/>
      <point x="66.02305728" y="491"/>
    </contour>
    <contour>
      <point x="117.92" y="0" type="curve"/>
      <point x="146.07999999999998" y="0" type="line"/>
      <point x="155.97694271999998" y="0"/>
      <point x="164" y="8.023057280000002"/>
      <point x="164" y="17.92" type="curve"/>
      <point x="164" y="537.08" type="line"/>
      <point x="164" y="546.97694272"/>
      <point x="155.97694271999998" y="555"/>
      <point x="146.07999999999998" y="555" type="curve"/>
      <point x="117.92" y="555" type="line"/>
      <point x="108.02305728" y="555"/>
      <point x="100" y="546.97694272"/>
      <point x="100" y="537.08" type="curve"/>
      <point x="100" y="17.92" type="line"/>
      <point x="100" y="8.023057280000002"/>
      <point x="108.02305728" y="0"/>
    </contour>
    <contour>
      <point x="359.92" y="0" type="curve"/>
      <point x="388.08" y="0" type="line"/>
      <point x="397.97694272" y="0"/>
      <point x="406" y="8.023057280000002"/>
      <point x="406" y="17.92" type="curve"/>
      <point x="406" y="537.08" type="line"/>
      <point x="406" y="546.97694272"/>
      <point x="397.97694272" y="555"/>
      <point x="388.08" y="555" type="curve"/>
      <point x="359.92" y="555" type="line"/>
      <point x="350.02305728" y="555"/>
      <point x="342" y="546.97694272"/>
      <point x="342" y="537.08" type="curve"/>
      <point x="342" y="17.92" type="line"/>
      <point x="342" y="8.023057280000002"/>
      <point x="350.02305728" y="0"/>
    </contour>
  </outline>
</glyph>
<glyph name="uni03C1" format="2">
  <advance width="500"/>
  <unicode hex="03C1"/>
  <outline>
    <contour>
      <point x="83.92" y="-210" type="curve"/>
      <point x="112.08" y="-210" type="line"/>
      <point x="121.97694272" y="-210"/>
      <point x="130" y="-201.97694271999998"/>
      <point x="130" y="-192.07999999999998" type="curve"/>
      <point x="130" y="537.08" type="line"/>
      <point x="130" y="546.97694272"/>
      <point x="121.97694272" y="555"/>
      <point x="112.08" y="555" type="curve"/>
      <point x="83.92" y="555" type="line"/>
      <point x="74.02305728" y="555"/>
      <point x="66" y="546.97694272"/>
      <point x="66" y="537.08" type="curve"/>
      <point x="66" y="-192.07999999999998" type="line"/>
      <point x="66" y="-201.97694271999998"/>
      <point x="74.02305728" y="-210"/>
    </contour>
    <contour>
      <point x="382" y="278" type="curve"/>
      <point x="382" y="413.8620485"/>
      <point x="314.8427125" y="524"/>
      <point x="232" y="524" type="curve"/>
      <point x="149.1572875" y="524"/>
      <point x="82" y="413.8620485"/>
      <point x="82" y="278" type="curve"/>
      <point x="82" y="142.1379515"/>
      <point x="149.1572875" y="32"/>
      <point x="232" y="32" type="curve"/>
      <point x="314.8427125" y="32"/>
      <point x="382" y="142.1379515"/>
    </contour>
    <contour>
      <point x="318" y="278" type="curve"/>
      <point x="318" y="177.4841755"/>
      <point x="279.4964885" y="96"/>
      <point x="232" y="96" type="curve"/>
      <point x="184.5035115" y="96"/>
      <point x="146" y="177.4841755"/>
      <point x="146" y="278" type="curve"/>
      <point x="146" y="378.5158245"/>
      <point x="184.5035115" y="460"/>
      <point x="232" y="460" type="curve"/>
      <point x="279.4964885" y="460"/>
      <point x="318" y="378.5158245"/>
    </contour>
  </outline>
</glyph>
<glyph name="uni03C2" format="2">
  <advance width="500"/>
  <unicode hex="03C2"/>
  <outline>
    <contour>
      <point x="408.4" y="467.04" type="line"/>
      <point x="336.4" y="556"/>
      <point x="174.4" y="556"/>
      <point x="70" y="397.53999999999996" type="curve"/>
      <point x="70" y="158.46"/>
      <point x="174.4" y="0"/>
      <point x="336.4" y="0" type="curve"/>
      <point x="381.4" y="69.5"/>
      <point x="408.4" y="116.76000000000002"/>
      <point x="408.4" y="139.0" type="curve"/>
      <point x="352.08" y="169.57999999999998" type="line"/>
      <point x="318.4" y="64"/>
      <point x="134" y="189.04"/>
      <point x="134" y="278" type="curve"/>
      <point x="134" y="366.96000000000004"/>
      <point x="318.4" y="492"/>
      <point x="352.08" y="386.42" type="curve"/>
    </contour>
    <contour>
      <point x="317.92" y="-210" type="curve"/>
      <point x="346.08" y="-210" type="line"/>
      <point x="355.97694272" y="-210"/>
      <point x="364" y="-201.97694271999998"/>
      <point x="364" y="-192.07999999999998" type="curve"/>
      <point x="364" y="-65.92" type="line"/>
      <point x="364" y="-56.02305728"/>
      <point x="355.97694272" y="-48"/>
      <point x="346.08" y="-48" type="curve"/>
      <point x="317.92" y="-48" type="line"/>
      <point x="308.02305728" y="-48"/>
      <point x="300" y="-56.02305728"/>
      <point x="300" y="-65.92" type="curve"/>
      <point x="300" y="-192.07999999999998" type="line"/>
      <point x="300" y="-201.97694271999998"/>
      <point x="308.02305728" y="-210"/>
    </contour>
  </outline>
</glyph>
<glyph name="uni03C4" format="2">
  <advance width="500"/>
  <unicode hex="03C4"/>
  <outline>
    <contour>
      <point x="89.92" y="491" type="curve"/>
      <point x="410.08" y="491" type="line"/>
      <point x="419.97694272" y="491"/>
      <point x="428" y="499.02305728"/>
      <point x="428" y="508.92" type="curve"/>
      <point x="428" y="537.08" type="line"/>
      <point x="428" y="546.97694272"/>
      <point x="419.97694272" y="555"/>
      <point x="410.08" y="555" type="curve"/>
      <point x="89.92" y="555" type="line"/>
      <point x="80.02305728" y="555"/>
      <point x="72" y="546.97694272"/>
      <point x="72" y="537.08" type="curve"/>
      <point x="72" y="508.92" type="line"/>
      <point x="72" y="499.02305728"/>
      <point x="80.02305728" y="491"/>
    </contour>
    <contour>
      <point x="235.92000000000002" y="0" type="curve"/>
      <point x="264.08" y="0" type="line"/>
      <point x="273.97694272" y="0"/>
      <point x="282" y="8.023057280000002"/>
      <point x="282" y="17.92" type="curve"/>
      <point x="282" y="537.08" type="line"/>
      <point x="282" y="546.97694272"/>
      <point x="273.97694272" y="555"/>
      <point x="264.08" y="555" type="curve"/>
      <point x="235.92000000000002" y="555" type="line"/>
      <point x="226.02305728000002" y="555"/>
      <point x="218" y="546.97694272"/>
      <point x="218" y="537.08" type="curve"/>
      <point x="218" y="17.92" type="line"/>
      <point x="218" y="8.023057280000002"/>
      <point x="226.02305728000002" y="0"/>
    </contour>
  </outline>
</glyph>
<glyph name="uni03C6" format="2">
  <advance width="500"/>
  <unicode hex="03C6"/>
  <outline>
    <contour>
      <point x="428" y="278" type="curve"/>
      <point x="428" y="411.65290949999996"/>
      <point x="348.3066855" y="520"/>
      <point x="250" y="520" type="curve"/>
      <point x="151.69331449999999" y="520"/>
      <point x="72" y="411.65290949999996"/>
      <point x="72" y="278" type="curve"/>
      <point x="72" y="144.3470905"/>
      <point x="151.69331449999999" y="36"/>
      <point x="250" y="36" type="curve"/>
      <point x="348.3066855" y="36"/>
      <point x="428" y="144.3470905"/>
    </contour>
    <contour>
      <point x="364" y="278" type="curve"/>
      <point x="364" y="179.69331449999999"/>
      <point x="312.9604615" y="100"/>
      <point x="250" y="100" type="curve"/>
      <point x="187.0395385" y="100"/>
      <point x="136" y="179.69331449999999"/>
      <point x="136" y="278" type="curve"/>
      <point x="136" y="376.3066855"/>
      <point x="187.0395385" y="456"/>
      <point x="250" y="456" type="curve"/>
      <point x="312.9604615" y="456"/>
      <point x="364" y="376.3066855"/>
    </contour>
    <contour>
      <point x="235.92000000000002" y="-210" type="curve"/>
      <point x="264.08" y="-210" type="line"/>
      <point x="273.97694272" y="-210"/>
      <point x="282.0" y="-201.97694271999998"/>
      <point x="282.0" y="-192.07999999999998" type="curve"/>
      <point x="282.0" y="742.08" type="line"/>
      <point x="282.0" y="751.97694272"/>
      <point x="273.97694272" y="760"/>
      <point x="264.08" y="760" type="curve"/>
      <point x="235.92000000000002" y="760" type="line"/>
      <point x="226.02305728000002" y="760"/>
      <point x="218.0" y="751.97694272"/>
      <point x="218.0" y="742.08" type="curve"/>
      <point x="218.0" y="-192.07999999999998" type="line"/>
      <point x="218.0" y="-201.97694271999998"/>
      <point x="226.02305728000002" y="-210"/>
    </contour>
  </outline>
</glyph>
<glyph name="uni03C8" format="2">
  <advance width="500"/>
  <unicode hex="03C8"/>
  <outline>
    <contour>
      <point x="235.92000000000002" y="-210" type="curve"/>
      <point x="264.08" y="-210" type="line"/>
      <point x="273.97694272" y="-210"/>
      <point x="282.0" y="-201.97694271999998"/>
      <point x="282.0" y="-192.07999999999998" type="curve"/>
      <point x="282.0" y="537.08" type="line"/>
      <point x="282.0" y="546.97694272"/>
      <point x="273.97694272" y="555"/>
      <point x="264.08" y="555" type="curve"/>
      <point x="235.92000000000002" y="555" type="line"/>
      <point x="226.02305728000002" y="555"/>
      <point x="218.0" y="546.97694272"/>
      <point x="218.0" y="537.08" type="curve"/>
      <point x="218.0" y="-192.07999999999998" type="line"/>
      <point x="218.0" y="-201.97694271999998"/>
      <point x="226.02305728000002" y="-210"/>
    </contour>
    <contour>
      <point x="225.2" y="482.8" type="line"/>
      <point x="208.4" y="550"/>
      <point x="113.9" y="550"/>
      <point x="53" y="430.3" type="curve"/>
      <point x="53" y="249.7"/>
      <point x="113.9" y="130"/>
      <point x="208.4" y="130" type="curve"/>
      <point x="234.64999999999998" y="182.5"/>
      <point x="225.2" y="218.2"/>
      <point x="225.2" y="235.0" type="curve"/>
      <point x="184.24" y="258.1" type="line"/>
      <point x="197.9" y="194"/>
      <point x="117" y="272.8"/>
      <point x="117" y="340" type="curve"/>
      <point x="117" y="407.2"/>
      <point x="197.9" y="486"/>
      <point x="184.24" y="421.9" type="curve"/>
    </contour>
    <contour>
      <point x="409.2" y="482.8" type="line"/>
      <point x="392.4" y="550"/>
      <point x="297.9" y="550"/>
      <point x="237" y="430.3" type="curve"/>
      <point x="237" y="249.7"/>
      <point x="297.9" y="130"/>
      <point x="392.4" y="130" type="curve"/>
      <point x="418.65" y="182.5"/>
      <point x="409.2" y="218.2"/>
      <point x="409.2" y="235.0" type="curve"/>
      <point x="368.24" y="258.1" type="line"/>
      <point x="381.9" y="194"/>
      <point x="301" y="272.8"/>
      <point x="301" y="340" type="curve"/>
      <point x="301" y="407.2"/>
      <point x="381.9" y="486"/>
      <point x="368.24" y="421.9" type="curve"/>
    </contour>
  </outline>
</glyph>
<glyph name="uni03CE" format="2">
  <advance width="500"/>
  <unicode hex="03CE"/>
  <outline>
    <contour>
      <point x="73.92" y="0" type="curve"/>
      <point x="102.08" y="0" type="line"/>
      <point x="111.97694272" y="0"/>
      <point x="120" y="8.023057280000002"/>
      <point x="120" y="17.92" type="curve"/>
      <point x="120" y="232.07999999999998" type="line"/>
      <point x="120" y="241.97694271999998"/>
      <point x="111.97694272" y="250"/>
      <point x="102.08" y="250" type="curve"/>
      <point x="73.92" y="250" type="line"/>
      <point x="64.02305728" y="250"/>
      <point x="56" y="241.97694271999998"/>
      <point x="56" y="232.07999999999998" type="curve"/>
      <point x="56" y="17.92" type="line"/>
      <point x="56" y="8.023057280000002"/>
      <point x="64.02305728" y="0"/>
    </contour>
    <contour>
      <point x="365.92" y="0" type="curve"/>
      <point x="394.08" y="0" type="line"/>
      <point x="403.97694272" y="0"/>
      <point x="412" y="8.023057280000002"/>
      <point x="412" y="17.92" type="curve"/>
      <point x="412" y="232.07999999999998" type="line"/>
      <point x="412" y="241.97694271999998"/>
      <point x="403.97694272" y="250"/>
      <point x="394.08" y="250" type="curve"/>
      <point x="365.92" y="250" type="line"/>
      <point x="356.02305728" y="250"/>
      <point x="348" y="241.97694271999998"/>
      <point x="348" y="232.07999999999998" type="curve"/>
      <point x="348" y="17.92" type="line"/>
      <point x="348" y="8.023057280000002"/>
      <point x="356.02305728" y="0"/>
    </contour>
    <contour>
      <point x="56" y="248" type="line"/>
      <point x="56" y="480"/>
      <point x="154" y="560"/>
      <point x="250" y="394" type="curve"/>
      <point x="346" y="560"/>
      <point x="444" y="480"/>
      <point x="444" y="248" type="curve"/>
      <point x="380" y="248" type="line"/>
      <point x="380" y="413"/>
      <point x="326" y="452"/>
      <point x="250" y="276" type="curve"/>
      <point x="174" y="452"/>
      <point x="120" y="413"/>
      <point x="120" y="248" type="curve"/>
    </contour>
    <contour>
      <point x="198.7497526193191" y="567.9104974478429" type="line"/>
      <point x="274.7497526193191" y="645.9104974478429" type="line"/>
      <point x="301.2502473806809" y="620.0895025521571" type="line"/>
      <point x="225.2502473806809" y="542.0895025521571" type="line"/>
    </contour>
  </outline>
</glyph>
<glyph name="uni0407" format="2">
  <advance width="250"/>
  <unicode hex="0407"/>
  <outline>
    <contour>
      <point x="105.5" y="764" type="curve"/>
      <point x="105.5" y="774.217267875"/>
      <point x="97.217267875" y="782.5"/>
      <point x="87.0" y="782.5" type="curve"/>
      <point x="76.782732125" y="782.5"/>
      <point x="68.5" y="774.217267875"/>
      <point x="68.5" y="764" type="curve"/>
      <point x="68.5" y="753.782732125"/>
      <point x="76.782732125" y="745.5"/>
      <point x="87.0" y="745.5" type="curve"/>
      <point x="97.217267875" y="745.5"/>
      <point x="105.5" y="753.782732125"/>
    </contour>
    <contour>
      <point x="181.5" y="764" type="curve"/>
      <point x="181.5" y="774.217267875"/>
      <point x="173.217267875" y="782.5"/>
      <point x="163.0" y="782.5" type="curve"/>
      <point x="152.782732125" y="782.5"/>
      <point x="144.5" y="774.217267875"/>
      <point x="144.5" y="764" type="curve"/>
      <point x="144.5" y="753.782732125"/>
      <point x="152.782732125" y="745.5"/>
      <point x="163.0" y="745.5" type="curve"/>
      <point x="173.217267875" y="745.5"/>
      <point x="181.5" y="753.782732125"/>
    </contour>
    <component base="I"/>
  </outline>
</glyph>
<glyph name="uni0414" format="2">
  <advance width="500"/>
  <unicode hex="0414"/>
  <outline>
    <contour>
      <point x="60.475209119087765" y="5.494320696387561" type="line"/>
      <point x="182.47520911908776" y="705.4943206963876" type="line"/>
      <point x="245.52479088091224" y="694.5056793036124" type="line"/>
      <point x="123.52479088091224" y="-5.494320696387561" type="line"/>
    </contour>
    <contour>
      <point x="376.47520911908776" y="-5.494320696387561" type="line"/>
      <point x="254.47520911908776" y="694.5056793036124" type="line"/>
      <point x="317.52479088091224" y="705.4943206963876" type="line"/>
      <point x="439.52479088091224" y="5.494320696387561" type="line"/>
    </contour>
    <contour>
      <point x="69.92" y="0" type="curve"/>
      <point x="430.08" y="0" type="line"/>
      <point x="439.97694272" y="0"/>
      <point x="448" y="8.023057280000002"/>
      <point x="448" y="17.92" type="curve"/>
      <point x="448" y="46.08" type="line"/>
      <point x="448" y="55.97694272"/>
      <point x="439.97694272" y="64"/>
      <point x="430.08" y="64" type="curve"/>
      <point x="69.92" y="64" type="line"/>
      <point x="60.02305728" y="64"/>
      <point x="52" y="55.97694272"/>
      <point x="52" y="46.08" type="curve"/>
      <point x="52" y="17.92" type="line"/>
      <point x="52" y="8.023057280000002"/>
      <point x="60.02305728" y="0"/>
    </contour>
  </outline>
</glyph>
<glyph name="uni0417" format="2">
  <advance width="500"/>
  <unicode hex="0417"/>
  <outline>
    <contour>
      <point x="402.6" y="693.6" type="line"/>
      <point x="285.0" y="705.12"/>
      <point x="84.6" y="694.88"/>
      <point x="81.4" y="434.0" type="curve"/>
      <point x="78.2" y="357.0"/>
      <point x="229.0" y="355.12"/>
      <point x="246.5" y="350" type="curve"/>
      <point x="285.0" y="266.0"/>
      <point x="422.44" y="329.0"/>
      <point x="419.88" y="203.0" type="curve"/>
      <point x="417.32" y="3.2"/>
      <point x="208.0" y="-3.84"/>
      <point x="78.2" y="8.96" type="curve"/>
      <point x="85.24" y="62.72" type="line"/>
      <point x="215.0" y="39.68"/>
      <point x="383.4" y="54.4"/>
      <point x="387.88" y="189.0" type="curve"/>
      <point x="390.44" y="315.0"/>
      <point x="267.5" y="308.0"/>
      <point x="236.0" y="351.92" type="curve"/>
      <point x="190.5" y="359.6"/>
      <point x="104.44" y="357.68"/>
      <point x="108.28" y="448.0" type="curve"/>
      <point x="112.12" y="660.32"/>
      <point x="278.0" y="671.2"/>
      <point x="404.52" y="637.28" type="curve"/>
    </contour>
  </outline>
</glyph>
<glyph name="uni0427" format="2">
  <advance width="500"/>
  <unicode hex="0427"/>
  <outline>
    <contour>
      <point x="75.92" y="330" type="curve"/>
      <point x="104.08" y="330" type="line"/>
      <point x="113.97694272" y="330"/>
      <point x="122" y="338.02305728"/>
      <point x="122" y="347.92" type="curve"/>
      <point x="122" y="682.08" type="line"/>
      <point x="122" y="691.97694272"/>
      <point x="113.97694272" y="700"/>
      <point x="104.08" y="700" type="curve"/>
      <point x="75.92" y="700" type="line"/>
      <point x="66.02305728" y="700"/>
      <point x="58" y="691.97694272"/>
      <point x="58" y="682.08" type="curve"/>
      <point x="58" y="347.92" type="line"/>
      <point x="58" y="338.02305728"/>
      <point x="66.02305728" y="330"/>
    </contour>
    <contour>
      <point x="393.92" y="0" type="curve"/>
      <point x="422.08" y="0" type="line"/>
      <point x="431.97694272" y="0"/>
      <point x="440" y="8.023057280000002"/>
      <point x="440" y="17.92" type="curve"/>
      <point x="440" y="682.08" type="line"/>
      <point x="440" y="691.97694272"/>
      <point x="431.97694272" y="700"/>
      <point x="422.08" y="700" type="curve"/>
      <point x="393.92" y="700" type="line"/>
      <point x="384.02305728" y="700"/>
      <point x="376" y="691.97694272"/>
      <point x="376" y="682.08" type="curve"/>
      <point x="376" y="17.92" type="line"/>
      <point x="376" y="8.023057280000002"/>
      <point x="384.02305728" y="0"/>
    </contour>
    <contour>
      <point x="75.92" y="300" type="curve"/>
      <point x="422.08" y="300" type="line"/>
      <point x="431.97694272" y="300"/>
      <point x="440" y="308.02305728"/>
      <point x="440" y="317.92" type="curve"/>
      <point x="440" y="346.08" type="line"/>
      <point x="440" y="355.97694272"/>
      <point x="431.97694272" y="364"/>
      <point x="422.08" y="364" type="curve"/>
      <point x="75.92" y="364" type="line"/>
      <point x="66.02305728" y="364"/>
      <point x="58" y="355.97694272"/>
      <point x="58" y="346.08" type="curve"/>
      <point x="58" y="317.92" type="line"/>
      <point x="58" y="308.02305728"/>
      <point x="66.02305728" y="300"/>
    </contour>
  </outline>
</glyph>
<glyph name="uni0428" format="2">
  <advance width="500"/>
  <unicode hex="0428"/>
  <outline>
    <contour>
      <point x="75.92" y="0" type="curve"/>
      <point x="104.08" y="0" type="line"/>
      <point x="113.97694272" y="0"/>
      <point x="122" y="8.023057280000002"/>
      <point x="122" y="17.92" type="curve"/>
      <point x="122" y="682.08" type="line"/>
      <point x="122" y="691.97694272"/>
      <point x="113.97694272" y="700"/>
      <point x="104.08" y="700" type="curve"/>
      <point x="75.92" y="700" type="line"/>
      <point x="66.02305728" y="700"/>
      <point x="58" y="691.97694272"/>
      <point x="58" y="682.08" type="curve"/>
      <point x="58" y="17.92" type="line"/>
      <point x="58" y="8.023057280000002"/>
      <point x="66.02305728" y="0"/>
    </contour>
    <contour>
      <point x="235.92000000000002" y="0" type="curve"/>
      <point x="264.08" y="0" type="line"/>
      <point x="273.97694272" y="0"/>
      <point x="282" y="8.023057280000002"/>
      <point x="282" y="17.92" type="curve"/>
      <point x="282" y="682.08" type="line"/>
      <point x="282" y="691.97694272"/>
      <point x="273.97694272" y="700"/>
      <point x="264.08" y="700" type="curve"/>
      <point x="235.92000000000002" y="700" type="line"/>
      <point x="226.02305728000002" y="700"/>
      <point x="218" y="691.97694272"/>
      <point x="218" y="682.08" type="curve"/>
      <point x="218" y="17.92" type="line"/>
      <point x="218" y="8.023057280000002"/>
      <point x="226.02305728000002" y="0"/>
    </contour>
    <contour>
      <point x="393.92" y="0" type="curve"/>
      <point x="422.08" y="0" type="line"/>
      <point x="431.97694272" y="0"/>
      <point x="440" y="8.023057280000002"/>
      <point x="440" y="17.92" type="curve"/>
      <point x="440" y="682.08" type="line"/>
      <point x="440" y="691.97694272"/>
      <point x="431.97694272" y="700"/>
      <point x="422.08" y="700" type="curve"/>
      <point x="393.92" y="700" type="line"/>
      <point x="384.02305728" y="700"/>
      <point x="376" y="691.97694272"/>
      <point x="376" y="682.08" type="curve"/>
      <point x="376" y="17.92" type="line"/>
      <point x="376" y="8.023057280000002"/>
      <point x="384.02305728" y="0"/>
    </contour>
    <contour>
      <point x="58" y="0" type="line"/>
      <point x="440" y="0" type="line"/>
      <point x="440" y="64" type="line"/>
      <point x="58" y="64" type="line"/>
    </contour>
  </outline>
</glyph>
<glyph name="uni042E" format="2">
  <advance width="500"/>
  <unicode hex="042E"/>
  <outline>
    <contour>
      <point x="71.92" y="0" type="curve"/>
      <point x="100.08" y="0" type="line"/>
      <point x="109.97694272" y="0"/>
      <point x="118" y="8.023057280000002"/>
      <point x="118" y="17.92" type="curve"/>
      <point x="118" y="682.08" type="line"/>
      <point x="118" y="691.97694272"/>
      <point x="109.97694272" y="700"/>
      <point x="100.08" y="700" type="curve"/>
      <point x="71.92" y="700" type="line"/>
      <point x="62.02305728" y="700"/>
      <point x="54" y="691.97694272"/>
      <point x="54" y="682.08" type="curve"/>
      <point x="54" y="17.92" type="line"/>
      <point x="54" y="8.023057280000002"/>
      <point x="62.02305728" y="0"/>
    </contour>
    <contour>
      <point x="71.92" y="320" type="curve"/>
      <point x="174.07999999999998" y="320" type="line"/>
      <point x="183.97694271999998" y="320"/>
      <point x="192" y="328.02305728"/>
      <point x="192" y="337.92" type="curve"/>
      <point x="192" y="366.08" type="line"/>
      <point x="192" y="375.97694272"/>
      <point x="183.97694271999998" y="384"/>
      <point x="174.07999999999998" y="384" type="curve"/>
      <point x="71.92" y="384" type="line"/>
      <point x="62.02305728" y="384"/>
      <point x="54" y="375.97694272"/>
      <point x="54" y="366.08" type="curve"/>
      <point x="54" y="337.92" type="line"/>
      <point x="54" y="328.02305728"/>
      <point x="62.02305728" y="320"/>
    </contour>
    <contour>
      <point x="438" y="350" type="curve"/>
      <point x="438" y="488.0711875"/>
      <point x="378.901587" y="600"/>
      <point x="306" y="600" type="curve"/>
      <point x="233.098413" y="600"/>
      <point x="174" y="488.0711875"/>
      <point x="174" y="350" type="curve"/>
      <point x="174" y="211.9288125"/>
      <point x="233.098413" y="100"/>
      <point x="306" y="100" type="curve"/>
      <point x="378.901587" y="100"/>
      <point x="438" y="211.9288125"/>
    </contour>
    <contour>
      <point x="374" y="350" type="curve"/>
      <point x="374" y="247.2750365"/>
      <point x="343.555363" y="164"/>
      <point x="306" y="164" type="curve"/>
      <point x="268.444637" y="164"/>
      <point x="238" y="247.2750365"/>
      <point x="238" y="350" type="curve"/>
      <point x="238" y="452.7249635"/>
      <point x="268.444637" y="536"/>
      <point x="306" y="536" type="curve"/>
      <point x="343.555363" y="536"/>
      <point x="374" y="452.7249635"/>
    </contour>
  </outline>
</glyph>
<glyph name="uni042F" format="2">
  <advance width="500"/>
  <unicode hex="042F"/>
  <outline>
    <contour>
      <point x="329.92" y="0" type="curve"/>
      <point x="358.08" y="0" type="line"/>
      <point x="367.97694272" y="0"/>
      <point x="376" y="8.023057280000002"/>
      <point x="376" y="17.92" type="curve"/>
      <point x="376" y="682.08" type="line"/>
      <point x="376" y="691.97694272"/>
      <point x="367.97694272" y="700"/>
      <point x="358.08" y="700" type="curve"/>
      <point x="329.92" y="700" type="line"/>
      <point x="320.02305728" y="700"/>
      <point x="312" y="691.97694272"/>
      <point x="312" y="682.08" type="curve"/>
      <point x="312" y="17.92" type="line"/>
      <point x="312" y="8.023057280000002"/>
      <point x="320.02305728" y="0"/>
    </contour>
    <contour>
      <point x="406" y="512" type="curve"/>
      <point x="406" y="598.156421"/>
      <point x="334.36556" y="668"/>
      <point x="246" y="668" type="curve"/>
      <point x="157.63443999999998" y="668"/>
      <point x="86" y="598.156421"/>
      <point x="86" y="512" type="curve"/>
      <point x="86" y="425.843579"/>
      <point x="157.63443999999998" y="356"/>
      <point x="246" y="356" type="curve"/>
      <point x="334.36556" y="356"/>
      <point x="406" y="425.843579"/>
    </contour>
    <contour>
      <point x="342" y="512" type="curve"/>
      <point x="342" y="461.189803"/>
      <point x="299.019336" y="420"/>
      <point x="246" y="420" type="curve"/>
      <point x="192.980664" y="420"/>
      <point x="150" y="461.189803"/>
      <point x="150" y="512" type="curve"/>
      <point x="150" y="562.810197"/>
      <point x="192.980664" y="604"/>
      <point x="246" y="604" type="curve"/>
      <point x="299.019336" y="604"/>
      <point x="342" y="562.810197"/>
    </contour>
    <contour>
      <point x="290.195509697664" y="338.8668168289374" type="line"/>
      <point x="100.19550969766404" y="-15.13318317106262" type="line"/>
      <point x="43.804490302335964" y="15.13318317106262" type="line"/>
      <point x="233.80449030233595" y="369.1331831710626" type="line"/>
    </contour>
  </outline>
</glyph>
<glyph name="uni0434" format="2">
  <advance width="500"/>
  <unicode hex="0434"/>
  <outline>
    <contour>
      <point x="392" y="234" type="curve"/>
      <point x="392" y="363.2346315"/>
      <point x="328.4244345" y="468"/>
      <point x="250" y="468" type="curve"/>
      <point x="171.57556549999998" y="468"/>
      <point x="108" y="363.2346315"/>
      <point x="108" y="234" type="curve"/>
      <point x="108" y="104.7653685"/>
      <point x="171.57556549999998" y="0"/>
      <point x="250" y="0" type="curve"/>
      <point x="328.4244345" y="0"/>
      <point x="392" y="104.7653685"/>
    </contour>
    <contour>
      <point x="328" y="234" type="curve"/>
      <point x="328" y="140.1115925"/>
      <point x="293.0782105" y="64"/>
      <point x="250" y="64" type="curve"/>
      <point x="206.9217895" y="64"/>
      <point x="172" y="140.1115925"/>
      <point x="172" y="234" type="curve"/>
      <point x="172" y="327.88840749999997"/>
      <point x="206.9217895" y="404"/>
      <point x="250" y="404" type="curve"/>
      <point x="293.0782105" y="404"/>
      <point x="328" y="327.88840749999997"/>
    </contour>
    <contour>
      <point x="178.67813647719905" y="-9.102304229498621" type="line"/>
      <point x="124.67813647719906" y="-191.10230422949863" type="line"/>
      <point x="63.32186352280094" y="-172.89769577050137" type="line"/>
      <point x="117.32186352280094" y="9.102304229498621" type="line"/>
    </contour>
    <contour>
      <point x="382.6781364771991" y="9.102304229498621" type="line"/>
      <point x="436.6781364771991" y="-172.89769577050137" type="line"/>
      <point x="375.3218635228009" y="-191.10230422949863" type="line"/>
      <point x="321.3218635228009" y="-9.102304229498621" type="line"/>
    </contour>
    <contour>
      <point x="89.92" y="-190" type="curve"/>
      <point x="410.08" y="-190" type="line"/>
      <point x="419.97694272" y="-190"/>
      <point x="428" y="-181.97694271999998"/>
      <point x="428" y="-172.07999999999998" type="curve"/>
      <point x="428" y="-143.92000000000002" type="line"/>
      <point x="428" y="-134.02305728000002"/>
      <point x="419.97694272" y="-126"/>
      <point x="410.08" y="-126" type="curve"/>
      <point x="89.92" y="-126" type="line"/>
      <point x="80.02305728" y="-126"/>
      <point x="72" y="-134.02305728000002"/>
      <point x="72" y="-143.92000000000002" type="curve"/>
      <point x="72" y="-172.07999999999998" type="line"/>
      <point x="72" y="-181.97694271999998"/>
      <point x="80.02305728" y="-190"/>
    </contour>
  </outline>
</glyph>
<glyph name="uni0436" format="2">
  <advance width="500"/>
  <unicode hex="0436"/>
  <outline>
    <contour>
      <point x="235.92000000000002" y="0" type="curve"/>
      <point x="264.08" y="0" type="line"/>
      <point x="273.97694272" y="0"/>
      <point x="282.0" y="8.023057280000002"/>
      <point x="282.0" y="17.92" type="curve"/>
      <point x="282.0" y="537.08" type="line"/>
      <point x="282.0" y="546.97694272"/>
      <point x="273.97694272" y="555"/>
      <point x="264.08" y="555" type="curve"/>
      <point x="235.92000000000002" y="555" type="line"/>
      <point x="226.02305728000002" y="555"/>
      <point x="218.0" y="546.97694272"/>
      <point x="218.0" y="537.08" type="curve"/>
      <point x="218.0" y="17.92" type="line"/>
      <point x="218.0" y="8.023057280000002"/>
      <point x="226.02305728000002" y="0"/>
    </contour>
    <contour>
      <point x="96.84676118488508" y="572.4141153631687" type="line"/>
      <point x="456.84676118488505" y="17.414115363168698" type="line"/>
      <point x="403.15323881511495" y="-17.414115363168698" type="line"/>
      <point x="43.153238815114925" y="537.5858846368313" type="line"/>
    </contour>
    <contour>
      <point x="456.84676118488505" y="537.5858846368313" type="line"/>
      <point x="96.84676118488508" y="-17.414115363168698" type="line"/>
      <point x="43.153238815114925" y="17.414115363168698" type="line"/>
      <point x="403.15323881511495" y="572.4141153631687" type="line"/>
    </contour>
  </outline>
</glyph>
